<svg width="107" height="28" viewBox="0 0 107 28" fill="none" xmlns="http://www.w3.org/2000/svg">
<path d="M9.72816 5.17857L9.01643 4.65067C8.88442 4.55496 8.69526 4.57794 8.59955 4.70996C8.49925 4.84518 8.52682 5.03113 8.65883 5.12684L9.225 5.54457L8.89537 7.41396L7.43117 7.15981L8.13722 3.15563C8.27485 2.37509 7.8207 1.89261 7.17285 1.77838L4.05069 1.22786C3.40284 1.11362 2.81106 1.41168 2.67343 2.19222L1.55519 8.53411L0.96978 8.43089C0.80977 8.40268 0.653681 8.51197 0.625466 8.67198C0.597252 8.83199 0.706547 8.98808 0.866558 9.0163L7.50115 10.1862C7.66116 10.2144 7.81725 10.1051 7.84547 9.94506C7.87368 9.78505 7.76439 9.62896 7.60438 9.60075L7.01897 9.49753L7.32795 7.74521L9.08485 8.05098C9.24877 8.07988 9.40095 7.9699 9.42917 7.80989L9.84206 5.46827C9.86133 5.35899 9.81678 5.24651 9.72816 5.17857ZM3.51905 3.10187C3.6147 2.5594 3.98084 2.42275 4.38672 2.49432L6.42783 2.85422C6.82981 2.9251 7.12713 3.17873 7.03148 3.72121L6.94684 4.20124C6.85187 4.73981 6.48574 4.87646 6.07985 4.80489L4.04264 4.44567C3.63676 4.3741 3.33944 4.12048 3.43509 3.578L3.51905 3.10187ZM3.34533 5.22813L4.51614 5.43457C4.67616 5.46279 4.78545 5.61888 4.75724 5.77889C4.72902 5.9389 4.57293 6.04819 4.41292 6.01998L3.24211 5.81353C3.0821 5.78532 2.97281 5.62923 3.00102 5.46922C3.02923 5.30921 3.18532 5.19991 3.34533 5.22813Z" fill="#90A3BF"/>
<path d="M13.624 9.21906L15.351 7.63629L15.4474 7.66456C15.3799 7.72777 15.3095 7.77546 15.2362 7.80761C15.1636 7.83611 15.0856 7.85241 15.0023 7.85649C14.9226 7.86121 14.8372 7.85555 14.7461 7.83949C14.5057 7.7971 14.2986 7.70425 14.1248 7.56093C13.9553 7.41461 13.8312 7.23497 13.7523 7.02201C13.6777 6.80605 13.6625 6.5724 13.7069 6.32106C13.7512 6.06973 13.849 5.85599 14.0002 5.67985C14.1514 5.5037 14.339 5.37716 14.5629 5.3002C14.7874 5.21961 15.0272 5.20179 15.2822 5.24675C15.5444 5.293 15.7655 5.39206 15.9452 5.54395C16.1293 5.69283 16.2616 5.87954 16.3422 6.10408C16.4235 6.32497 16.441 6.56655 16.3947 6.82881C16.3697 6.97087 16.3286 7.10821 16.2714 7.24085C16.2142 7.37348 16.1366 7.50441 16.0387 7.63362C15.9445 7.76348 15.8256 7.89462 15.682 8.02705L14.2688 9.33274L13.624 9.21906ZM14.9055 7.38309C15.0621 7.41071 15.2066 7.40051 15.339 7.3525C15.4757 7.30149 15.5896 7.22016 15.6806 7.10852C15.7723 6.99323 15.832 6.85728 15.8596 6.70065C15.8885 6.53673 15.8774 6.38643 15.8264 6.24974C15.7791 6.11369 15.7017 5.99864 15.5943 5.9046C15.487 5.81055 15.355 5.74972 15.1984 5.7221C15.0454 5.69513 14.9024 5.70747 14.7693 5.75912C14.6363 5.81078 14.5224 5.89211 14.4277 6.00311C14.3367 6.11475 14.2767 6.25253 14.2478 6.41644C14.2202 6.57307 14.2297 6.72123 14.2764 6.86092C14.3238 6.99697 14.4012 7.11202 14.5085 7.20606C14.6202 7.29711 14.7525 7.35612 14.9055 7.38309ZM18.1673 10.0878C17.8431 10.0306 17.5744 9.89308 17.3611 9.6752C17.1522 9.45433 17.008 9.17538 16.9284 8.83836C16.8495 8.4977 16.847 8.11792 16.9209 7.69903C16.9947 7.28014 17.1267 6.92595 17.3167 6.63645C17.5073 6.34332 17.7383 6.13053 18.0095 5.99808C18.2808 5.86562 18.5785 5.82798 18.9027 5.88514C19.2268 5.94231 19.4937 6.0795 19.7033 6.29673C19.9129 6.51396 20.0571 6.79291 20.136 7.13358C20.2192 7.47124 20.2238 7.84952 20.15 8.26841C20.0761 8.6873 19.9439 9.04331 19.7532 9.33644C19.5626 9.62958 19.3298 9.84205 19.0549 9.97386C18.7837 10.1063 18.4878 10.1443 18.1673 10.0878ZM18.2549 9.59055C18.4735 9.62909 18.6744 9.59692 18.8578 9.49405C19.0419 9.38754 19.1988 9.22178 19.3286 8.99679C19.4621 8.77244 19.5574 8.49818 19.6145 8.17399C19.6717 7.84981 19.6759 7.55948 19.6273 7.30302C19.5822 7.0472 19.4893 6.83927 19.3485 6.67924C19.2114 6.51985 19.0335 6.42088 18.815 6.38235C18.5964 6.34381 18.3955 6.37598 18.2121 6.47885C18.0287 6.58172 17.8703 6.74533 17.7368 6.96968C17.607 7.19467 17.5135 7.46926 17.4563 7.79344C17.3998 8.11399 17.3941 8.40217 17.4391 8.65799C17.4878 8.91445 17.5804 9.1242 17.7169 9.28723C17.857 9.45091 18.0364 9.55202 18.2549 9.59055ZM20.6027 10.4496L21.3205 6.37907L21.8559 6.47349L21.2249 10.0523L23.0115 10.3673L22.9248 10.859L20.6027 10.4496Z" fill="#90A3BF"/>
<g clip-path="url(#clip0_20_7716)">
<path d="M36.248 6.90507C34.0937 6.52521 32.037 7.96533 31.6571 10.1196C31.2773 12.2739 32.7174 14.3306 34.8717 14.7105C37.026 15.0903 39.0827 13.6502 39.4625 11.4959C39.8424 9.34163 38.4062 7.28562 36.248 6.90507Z" fill="#90A3BF"/>
<rect x="32.9882" y="7.13489" width="6.34065" height="6.34065" rx="3.17033" transform="rotate(10 32.9882 7.13489)" fill="white"/>
<path d="M35.9727 8.46599C34.6801 8.23808 33.4461 9.10215 33.2182 10.3947C32.9902 11.6873 33.8543 12.9213 35.1469 13.1492C36.4395 13.3772 37.6735 12.5131 37.9014 11.2205C38.1293 9.92793 37.2676 8.69432 35.9727 8.46599Z" fill="#90A3BF"/>
<rect x="34.2739" y="8.97131" width="3.17033" height="3.17033" rx="1.58516" transform="rotate(10 34.2739 8.97131)" fill="white"/>
<rect x="34.8254" y="12.6902" width="0.792582" height="1.58516" transform="rotate(10 34.8254 12.6902)" fill="#90A3BF"/>
<rect x="37.58" y="10.7615" width="1.58516" height="0.792582" transform="rotate(10 37.58 10.7615)" fill="#90A3BF"/>
<rect x="32.1161" y="9.79803" width="1.58516" height="0.792582" transform="rotate(10 32.1161 9.79803)" fill="#90A3BF"/>
</g>
<path d="M43.4289 14.4742L44.1467 10.4037L44.6384 10.4904L45.7803 12.9283L45.529 12.884L47.4249 10.9818L47.9167 11.0685L47.1989 15.139L46.658 15.0436L47.2563 11.6506L47.4369 11.7444L45.5477 13.6084L45.504 13.6007L44.3827 11.2059L44.5627 11.1756L43.9644 14.5686L43.4289 14.4742ZM48.8946 15.5056C48.7016 15.4715 48.5365 15.4068 48.3994 15.3112C48.2665 15.2127 48.1691 15.0941 48.1072 14.9555C48.0459 14.8132 48.0297 14.6601 48.0586 14.4962C48.0862 14.3396 48.1437 14.2051 48.2311 14.0928C48.3228 13.9776 48.4474 13.8887 48.6048 13.8264C48.766 13.7646 48.959 13.7348 49.184 13.7369L50.3085 13.7493L50.2334 14.1755L49.2265 14.1669C49.0313 14.1663 48.8823 14.202 48.7794 14.274C48.6802 14.3467 48.6194 14.4467 48.5969 14.5742C48.5757 14.6944 48.6054 14.803 48.686 14.8998C48.7702 14.9973 48.8852 15.0589 49.0309 15.0845C49.2166 15.1173 49.3836 15.1073 49.5319 15.0546C49.6844 14.9989 49.8109 14.9103 49.9111 14.7891C50.015 14.6684 50.0814 14.5261 50.1103 14.3622L50.2423 13.6137C50.2706 13.4534 50.2333 13.3135 50.1304 13.194C50.0318 13.0714 49.886 12.9931 49.693 12.9591C49.5254 12.9295 49.3683 12.9469 49.2218 13.0112C49.0795 13.0725 48.9649 13.1687 48.8779 13.2999L48.4758 12.9924C48.5542 12.8672 48.6629 12.7624 48.8017 12.678C48.9412 12.5899 49.0965 12.529 49.2677 12.4954C49.4389 12.4617 49.6119 12.4603 49.7867 12.4911C50.0126 12.531 50.2034 12.6097 50.3592 12.7273C50.5156 12.8412 50.6277 12.9831 50.6954 13.1527C50.7674 13.3194 50.7858 13.5029 50.7504 13.7033L50.3978 15.703L49.9006 15.6154L49.9989 15.0581L50.086 15.1072C50.0035 15.2129 49.9018 15.3001 49.7807 15.3689C49.6597 15.4377 49.5236 15.485 49.3726 15.511C49.2215 15.5369 49.0622 15.5351 48.8946 15.5056ZM51.1857 15.8419L51.705 12.897L52.2022 12.9846L52.101 13.5583L52.0277 13.4947C52.1333 13.3218 52.2752 13.1985 52.4535 13.1247C52.636 13.048 52.8366 13.0289 53.0551 13.0674C53.2664 13.1047 53.4456 13.1851 53.5929 13.3087C53.7437 13.433 53.8517 13.5872 53.9169 13.7715C53.9857 13.9564 54.0015 14.1545 53.9642 14.3657L53.628 16.2726L53.1144 16.182L53.4217 14.4391C53.4506 14.2752 53.4459 14.1316 53.4075 14.0084C53.3691 13.8852 53.3008 13.783 53.2024 13.7018C53.1084 13.6177 52.9921 13.5634 52.8537 13.5389C52.7153 13.5145 52.5857 13.5255 52.4648 13.5718C52.3483 13.6151 52.2487 13.6896 52.1663 13.7952C52.0844 13.8972 52.0294 14.0283 52.0011 14.1886L51.6938 15.9315L51.1857 15.8419ZM55.3871 16.6504C55.1759 16.6131 54.9933 16.5302 54.8394 16.4017C54.6892 16.2738 54.5822 16.1141 54.5183 15.9226C54.4587 15.728 54.4491 15.516 54.4896 15.2865L54.8143 13.4452L55.3224 13.5348L55.0074 15.3215C54.9817 15.4672 54.9883 15.5998 55.0274 15.7194C55.07 15.8396 55.1387 15.9399 55.2334 16.0205C55.3318 16.1017 55.4501 16.1545 55.5886 16.1789C55.727 16.2033 55.8545 16.1938 55.971 16.1505C56.0912 16.1079 56.1907 16.0334 56.2696 15.9271C56.352 15.8215 56.4074 15.6885 56.4357 15.5283L56.743 13.7853L57.2566 13.8759L56.7373 16.8209L56.2401 16.7332L56.3413 16.1595L56.4145 16.2231C56.3126 16.3967 56.1685 16.5215 55.9823 16.5976C55.8004 16.6707 55.602 16.6883 55.3871 16.6504ZM58.3762 17.1774C58.1832 17.1434 58.0181 17.0786 57.8809 16.9831C57.7481 16.8845 57.6507 16.7659 57.5887 16.6273C57.5275 16.4851 57.5113 16.332 57.5402 16.1681C57.5678 16.0114 57.6253 15.877 57.7127 15.7647C57.8044 15.6494 57.929 15.5606 58.0864 15.4982C58.2475 15.4365 58.4406 15.4067 58.6656 15.4088L59.7901 15.4212L59.715 15.8473L58.708 15.8388C58.5129 15.8382 58.3638 15.8739 58.261 15.9459C58.1618 16.0185 58.101 16.1186 58.0785 16.2461C58.0573 16.3663 58.087 16.4748 58.1676 16.5717C58.2518 16.6691 58.3667 16.7307 58.5124 16.7564C58.6982 16.7892 58.8652 16.7792 59.0135 16.7264C59.166 16.6707 59.2924 16.5822 59.3927 16.4609C59.4966 16.3403 59.563 16.198 59.5919 16.0341L59.7239 15.2855C59.7521 15.1253 59.7148 14.9854 59.612 14.8658C59.5134 14.7433 59.3676 14.665 59.1745 14.6309C59.007 14.6014 58.8499 14.6188 58.7034 14.6831C58.5611 14.7444 58.4465 14.8406 58.3595 14.9717L57.9574 14.6642C58.0358 14.5391 58.1444 14.4343 58.2833 14.3499C58.4228 14.2618 58.5781 14.2009 58.7493 14.1672C58.9205 14.1336 59.0935 14.1322 59.2683 14.163C59.4942 14.2028 59.685 14.2815 59.8407 14.3991C59.9972 14.5131 60.1093 14.6549 60.177 14.8246C60.249 14.9913 60.2673 15.1748 60.232 15.3751L59.8794 17.3749L59.3822 17.2872L59.4805 16.7299L59.5676 16.7791C59.4851 16.8847 59.3833 16.9719 59.2623 17.0407C59.1412 17.1095 59.0052 17.1569 58.8541 17.1828C58.7031 17.2088 58.5438 17.207 58.3762 17.1774ZM60.6673 17.5138L61.3966 13.3777L61.9047 13.4673L61.1754 17.6034L60.6673 17.5138Z" fill="#90A3BF"/>
<path d="M74.4944 13.649C73.4719 13.4687 72.494 14.1534 72.3138 15.1759C72.1369 16.1789 72.7782 17.1289 73.7945 17.3444C73.8264 17.346 73.8577 17.3515 73.8804 17.3595C73.8882 17.3609 73.8921 17.3616 73.8999 17.3629C73.9038 17.3636 73.9038 17.3636 73.9077 17.3643C74.913 17.5054 75.8406 16.8319 76.0213 15.8296C76.2016 14.8071 75.5169 13.8293 74.4944 13.649Z" fill="#90A3BF"/>
<path d="M75.6409 18.7403C74.6801 17.8224 72.9043 17.5093 71.6797 18.0419C71.1255 18.2862 70.7732 18.6868 70.6886 19.1669C70.6039 19.6469 70.7987 20.14 71.2326 20.5545C71.7143 21.0177 72.4 21.3278 73.1181 21.4544C73.8362 21.581 74.5867 21.5242 75.1977 21.2537C75.748 21.0087 76.0996 20.6119 76.1849 20.128C76.2657 19.6473 76.0749 19.1549 75.6409 18.7403Z" fill="#90A3BF"/>
<path d="M78.416 16.4893C78.3449 17.2574 77.6894 17.8259 76.9281 17.7842C76.9242 17.7836 76.9242 17.7836 76.9203 17.7829L76.9086 17.7808C76.8852 17.7767 76.8618 17.7725 76.8409 17.7769C76.4589 17.7297 76.1329 17.5474 75.9106 17.2789C76.3759 16.9907 76.7012 16.4927 76.7575 15.8991C76.786 15.5781 76.7276 15.2701 76.6071 14.9953C76.7684 14.9473 76.9484 14.9307 77.1268 14.9461C77.9034 15.0146 78.4859 15.7049 78.416 16.4893Z" fill="#90A3BF"/>
<path d="M78.56 20.2369C78.4621 20.61 78.1623 20.8951 77.7172 21.046C77.2891 21.1918 76.7794 21.2066 76.2937 21.1089C76.6194 20.9048 76.839 20.6175 76.9294 20.2874C77.0538 19.8104 76.9054 19.3053 76.5103 18.8534C76.2853 18.6004 76.0098 18.3828 75.6994 18.2034C76.6059 18.1057 77.6613 18.4648 78.2337 19.121C78.5418 19.4731 78.6612 19.8684 78.56 20.2369Z" fill="#90A3BF"/>
<path d="M83.6355 21.6316C83.3733 21.5853 83.1504 21.486 82.967 21.3334C82.7872 21.1815 82.6567 20.9952 82.5755 20.7743C82.4949 20.5497 82.4774 20.3082 82.523 20.0495C82.548 19.9075 82.5891 19.7701 82.6463 19.6375C82.7035 19.5049 82.7811 19.3739 82.879 19.2447C82.9769 19.1155 83.0957 18.9844 83.2356 18.8513L84.6489 17.5456L85.2937 17.6593L83.5677 19.2366L83.4713 19.2083C83.5388 19.1451 83.6088 19.0992 83.6814 19.0707C83.7577 19.0429 83.8357 19.0266 83.9154 19.0219C83.9988 19.0178 84.0841 19.0234 84.1716 19.0389C84.412 19.0812 84.6169 19.1756 84.7864 19.3219C84.9602 19.4652 85.0847 19.6431 85.16 19.8554C85.2388 20.0683 85.2561 20.3005 85.2118 20.5518C85.1675 20.8032 85.0694 21.0187 84.9175 21.1985C84.7662 21.3746 84.5784 21.503 84.3538 21.5836C84.1336 21.6612 83.8941 21.6772 83.6355 21.6316ZM83.7203 21.1508C83.8733 21.1778 84.016 21.1672 84.1484 21.1192C84.2814 21.0676 84.3938 20.9841 84.4855 20.8688C84.5808 20.7542 84.6423 20.6185 84.6699 20.4619C84.6988 20.298 84.6893 20.1498 84.6412 20.0174C84.5939 19.8814 84.5165 19.7663 84.4092 19.6723C84.3018 19.5782 84.1698 19.5174 84.0132 19.4898C83.8602 19.4628 83.7154 19.4748 83.5787 19.5258C83.442 19.5769 83.3281 19.6582 83.2371 19.7698C83.1467 19.8778 83.087 20.0138 83.0581 20.1777C83.0305 20.3343 83.04 20.4825 83.0868 20.6222C83.1371 20.7625 83.216 20.8797 83.3234 20.9737C83.435 21.0648 83.5673 21.1238 83.7203 21.1508ZM86.6712 22.0993L87.3889 18.0287L88.8259 18.2821C89.0955 18.3296 89.3232 18.4224 89.5092 18.5603C89.6952 18.6983 89.828 18.8719 89.9075 19.0813C89.9907 19.2912 90.0098 19.5237 89.9648 19.7787C89.9199 20.0337 89.8224 20.2456 89.6724 20.4144C89.5268 20.5803 89.3426 20.6981 89.12 20.7677C88.9017 20.8344 88.6559 20.8436 88.3827 20.7955L87.4812 20.6365L87.2066 22.1937L86.6712 22.0993ZM87.5679 20.1448L88.4858 20.3066C88.6498 20.3355 88.7973 20.3296 88.9284 20.2889C89.0595 20.2481 89.1681 20.1753 89.2543 20.0703C89.3404 19.9653 89.3969 19.8363 89.4239 19.6833C89.4515 19.5267 89.4425 19.3861 89.3968 19.2616C89.3518 19.1335 89.2747 19.0279 89.1654 18.9448C89.0561 18.8617 88.9195 18.8057 88.7556 18.7767L87.8377 18.6149L87.5679 20.1448ZM91.3694 22.9953C91.0853 22.9452 90.844 22.8332 90.6456 22.6592C90.4472 22.4853 90.3048 22.2705 90.2184 22.0149C90.1326 21.7556 90.1155 21.4803 90.1668 21.1889C90.2189 20.8939 90.327 20.6425 90.4913 20.4349C90.6593 20.2279 90.8623 20.0778 91.1003 19.9845C91.3426 19.8883 91.5986 19.8639 91.8681 19.9115C92.0867 19.95 92.2727 20.0241 92.4261 20.1338C92.5838 20.2405 92.709 20.3715 92.8018 20.5268C92.8989 20.6791 92.9633 20.8464 92.9951 21.0285C93.0311 21.2076 93.033 21.3882 93.0009 21.5703C92.9939 21.6104 92.9822 21.6553 92.9659 21.705C92.9539 21.7517 92.9404 21.7963 92.9254 21.8387L90.5104 21.4129L90.5875 20.9758L92.7075 21.3496L92.4324 21.5039C92.4986 21.3203 92.5102 21.1477 92.4673 20.9861C92.4245 20.8246 92.3433 20.6882 92.224 20.577C92.1046 20.4658 91.9593 20.3952 91.7881 20.365C91.6169 20.3348 91.4526 20.3509 91.2951 20.4132C91.1377 20.4756 91.0044 20.5817 90.8954 20.7315C90.7906 20.8783 90.7259 21.064 90.7013 21.2888C90.6489 21.5011 90.6483 21.6963 90.6995 21.8744C90.755 22.0494 90.8494 22.1956 90.9827 22.313C91.1203 22.4274 91.2783 22.5004 91.4568 22.5318C91.6535 22.5665 91.8272 22.5502 91.9781 22.4829C92.1289 22.4156 92.2587 22.3183 92.3675 22.191L92.7552 22.4847C92.6731 22.6092 92.5602 22.717 92.4165 22.8081C92.277 22.8962 92.1177 22.9582 91.9386 22.9942C91.7631 23.0309 91.5734 23.0313 91.3694 22.9953ZM94.7693 23.5948C94.4852 23.5447 94.2399 23.4338 94.0336 23.2622C93.8279 23.087 93.6782 22.8709 93.5845 22.6141C93.4908 22.3572 93.47 22.0812 93.5221 21.7862C93.5741 21.4911 93.6859 21.2404 93.8575 21.0341C94.0327 20.8283 94.247 20.6783 94.5002 20.584C94.7534 20.4897 95.0239 20.4679 95.3117 20.5187C95.5958 20.5688 95.8407 20.6814 96.0465 20.8567C96.2528 21.0283 96.4013 21.2404 96.492 21.493C96.5863 21.7462 96.6071 22.0222 96.5545 22.3209C96.5018 22.6195 96.3857 22.8732 96.2062 23.082C96.0273 23.287 95.8112 23.4367 95.558 23.531C95.309 23.6223 95.0461 23.6436 94.7693 23.5948ZM94.856 23.103C95.0381 23.1352 95.2101 23.1185 95.3718 23.0532C95.5372 22.9884 95.676 22.8833 95.788 22.7378C95.9037 22.593 95.9789 22.4222 96.0135 22.2255C96.0489 22.0251 96.0363 21.8408 95.9759 21.6724C95.9197 21.501 95.825 21.3566 95.6917 21.2392C95.5627 21.1188 95.4071 21.0425 95.225 21.0104C95.0392 20.9777 94.8633 20.9955 94.6973 21.0638C94.5355 21.1292 94.3971 21.2325 94.2821 21.3737C94.1677 21.5113 94.0928 21.6802 94.0575 21.8806C94.0228 22.0773 94.0351 22.2635 94.0942 22.4391C94.1534 22.6148 94.2478 22.7611 94.3774 22.8778C94.5107 22.9952 94.6702 23.0703 94.856 23.103ZM96.7644 25.0057L97.4764 20.968L97.9736 21.0556L97.8618 21.6894L97.8184 21.5522C97.9585 21.3966 98.1322 21.2845 98.3396 21.216C98.5477 21.1437 98.7737 21.1291 99.0178 21.1721C99.2946 21.221 99.5304 21.332 99.7252 21.5053C99.9236 21.6793 100.066 21.8941 100.152 22.1497C100.239 22.4016 100.257 22.6751 100.205 22.9702C100.154 23.2579 100.045 23.5071 99.8759 23.7178C99.7073 23.9284 99.5 24.0815 99.2541 24.1771C99.0118 24.2734 98.7504 24.2967 98.4699 24.2473C98.2331 24.2055 98.0257 24.1145 97.8477 23.9742C97.6732 23.8345 97.5502 23.6588 97.4786 23.4472L97.576 23.3742L97.2725 25.0953L96.7644 25.0057ZM98.5184 23.7488C98.7041 23.7816 98.8779 23.7653 99.0397 23.6999C99.2014 23.6345 99.3362 23.5306 99.4439 23.3881C99.556 23.2426 99.6293 23.0715 99.664 22.8748C99.7 22.6708 99.6896 22.4849 99.6328 22.3172C99.5802 22.1464 99.4892 22.0027 99.3595 21.8859C99.2305 21.7655 99.0731 21.6889 98.8874 21.6562C98.7016 21.6234 98.526 21.6394 98.3606 21.7041C98.1988 21.7695 98.0601 21.8746 97.9444 22.0195C97.833 22.1613 97.7597 22.3324 97.7244 22.5328C97.6897 22.7295 97.7001 22.9153 97.7556 23.0904C97.8154 23.2624 97.9101 23.4068 98.0398 23.5236C98.1731 23.641 98.3326 23.7161 98.5184 23.7488ZM100.612 24.5574L101.341 20.4213L101.849 20.5109L101.12 24.647L100.612 24.5574ZM103.252 25.0905C102.968 25.0404 102.727 24.9284 102.528 24.7544C102.33 24.5805 102.187 24.3657 102.101 24.1101C102.015 23.8509 101.998 23.5756 102.05 23.2841C102.102 22.9891 102.21 22.7378 102.374 22.5301C102.542 22.3231 102.745 22.173 102.983 22.0798C103.225 21.9835 103.481 21.9592 103.751 22.0067C103.969 22.0452 104.155 22.1193 104.309 22.229C104.466 22.3357 104.592 22.4667 104.685 22.622C104.782 22.7744 104.846 22.9416 104.878 23.1237C104.914 23.3028 104.916 23.4834 104.884 23.6656C104.877 23.7056 104.865 23.7505 104.849 23.8002C104.837 23.8469 104.823 23.8915 104.808 23.9339L102.393 23.5081L102.47 23.071L104.59 23.4448L104.315 23.5991C104.381 23.4155 104.393 23.2429 104.35 23.0814C104.307 22.9198 104.226 22.7834 104.107 22.6723C103.987 22.5611 103.842 22.4904 103.671 22.4602C103.5 22.43 103.335 22.4461 103.178 22.5085C103.02 22.5708 102.887 22.6769 102.778 22.8267C102.673 22.9735 102.609 23.1593 102.584 23.384C102.532 23.5964 102.531 23.7916 102.582 23.9696C102.638 24.1446 102.732 24.2909 102.865 24.4083C103.003 24.5227 103.161 24.5956 103.339 24.6271C103.536 24.6617 103.71 24.6454 103.861 24.5781C104.012 24.5108 104.141 24.4135 104.25 24.2863L104.638 24.58C104.556 24.7045 104.443 24.8122 104.299 24.9033C104.16 24.9914 104 25.0535 103.821 25.0895C103.646 25.1261 103.456 25.1265 103.252 25.0905Z" fill="#90A3BF"/>
<defs>
<clipPath id="clip0_20_7716">
<rect width="9.51098" height="9.51098" fill="white" transform="translate(31.7023 5.29877) rotate(10)"/>
</clipPath>
</defs>
</svg>
