<svg width="274" height="184" viewBox="0 0 274 184" fill="none" xmlns="http://www.w3.org/2000/svg">
<g clip-path="url(#clip0_20_6338)">
<rect x="24.6566" width="252.43" height="141.992" rx="3.94421" transform="rotate(10 24.6566 0)" fill="#3563E9"/>
<path d="M2.55564 116.255L-3.04565 91.2368L6.66507 92.9491L16.3758 94.6613L21.9771 119.679L8.15694 141.273L-1.55379 139.561L-11.2645 137.848L2.55564 116.255Z" fill="white" fill-opacity="0.06"/>
<path d="M37.9028 122.487L32.3015 97.4695L42.0122 99.1817L51.723 100.894L57.3243 125.912L43.5041 147.506L33.7934 145.793L24.0826 144.081L37.9028 122.487Z" fill="white" fill-opacity="0.06"/>
<path d="M73.2499 128.72L67.6486 103.702L77.3593 105.414L87.07 107.127L92.6713 132.145L78.8512 153.738L69.1404 152.026L59.4297 150.314L73.2499 128.72Z" fill="white" fill-opacity="0.06"/>
<path d="M108.597 134.953L102.996 109.935L112.706 111.647L122.417 113.359L128.018 138.377L114.198 159.971L104.487 158.258L94.7767 156.546L108.597 134.953Z" fill="white" fill-opacity="0.06"/>
<path d="M143.944 141.185L138.343 116.167L148.053 117.88L157.764 119.592L163.365 144.61L149.545 166.203L139.835 164.491L130.124 162.779L143.944 141.185Z" fill="white" fill-opacity="0.06"/>
<path d="M179.291 147.418L173.69 122.4L183.4 124.112L193.111 125.825L198.712 150.843L184.892 172.436L175.182 170.724L165.471 169.012L179.291 147.418Z" fill="white" fill-opacity="0.06"/>
<path d="M214.638 153.651L209.037 128.633L218.747 130.345L228.458 132.057L234.059 157.075L220.239 178.669L210.529 176.956L200.818 175.244L214.638 153.651Z" fill="white" fill-opacity="0.06"/>
<path d="M249.985 159.883L244.384 134.865L254.094 136.577L263.805 138.29L269.406 163.308L255.586 184.901L245.876 183.189L236.165 181.477L249.985 159.883Z" fill="white" fill-opacity="0.06"/>
<path d="M28.2539 72.7254L22.6526 47.7074L32.3633 49.4197L42.074 51.1319L47.6753 76.1499L33.8552 97.7434L24.1445 96.0312L14.4337 94.3189L28.2539 72.7254Z" fill="white" fill-opacity="0.06"/>
<path d="M63.6009 78.9581L57.9996 53.9401L67.7104 55.6523L77.4211 57.3646L83.0224 82.3826L69.2022 103.976L59.4915 102.264L49.7808 100.552L63.6009 78.9581Z" fill="white" fill-opacity="0.06"/>
<path d="M98.948 85.1906L93.3467 60.1726L103.057 61.8849L112.768 63.5971L118.369 88.6151L104.549 110.209L94.8385 108.496L85.1278 106.784L98.948 85.1906Z" fill="white" fill-opacity="0.06"/>
<path d="M134.295 91.4233L128.694 66.4053L138.404 68.1175L148.115 69.8298L153.716 94.8478L139.896 116.441L130.186 114.729L120.475 113.017L134.295 91.4233Z" fill="white" fill-opacity="0.06"/>
<path d="M169.642 97.656L164.041 72.6379L173.752 74.3502L183.462 76.0625L189.064 101.08L175.243 122.674L165.533 120.962L155.822 119.249L169.642 97.656Z" fill="white" fill-opacity="0.06"/>
<path d="M204.989 103.889L199.388 78.8706L209.099 80.5829L218.809 82.2951L224.411 107.313L210.59 128.907L200.88 127.194L191.169 125.482L204.989 103.889Z" fill="white" fill-opacity="0.06"/>
<path d="M240.336 110.121L234.735 85.1031L244.446 86.8154L254.156 88.5277L259.758 113.546L245.937 135.139L236.227 133.427L226.516 131.715L240.336 110.121Z" fill="white" fill-opacity="0.06"/>
<path d="M275.683 116.354L270.082 91.3359L279.793 93.0482L289.503 94.7605L295.105 119.778L281.285 141.372L271.574 139.66L261.863 137.947L275.683 116.354Z" fill="white" fill-opacity="0.06"/>
<path d="M18.605 22.9633L13.0037 -2.05469L22.7144 -0.342424L32.4251 1.36984L38.0264 26.3879L24.2063 47.9813L14.4955 46.2691L4.7848 44.5568L18.605 22.9633Z" fill="white" fill-opacity="0.06"/>
<path d="M53.9521 29.196L48.3508 4.17798L58.0616 5.89024L67.7723 7.60251L73.3736 32.6205L59.5534 54.214L49.8427 52.5017L40.132 50.7895L53.9521 29.196Z" fill="white" fill-opacity="0.06"/>
<path d="M89.2991 35.4287L83.6978 10.4106L93.4085 12.1229L103.119 13.8352L108.721 38.8532L94.9003 60.4467L85.1896 58.7344L75.4789 57.0221L89.2991 35.4287Z" fill="white" fill-opacity="0.06"/>
<path d="M124.646 41.6612L119.045 16.6432L128.756 18.3555L138.466 20.0677L144.068 45.0857L130.248 66.6792L120.537 64.9669L110.826 63.2547L124.646 41.6612Z" fill="white" fill-opacity="0.06"/>
<path d="M159.993 47.894L154.392 22.876L164.103 24.5882L173.813 26.3005L179.415 51.3185L165.594 72.912L155.884 71.1997L146.173 69.4875L159.993 47.894Z" fill="white" fill-opacity="0.06"/>
<path d="M195.34 54.1265L189.739 29.1085L199.45 30.8208L209.16 32.533L214.762 57.5511L200.942 79.1445L191.231 77.4323L181.52 75.72L195.34 54.1265Z" fill="white" fill-opacity="0.06"/>
<path d="M230.687 60.3592L225.086 35.3412L234.797 37.0535L244.508 38.7657L250.109 63.7837L236.289 85.3772L226.578 83.6649L216.867 81.9527L230.687 60.3592Z" fill="white" fill-opacity="0.06"/>
<path d="M266.034 66.5919L260.433 41.5739L270.144 43.2861L279.855 44.9984L285.456 70.0164L271.636 91.6099L261.925 89.8976L252.214 88.1853L266.034 66.5919Z" fill="white" fill-opacity="0.06"/>
<path d="M32.8613 25.9713L34.4941 16.7111L40.5971 17.7872L40.367 19.0924L35.7307 18.2749L35.2617 20.9348L39.6494 21.7085L39.4192 23.0136L35.0315 22.2399L34.5581 24.9248L39.1944 25.7423L38.9643 27.0474L32.8613 25.9713ZM42.0527 27.7457C41.5969 27.6654 41.2089 27.5158 40.8887 27.297C40.5781 27.0714 40.3524 26.8009 40.2115 26.4855C40.0721 26.1619 40.0367 25.8053 40.1053 25.4159C40.1696 25.0513 40.3061 24.7378 40.5147 24.4756C40.7315 24.2148 41.0274 24.0149 41.4022 23.8759C41.777 23.7369 42.2286 23.6713 42.757 23.679L45.1617 23.7058L44.9666 24.812L42.8397 24.8086C42.4551 24.8092 42.1605 24.8811 41.9558 25.0244C41.7526 25.1595 41.6276 25.3596 41.5808 25.6248C41.5355 25.8817 41.5936 26.1098 41.7549 26.3091C41.926 26.5016 42.1649 26.6249 42.4715 26.679C42.8527 26.7462 43.1987 26.7217 43.5097 26.6057C43.829 26.4911 44.0914 26.311 44.2971 26.0653C44.5042 25.8113 44.6377 25.5144 44.6976 25.1747L45.0023 23.447C45.0607 23.1155 44.9839 22.8243 44.7718 22.5733C44.5695 22.3154 44.2653 22.1507 43.8593 22.0791C43.4864 22.0134 43.1416 22.0551 42.8247 22.2043C42.5177 22.3467 42.2708 22.5595 42.0842 22.8427L41.0188 22.0525C41.2015 21.7429 41.4557 21.4887 41.7813 21.2898C42.1083 21.0826 42.4707 20.9414 42.8684 20.8663C43.2744 20.7927 43.6888 20.7931 44.1114 20.8676C44.6417 20.9611 45.0924 21.1431 45.4633 21.4136C45.8426 21.6855 46.1127 22.0194 46.2736 22.4151C46.4442 22.8041 46.4886 23.2306 46.4068 23.6946L45.609 28.219L44.2666 27.9823L44.4814 26.7642L44.7607 26.8519C44.5551 27.0976 44.3104 27.298 44.0267 27.453C43.7514 27.6095 43.4467 27.7139 43.1129 27.7661C42.7873 27.8197 42.4339 27.813 42.0527 27.7457ZM49.5867 29.0742C48.8989 28.9529 48.3239 28.6764 47.8618 28.2446C47.4079 27.8142 47.1278 27.2949 47.0215 26.6866L48.1927 26.3677C48.3078 26.781 48.5031 27.1273 48.7785 27.4066C49.0622 27.6873 49.3988 27.862 49.7883 27.9307C50.1198 27.9891 50.4022 27.962 50.6357 27.8494C50.8692 27.7368 51.0085 27.552 51.0538 27.2951C51.083 27.1294 51.0609 26.9888 50.9872 26.8733C50.9151 26.7495 50.8144 26.642 50.6852 26.5509C50.5643 26.4612 50.4364 26.3874 50.3013 26.3294L49.2974 25.8448C48.7466 25.5768 48.3554 25.2515 48.1238 24.8689C47.902 24.4794 47.8305 24.061 47.9094 23.6135C47.981 23.2075 48.1467 22.8736 48.4064 22.6118C48.6677 22.3417 48.9952 22.156 49.389 22.0545C49.7828 21.9531 50.2076 21.9425 50.6634 22.0229C51.2766 22.131 51.7965 22.3808 52.223 22.7721C52.651 23.1552 52.917 23.6335 53.0209 24.2072L51.8497 24.5262C51.7741 24.1796 51.608 23.8855 51.3516 23.6437C51.1035 23.4035 50.8013 23.2519 50.4449 23.1891C50.1383 23.135 49.8807 23.1665 49.6721 23.2835C49.465 23.3923 49.341 23.5626 49.3001 23.7946C49.2723 23.9521 49.2904 24.092 49.3542 24.2143C49.4196 24.3284 49.5127 24.4302 49.6336 24.5199C49.7559 24.6013 49.8839 24.6751 50.0174 24.7414L51.0543 25.2574C51.5817 25.5128 51.9646 25.8366 52.203 26.229C52.4429 26.613 52.5219 27.0371 52.4401 27.5011C52.37 27.8989 52.2001 28.232 51.9306 28.5007C51.6709 28.7624 51.3392 28.9475 50.9356 29.0557C50.5335 29.1557 50.0839 29.1619 49.5867 29.0742ZM53.3541 32.4171C53.1884 32.3879 53.0256 32.3421 52.8657 32.2797C52.7127 32.2271 52.5749 32.1601 52.4526 32.0787L52.6652 30.873C52.7602 30.9154 52.8767 30.9573 53.0147 30.9987C53.1512 31.0484 53.2857 31.0849 53.4183 31.1083C53.8078 31.177 54.109 31.1404 54.322 30.9985C54.5418 30.8664 54.7577 30.6353 54.9697 30.3053L55.5969 29.365L55.3638 30.5414L53.7439 22.7199L55.2479 22.9851L56.4098 28.97L55.9002 28.8802L59.0266 23.6514L60.543 23.9187L56.2573 30.8528C56.0297 31.2228 55.7695 31.5357 55.4766 31.7917C55.1905 32.0573 54.8712 32.2446 54.5188 32.3533C54.1733 32.4718 53.785 32.4931 53.3541 32.4171ZM63.871 31.4391L62.7448 24.307L64.2364 24.57L65.0568 30.2384L64.5347 30.1464L67.2817 25.1069L68.5619 25.3327L69.4072 31.0055L68.8851 30.9135L71.6072 25.8697L73.0988 26.1327L69.5887 32.4473L68.3209 32.2237L67.4727 26.4222L67.9326 26.5033L65.1513 31.6649L63.871 31.4391ZM74.4962 33.4664C74.0405 33.3861 73.6525 33.2365 73.3322 33.0177C73.0217 32.792 72.796 32.5215 72.6551 32.2062C72.5156 31.8826 72.4802 31.526 72.5489 31.1365C72.6132 30.7719 72.7496 30.4585 72.9582 30.1962C73.1751 29.9354 73.4709 29.7355 73.8457 29.5966C74.2205 29.4576 74.6721 29.392 75.2005 29.3997L77.6052 29.4264L77.4102 30.5327L75.2833 30.5293C74.8987 30.5299 74.6041 30.6018 74.3994 30.7451C74.1961 30.8802 74.0711 31.0803 74.0244 31.3454C73.9791 31.6023 74.0371 31.8304 74.1985 32.0298C74.3696 32.2223 74.6084 32.3456 74.915 32.3996C75.2962 32.4668 75.6423 32.4424 75.9533 32.3264C76.2725 32.2118 76.535 32.0316 76.7406 31.7859C76.9477 31.532 77.0813 31.2351 77.1412 30.8954L77.4458 29.1676C77.5043 28.8362 77.4274 28.5449 77.2154 28.2939C77.0131 28.0361 76.7089 27.8714 76.3028 27.7998C75.9299 27.7341 75.5851 27.7758 75.2683 27.925C74.9612 28.0674 74.7144 28.2802 74.5277 28.5634L73.4623 27.7732C73.6451 27.4636 73.8992 27.2094 74.2248 27.0105C74.5519 26.8033 74.9142 26.6621 75.312 26.587C75.718 26.5133 76.1323 26.5138 76.5549 26.5883C77.0853 26.6818 77.5359 26.8638 77.9069 27.1343C78.2861 27.4062 78.5562 27.74 78.7171 28.1358C78.8878 28.5247 78.9322 28.9512 78.8504 29.4153L78.0526 33.9397L76.7102 33.703L76.925 32.4849L77.2043 32.5726C76.9986 32.8183 76.754 33.0186 76.4703 33.1737C76.1949 33.3302 75.8903 33.4345 75.5564 33.4867C75.2308 33.5404 74.8774 33.5336 74.4962 33.4664ZM79.6828 37.0595C79.5171 37.0303 79.3543 36.9845 79.1944 36.9222C79.0413 36.8695 78.9036 36.8025 78.7813 36.7211L78.9939 35.5155C79.0889 35.5579 79.2054 35.5998 79.3434 35.6412C79.4799 35.6909 79.6144 35.7274 79.747 35.7508C80.1365 35.8195 80.4377 35.7829 80.6507 35.641C80.8705 35.5089 81.0864 35.2778 81.2984 34.9478L81.9256 34.0074L81.6925 35.1839L80.0726 27.3623L81.5766 27.6275L82.7385 33.6125L82.2289 33.5226L85.3553 28.2938L86.8717 28.5612L82.586 35.4952C82.3584 35.8652 82.0982 36.1782 81.8053 36.4341C81.5192 36.6998 81.1999 36.887 80.8475 36.9958C80.502 37.1143 80.1137 37.1355 79.6828 37.0595ZM91.4669 36.3819C90.7625 36.2577 90.2507 35.9624 89.9313 35.496C89.612 35.0295 89.5159 34.4359 89.643 33.7149L90.2172 30.4584L89.0364 30.2501L89.26 28.9823L89.4464 29.0152C89.7613 29.0707 90.0218 29.0227 90.228 28.871C90.4341 28.7194 90.565 28.4862 90.6205 28.1713L90.7126 27.6492L92.1171 27.8969L91.8453 29.4382L93.3742 29.7078L93.1507 30.9756L91.6218 30.706L91.0585 33.9005C91.0176 34.1325 91.0198 34.3379 91.0652 34.5168C91.112 34.6874 91.2102 34.8329 91.3599 34.9533C91.511 35.0654 91.7192 35.1448 91.9843 35.1915C92.0506 35.2032 92.1259 35.2122 92.2103 35.2185C92.2946 35.2249 92.3748 35.2305 92.4508 35.2353L92.2382 36.441C92.1193 36.4371 91.9879 36.4311 91.8441 36.4228C91.7003 36.4145 91.5746 36.4009 91.4669 36.3819ZM96.5811 37.3606C95.9347 37.2466 95.3693 36.9888 94.8847 36.5873C94.4084 36.1871 94.0596 35.6942 93.8382 35.1083C93.6169 34.5224 93.5653 33.8939 93.6837 33.2227C93.8035 32.5432 94.0669 31.9702 94.4738 31.5037C94.8822 31.0289 95.3779 30.6891 95.9608 30.4843C96.5452 30.2712 97.1647 30.2223 97.8194 30.3378C98.4823 30.4547 99.0477 30.7124 99.5157 31.1111C99.9935 31.5029 100.339 31.991 100.552 32.5754C100.775 33.153 100.826 33.7815 100.706 34.461C100.587 35.1405 100.323 35.7177 99.9142 36.1925C99.5058 36.6673 99.0094 37.0112 98.425 37.2243C97.8421 37.4291 97.2274 37.4745 96.5811 37.3606ZM96.8112 36.0555C97.2089 36.1256 97.5779 36.0924 97.9181 35.9559C98.2583 35.8193 98.5447 35.6007 98.7771 35.2999C99.0193 34.9923 99.1777 34.6272 99.2522 34.2046C99.3267 33.782 99.3021 33.3889 99.1782 33.0253C99.0626 32.6631 98.8684 32.3597 98.5954 32.1151C98.3224 31.8704 97.987 31.713 97.5892 31.6429C97.1998 31.5742 96.8308 31.6074 96.4823 31.7425C96.1421 31.879 95.8516 32.0969 95.6109 32.3962C95.3784 32.697 95.2249 33.0587 95.1504 33.4813C95.0759 33.9039 95.0957 34.3005 95.2098 34.6709C95.3337 35.0345 95.5321 35.3386 95.8051 35.5833C96.0864 35.8294 96.4217 35.9868 96.8112 36.0555ZM103.408 38.4105L104.594 31.6861L105.936 31.9228L105.697 33.2776L105.608 33.0568C105.835 32.6439 106.13 32.3714 106.495 32.2393C106.862 32.0988 107.277 32.0695 107.741 32.1514L108.152 32.2237L107.926 33.504L107.342 33.4009C106.878 33.3191 106.475 33.3976 106.134 33.6365C105.802 33.8686 105.59 34.2498 105.496 34.7801L104.813 38.6582L103.408 38.4105ZM110.918 39.8885C110.247 39.7702 109.677 39.5117 109.209 39.113C108.751 38.7076 108.423 38.2141 108.227 37.6326C108.032 37.0428 107.993 36.4165 108.11 35.7536C108.23 35.0741 108.48 34.4989 108.863 34.028C109.253 33.5585 109.723 33.2185 110.273 33.0078C110.824 32.7889 111.415 32.735 112.044 32.846C112.55 32.9351 112.986 33.1018 113.353 33.3459C113.72 33.5901 114.013 33.8896 114.233 34.2444C114.454 34.5909 114.6 34.9713 114.672 35.3856C114.753 35.8014 114.754 36.2289 114.677 36.6681C114.658 36.7758 114.634 36.8869 114.605 37.0015C114.577 37.116 114.541 37.2208 114.499 37.3159L109.141 36.3713L109.339 35.2526L113.9 36.0569L113.139 36.4482C113.294 36.0568 113.328 35.6912 113.243 35.3515C113.167 35.0049 113.005 34.7157 112.755 34.4837C112.515 34.2449 112.209 34.0926 111.836 34.0268C111.463 33.9611 111.115 33.9979 110.791 34.1374C110.469 34.2686 110.199 34.4943 109.98 34.8145C109.763 35.1265 109.627 35.5299 109.574 36.0246C109.452 36.4731 109.444 36.8818 109.55 37.2508C109.664 37.6212 109.858 37.9287 110.131 38.1734C110.412 38.4195 110.752 38.5776 111.149 38.6478C111.556 38.7194 111.915 38.6888 112.229 38.5562C112.552 38.4251 112.821 38.2291 113.038 37.9683L114.083 38.7292C113.895 39.0207 113.637 39.2701 113.31 39.4773C112.993 39.6777 112.626 39.8181 112.211 39.8986C111.805 39.9723 111.374 39.9689 110.918 39.8885ZM115.286 40.5049L116.471 33.7804L117.814 34.0171L117.581 35.3347L117.451 35.1322C117.691 34.7388 118.012 34.4665 118.415 34.3153C118.819 34.1559 119.261 34.1185 119.742 34.2033C120.239 34.291 120.659 34.4761 121.002 34.7588C121.346 35.0414 121.591 35.3924 121.74 35.8115C121.888 36.2307 121.918 36.6889 121.83 37.1861L121.065 41.524L119.673 41.2786L120.373 37.3135C120.432 36.9737 120.421 36.6769 120.337 36.423C120.255 36.1607 120.109 35.947 119.899 35.7818C119.699 35.6098 119.454 35.4982 119.164 35.447C118.874 35.3959 118.601 35.4162 118.346 35.5078C118.1 35.5927 117.894 35.7443 117.727 35.9627C117.56 36.1811 117.448 36.456 117.389 36.7875L116.69 40.7526L115.286 40.5049ZM125.34 42.3546C124.635 42.2304 124.124 41.9351 123.804 41.4687C123.485 41.0023 123.389 40.4086 123.516 39.6877L124.09 36.4311L122.909 36.2229L123.133 34.955L123.319 34.9879C123.634 35.0434 123.895 34.9954 124.101 34.8438C124.307 34.6921 124.438 34.4589 124.493 34.144L124.586 33.622L125.99 33.8696L125.718 35.4109L127.247 35.6805L127.024 36.9483L125.495 36.6787L124.931 39.8732C124.891 40.1052 124.893 40.3106 124.938 40.4895C124.985 40.6601 125.083 40.8056 125.233 40.926C125.384 41.0381 125.592 41.1175 125.857 41.1642C125.924 41.1759 125.999 41.1849 126.083 41.1913C126.168 41.1976 126.248 41.2032 126.324 41.2081L126.111 42.4137C125.992 42.4099 125.861 42.4038 125.717 42.3955C125.573 42.3872 125.448 42.3736 125.34 42.3546ZM131.393 43.4989C130.938 43.4186 130.55 43.269 130.229 43.0502C129.919 42.8245 129.693 42.554 129.552 42.2387C129.413 41.9151 129.377 41.5585 129.446 41.169C129.51 40.8044 129.647 40.491 129.855 40.2287C130.072 39.9679 130.368 39.768 130.743 39.6291C131.118 39.4901 131.569 39.4245 132.098 39.4322L134.502 39.4589L134.307 40.5652L132.18 40.5618C131.796 40.5623 131.501 40.6343 131.296 40.7776C131.093 40.9127 130.968 41.1128 130.921 41.3779C130.876 41.6348 130.934 41.8629 131.096 42.0623C131.267 42.2548 131.506 42.3781 131.812 42.4321C132.193 42.4993 132.539 42.4749 132.85 42.3589C133.17 42.2443 133.432 42.0641 133.638 41.8184C133.845 41.5645 133.978 41.2676 134.038 40.9279L134.343 39.2001C134.401 38.8687 134.325 38.5774 134.112 38.3264C133.91 38.0686 133.606 37.9039 133.2 37.8323C132.827 37.7666 132.482 37.8083 132.165 37.9575C131.858 38.0998 131.611 38.3126 131.425 38.5959L130.359 37.8057C130.542 37.4961 130.796 37.2419 131.122 37.043C131.449 36.8358 131.811 36.6946 132.209 36.6195C132.615 36.5458 133.029 36.5463 133.452 36.6208C133.982 36.7143 134.433 36.8963 134.804 37.1667C135.183 37.4387 135.453 37.7725 135.614 38.1683C135.785 38.5572 135.829 38.9837 135.747 39.4478L134.95 43.9722L133.607 43.7355L133.822 42.5174L134.101 42.6051C133.896 42.8508 133.651 43.0511 133.367 43.2062C133.092 43.3627 132.787 43.467 132.454 43.5192C132.128 43.5729 131.775 43.5661 131.393 43.4989ZM33.288 41.4317C32.6168 41.3133 32.0472 41.0548 31.5792 40.6562C31.1209 40.2507 30.7853 39.7558 30.5722 39.1714C30.3674 38.5884 30.3242 37.9614 30.4425 37.2902C30.5594 36.6272 30.8138 36.0569 31.2056 35.5792C31.5974 35.1014 32.0807 34.7595 32.6553 34.5532C33.2314 34.3386 33.8551 34.2905 34.5263 34.4089C34.982 34.4893 35.3942 34.6474 35.7627 34.8832C36.1327 35.1108 36.4379 35.391 36.6782 35.7239C36.9269 36.0583 37.0887 36.4243 37.1639 36.822L35.8325 37.1768C35.753 36.8039 35.5741 36.4862 35.2957 36.2235C35.0271 35.954 34.6939 35.7841 34.2962 35.714C33.915 35.6468 33.5543 35.6815 33.2141 35.818C32.8836 35.9477 32.6014 36.1671 32.3675 36.4761C32.135 36.7769 31.9816 37.1386 31.907 37.5612C31.8325 37.9838 31.8523 38.3803 31.9664 38.7508C32.082 39.1129 32.2721 39.4156 32.5368 39.6588C32.8098 39.9034 33.1369 40.0594 33.5181 40.1266C33.9241 40.1982 34.2946 40.1567 34.6294 40.0021C34.974 39.8407 35.2523 39.595 35.4643 39.265L36.5918 40.0662C36.3964 40.3991 36.124 40.6843 35.7745 40.9217C35.4348 41.1523 35.0515 41.3154 34.6245 41.411C34.1975 41.5066 33.752 41.5135 33.288 41.4317ZM39.4601 42.52C39.0044 42.4396 38.6163 42.2901 38.2961 42.0712C37.9855 41.8456 37.7598 41.5751 37.6189 41.2598C37.4795 40.9361 37.4441 40.5796 37.5128 40.1901C37.577 39.8255 37.7135 39.5121 37.9221 39.2498C38.1389 38.989 38.4348 38.7891 38.8096 38.6502C39.1844 38.5112 39.636 38.4456 40.1644 38.4533L42.5691 38.48L42.374 39.5863L40.2471 39.5829C39.8626 39.5834 39.5679 39.6554 39.3632 39.7987C39.16 39.9338 39.035 40.1339 38.9882 40.399C38.9429 40.6559 39.001 40.884 39.1623 41.0834C39.3335 41.2759 39.5723 41.3991 39.8789 41.4532C40.2601 41.5204 40.6062 41.496 40.9171 41.38C41.2364 41.2654 41.4988 41.0852 41.7045 40.8395C41.9116 40.5855 42.0451 40.2887 42.105 39.9489L42.4097 38.2212C42.4681 37.8897 42.3913 37.5985 42.1792 37.3475C41.9769 37.0897 41.6727 36.925 41.2667 36.8534C40.8938 36.7876 40.549 36.8294 40.2322 36.9786C39.9251 37.1209 39.6782 37.3337 39.4916 37.617L38.4262 36.8267C38.609 36.5172 38.8631 36.263 39.1887 36.0641C39.5157 35.8568 39.8781 35.7157 40.2758 35.6406C40.6819 35.5669 41.0962 35.5673 41.5188 35.6419C42.0491 35.7354 42.4998 35.9174 42.8707 36.1878C43.25 36.4598 43.5201 36.7936 43.681 37.1894C43.8516 37.5783 43.8961 38.0048 43.8142 38.4689L43.0165 42.9933L41.674 42.7566L41.8888 41.5385L42.1681 41.6262C41.9625 41.8719 41.7178 42.0722 41.4342 42.2273C41.1588 42.3838 40.8542 42.4881 40.5203 42.5403C40.1947 42.594 39.8413 42.5872 39.4601 42.52ZM44.5344 43.261L45.7201 36.5365L47.0626 36.7732L46.8237 38.128L46.7344 37.9072C46.961 37.4943 47.2569 37.2218 47.6219 37.0897C47.9885 36.9492 48.4037 36.9199 48.8678 37.0018L49.278 37.0741L49.0522 38.3544L48.468 38.2513C48.004 38.1695 47.6014 38.2481 47.2602 38.4869C46.9288 38.719 46.7163 39.1002 46.6228 39.6305L45.939 43.5086L44.5344 43.261ZM52.9493 44.8985C52.4935 44.8181 52.1055 44.6686 51.7852 44.4498C51.4747 44.2241 51.249 43.9536 51.1081 43.6383C50.9686 43.3146 50.9333 42.9581 51.0019 42.5686C51.0662 42.204 51.2027 41.8906 51.4112 41.6283C51.6281 41.3675 51.924 41.1676 52.2988 41.0287C52.6736 40.8897 53.1252 40.8241 53.6535 40.8318L56.0583 40.8585L55.8632 41.9648L53.7363 41.9614C53.3517 41.9619 53.0571 42.0339 52.8524 42.1772C52.6492 42.3123 52.5242 42.5124 52.4774 42.7775C52.4321 43.0344 52.4901 43.2625 52.6515 43.4619C52.8226 43.6544 53.0615 43.7777 53.3681 43.8317C53.7493 43.8989 54.0953 43.8745 54.4063 43.7585C54.7255 43.6439 54.988 43.4637 55.1937 43.218C55.4008 42.9641 55.5343 42.6672 55.5942 42.3274L55.8989 40.5997C55.9573 40.2683 55.8805 39.977 55.6684 39.726C55.4661 39.4682 55.1619 39.3035 54.7559 39.2319C54.383 39.1662 54.0381 39.2079 53.7213 39.3571C53.4143 39.4994 53.1674 39.7122 52.9808 39.9955L51.9154 39.2052C52.0981 38.8957 52.3523 38.6415 52.6779 38.4426C53.0049 38.2354 53.3673 38.0942 53.765 38.0191C54.171 37.9454 54.5853 37.9458 55.008 38.0204C55.5383 38.1139 55.9889 38.2959 56.3599 38.5663C56.7392 38.8383 57.0093 39.1721 57.1702 39.5679C57.3408 39.9568 57.3852 40.3833 57.3034 40.8474L56.5056 45.3718L55.1632 45.1351L55.378 43.917L55.6573 44.0047C55.4517 44.2504 55.207 44.4507 54.9233 44.6058C54.648 44.7623 54.3433 44.8666 54.0094 44.9188C53.6839 44.9725 53.3305 44.9657 52.9493 44.8985ZM60.7976 46.2055C60.0933 46.0813 59.5814 45.786 59.2621 45.3196C58.9428 44.8531 58.8467 44.2595 58.9738 43.5385L59.548 40.2819L58.3672 40.0737L58.5907 38.8059L58.7772 38.8388C59.0921 38.8943 59.3526 38.8463 59.5588 38.6946C59.7649 38.543 59.8958 38.3098 59.9513 37.9949L60.0433 37.4728L61.4479 37.7205L61.1761 39.2618L62.705 39.5314L62.4814 40.7992L60.9526 40.5296L60.3893 43.724C60.3484 43.9561 60.3506 44.1615 60.396 44.3404C60.4428 44.511 60.541 44.6565 60.6907 44.7769C60.8418 44.8889 61.05 44.9684 61.3151 45.0151C61.3814 45.0268 61.4567 45.0358 61.541 45.0421C61.6254 45.0485 61.7056 45.0541 61.7816 45.0589L61.569 46.2646C61.4501 46.2607 61.3187 46.2546 61.1749 46.2464C61.0311 46.2381 60.9054 46.2245 60.7976 46.2055ZM66.8512 47.3498C66.3954 47.2694 66.0074 47.1198 65.6871 46.901C65.3766 46.6754 65.1509 46.4049 65.01 46.0896C64.8705 45.7659 64.8351 45.4094 64.9038 45.0199C64.9681 44.6553 65.1045 44.3419 65.3131 44.0796C65.53 43.8188 65.8258 43.6189 66.2006 43.4799C66.5755 43.341 67.0271 43.2753 67.5554 43.2831L69.9602 43.3098L69.7651 44.416L67.6382 44.4127C67.2536 44.4132 66.959 44.4852 66.7543 44.6285C66.551 44.7635 66.426 44.9636 66.3793 45.2288C66.334 45.4857 66.392 45.7138 66.5534 45.9131C66.7245 46.1056 66.9634 46.2289 67.27 46.283C67.6511 46.3502 67.9972 46.3258 68.3082 46.2097C68.6274 46.0951 68.8899 45.915 69.0955 45.6693C69.3027 45.4153 69.4362 45.1185 69.4961 44.7787L69.8007 43.051C69.8592 42.7195 69.7824 42.4283 69.5703 42.1773C69.368 41.9195 69.0638 41.7548 68.6578 41.6832C68.2849 41.6174 67.94 41.6592 67.6232 41.8083C67.3162 41.9507 67.0693 42.1635 66.8827 42.4467L65.8173 41.6565C66 41.347 66.2542 41.0928 66.5797 40.8938C66.9068 40.6866 67.2692 40.5455 67.6669 40.4704C68.0729 40.3967 68.4872 40.3971 68.9098 40.4716C69.4402 40.5652 69.8908 40.7471 70.2618 41.0176C70.6411 41.2895 70.9111 41.6234 71.072 42.0192C71.2427 42.4081 71.2871 42.8346 71.2053 43.2987L70.4075 47.8231L69.0651 47.5864L69.2799 46.3683L69.5592 46.456C69.3535 46.7016 69.1089 46.902 68.8252 47.0571C68.5498 47.2136 68.2452 47.3179 67.9113 47.3701C67.5857 47.4238 67.2323 47.417 66.8512 47.3498ZM73.974 48.4519L75.6331 39.0426L77.0376 39.2903L75.3785 48.6996L73.974 48.4519ZM80.1143 49.6884C79.4679 49.5745 78.9025 49.3167 78.4179 48.9151C77.9416 48.515 77.5928 48.022 77.3714 47.4362C77.1501 46.8503 77.0986 46.2218 77.2169 45.5506C77.3367 44.8711 77.6001 44.2981 78.007 43.8315C78.4154 43.3567 78.9111 43.0169 79.494 42.8121C80.0784 42.599 80.698 42.5502 81.3526 42.6656C82.0155 42.7825 82.581 43.0403 83.0489 43.4389C83.5267 43.8308 83.8721 44.3189 84.0852 44.9033C84.308 45.4809 84.3595 46.1094 84.2397 46.7889C84.1199 47.4684 83.8558 48.0455 83.4474 48.5203C83.039 48.9951 82.5426 49.3391 81.9582 49.5522C81.3753 49.757 80.7606 49.8024 80.1143 49.6884ZM80.3444 48.3833C80.7422 48.4534 81.1111 48.4202 81.4513 48.2837C81.7915 48.1472 82.0779 47.9285 82.3103 47.6278C82.5526 47.3202 82.7109 46.9551 82.7854 46.5324C82.86 46.1098 82.8353 45.7167 82.7114 45.3531C82.5959 44.991 82.4016 44.6876 82.1286 44.4429C81.8556 44.1983 81.5202 44.0409 81.1225 43.9708C80.733 43.9021 80.364 43.9353 80.0155 44.0703C79.6753 44.2069 79.3848 44.4248 79.1441 44.7241C78.9116 45.0249 78.7581 45.3866 78.6836 45.8092C78.6091 46.2318 78.6289 46.6283 78.743 46.9987C78.8669 47.3624 79.0653 47.6665 79.3383 47.9111C79.6196 48.1572 79.9549 48.3146 80.3444 48.3833ZM86.3996 50.6429L85.2734 43.5108L86.765 43.7738L87.5854 49.4422L87.0633 49.3502L89.8103 44.3107L91.0905 44.5365L91.9358 50.2093L91.4137 50.1173L94.1358 45.0735L95.6274 45.3365L92.1173 51.6511L90.8495 51.4275L90.0013 45.626L90.4612 45.7071L87.6799 50.8687L86.3996 50.6429ZM96.8904 55.056L98.5145 45.8455L99.8569 46.0822L99.6114 47.4744L99.5068 47.1227C99.8226 46.7854 100.207 46.5455 100.659 46.4031C101.111 46.2607 101.603 46.2363 102.133 46.3298C102.771 46.4423 103.316 46.6964 103.767 47.0921C104.227 47.4893 104.555 47.9787 104.751 48.5601C104.956 49.1431 105 49.766 104.883 50.4289C104.766 51.0918 104.512 51.6622 104.12 52.1399C103.737 52.6191 103.264 52.9716 102.703 53.1973C102.144 53.4148 101.541 53.4665 100.895 53.3526C100.373 53.2605 99.9151 53.0688 99.5222 52.7774C99.1376 52.4874 98.8651 52.1189 98.7046 51.672L98.9744 51.4504L98.295 55.3036L96.8904 55.056ZM100.988 52.0233C101.386 52.0935 101.755 52.0603 102.095 51.9238C102.435 51.7872 102.722 51.5686 102.954 51.2678C103.196 50.9602 103.355 50.5951 103.429 50.1725C103.504 49.7499 103.479 49.3568 103.355 48.9932C103.24 48.631 103.045 48.3276 102.772 48.083C102.499 47.8383 102.164 47.6809 101.766 47.6108C101.377 47.5421 101.008 47.5753 100.659 47.7104C100.319 47.8469 100.028 48.0648 99.7877 48.3641C99.5553 48.6649 99.4018 49.0266 99.3273 49.4492C99.2528 49.8718 99.2726 50.2684 99.3867 50.6388C99.5105 51.0024 99.7089 51.3065 99.9819 51.5512C100.263 51.7973 100.599 51.9547 100.988 52.0233ZM105.531 54.0164L106.717 47.2919L108.06 47.5286L107.821 48.8834L107.731 48.6626C107.958 48.2497 108.254 47.9772 108.619 47.8451C108.985 47.7047 109.401 47.6754 109.865 47.7572L110.275 47.8295L110.049 49.1098L109.465 49.0068C109.001 48.9249 108.598 49.0035 108.257 49.2424C107.926 49.4744 107.713 49.8556 107.62 50.386L106.936 54.264L105.531 54.0164ZM109.91 54.7885L111.096 48.064L112.501 48.3117L111.315 55.0362L109.91 54.7885ZM111.258 47.1442L111.543 45.5284L112.948 45.776L112.663 47.3919L111.258 47.1442ZM116.001 56.0162C115.33 55.8979 114.76 55.6394 114.292 55.2407C113.834 54.8353 113.498 54.3403 113.285 53.7559C113.08 53.173 113.037 52.5459 113.156 51.8747C113.272 51.2118 113.527 50.6415 113.919 50.1637C114.31 49.686 114.794 49.344 115.368 49.1377C115.944 48.9232 116.568 48.8751 117.239 48.9934C117.695 49.0738 118.107 49.2319 118.476 49.4678C118.846 49.6954 119.151 49.9756 119.391 50.3085C119.64 50.6428 119.802 51.0088 119.877 51.4066L118.546 51.7614C118.466 51.3885 118.287 51.0707 118.009 50.808C117.74 50.5385 117.407 50.3687 117.009 50.2986C116.628 50.2313 116.267 50.266 115.927 50.4025C115.597 50.5322 115.315 50.7516 115.081 51.0607C114.848 51.3615 114.695 51.7231 114.62 52.1458C114.546 52.5684 114.565 52.9649 114.68 53.3353C114.795 53.6975 114.985 54.0001 115.25 54.2433C115.523 54.488 115.85 54.6439 116.231 54.7111C116.637 54.7827 117.008 54.7412 117.342 54.5867C117.687 54.4253 117.965 54.1796 118.177 53.8496L119.305 54.6507C119.109 54.9837 118.837 55.2689 118.488 55.5063C118.148 55.7369 117.765 55.9 117.338 55.9956C116.911 56.0912 116.465 56.0981 116.001 56.0162ZM123.377 57.3169C122.706 57.1985 122.137 56.94 121.669 56.5414C121.21 56.1359 120.883 55.6424 120.686 55.061C120.491 54.4712 120.452 53.8449 120.569 53.1819C120.689 52.5024 120.94 51.9272 121.322 51.4563C121.712 50.9869 122.183 50.6468 122.732 50.4362C123.284 50.2173 123.874 50.1633 124.504 50.2744C125.009 50.3635 125.446 50.5301 125.813 50.7743C126.18 51.0184 126.473 51.3179 126.692 51.6727C126.913 52.0193 127.06 52.3997 127.132 52.814C127.212 53.2298 127.214 53.6572 127.137 54.0964C127.118 54.2041 127.094 54.3153 127.065 54.4298C127.036 54.5444 127.001 54.6492 126.958 54.7442L121.601 53.7996L121.798 52.6809L126.36 53.4853L125.599 53.8766C125.753 53.4851 125.788 53.1196 125.703 52.7798C125.627 52.4333 125.464 52.144 125.215 51.912C124.975 51.6732 124.669 51.5209 124.296 51.4552C123.923 51.3894 123.574 51.4263 123.251 51.5657C122.929 51.6969 122.658 51.9226 122.439 52.2429C122.222 52.5549 122.087 52.9582 122.034 53.453C121.912 53.9014 121.904 54.3101 122.01 54.6791C122.124 55.0495 122.317 55.3571 122.59 55.6017C122.872 55.8479 123.211 56.006 123.609 56.0761C124.015 56.1477 124.375 56.1172 124.689 55.9846C125.011 55.8534 125.281 55.6574 125.497 55.3966L126.542 56.1576C126.354 56.4491 126.097 56.6985 125.77 56.9057C125.452 57.106 125.086 57.2465 124.67 57.3269C124.264 57.4006 123.833 57.3973 123.377 57.3169Z" fill="white"/>
<path d="M26.983 56.7286L27.7994 52.0985L29.4339 52.3867C29.7405 52.4408 29.9996 52.5463 30.2111 52.7032C30.4227 52.8601 30.5737 53.0576 30.6642 53.2957C30.7588 53.5345 30.7805 53.799 30.7293 54.089C30.6782 54.379 30.5673 54.6201 30.3968 54.8121C30.2311 55.0008 30.0216 55.1347 29.7684 55.214C29.5201 55.2898 29.2405 55.3003 28.9298 55.2455L27.9043 55.0647L27.592 56.836L26.983 56.7286ZM28.003 54.5054L29.0471 54.6895C29.2335 54.7224 29.4013 54.7156 29.5505 54.6693C29.6996 54.623 29.8232 54.5401 29.9211 54.4207C30.0191 54.3012 30.0834 54.1545 30.1141 53.9805C30.1455 53.8023 30.1352 53.6425 30.0833 53.5009C30.0321 53.3551 29.9443 53.235 29.82 53.1405C29.6957 53.0459 29.5404 52.9822 29.3539 52.9493L28.3098 52.7652L28.003 54.5054ZM31.0446 57.4447L31.6352 54.0949L32.2008 54.1947L32.0923 54.8099L32.0455 54.712C32.1578 54.5352 32.3028 54.4156 32.4805 54.3529C32.6589 54.2861 32.8641 54.2732 33.0961 54.3141L33.3012 54.3502L33.2048 54.8971L32.9127 54.8456C32.6765 54.804 32.4728 54.845 32.3014 54.9686C32.1309 55.088 32.0218 55.2824 31.9743 55.5517L31.6226 57.5467L31.0446 57.4447ZM34.9195 58.2049C34.5963 58.1479 34.3174 58.0218 34.0827 57.8266C33.8487 57.6273 33.6784 57.3816 33.5719 57.0894C33.4653 56.7972 33.4416 56.4833 33.5008 56.1477C33.56 55.8121 33.6872 55.5269 33.8823 55.2922C34.0817 55.0582 34.3254 54.8875 34.6134 54.7803C34.9015 54.673 35.2092 54.6482 35.5365 54.7059C35.8596 54.7629 36.1382 54.8911 36.3722 55.0904C36.6069 55.2856 36.7759 55.5268 36.879 55.8142C36.9863 56.1022 37.01 56.4161 36.9501 56.7559C36.8902 57.0956 36.7581 57.3842 36.5539 57.6216C36.3504 57.8548 36.1047 58.0251 35.8166 58.1324C35.5334 58.2362 35.2344 58.2604 34.9195 58.2049ZM35.0181 57.6456C35.2253 57.6821 35.4209 57.6632 35.6049 57.5888C35.793 57.5152 35.9508 57.3956 36.0782 57.2301C36.2098 57.0654 36.2953 56.8711 36.3348 56.6474C36.375 56.4195 36.3607 56.2098 36.2919 56.0182C36.228 55.8233 36.1203 55.659 35.9687 55.5255C35.822 55.3885 35.645 55.3018 35.4378 55.2653C35.2265 55.228 35.0265 55.2483 34.8376 55.326C34.6536 55.4004 34.4962 55.5179 34.3653 55.6785C34.2352 55.835 34.15 56.0272 34.1099 56.2551C34.0704 56.4788 34.0843 56.6906 34.1516 56.8904C34.2189 57.0902 34.3263 57.2566 34.4738 57.3894C34.6254 57.5229 34.8068 57.6083 35.0181 57.6456ZM38.4039 58.7424L37.6832 55.1613L38.3295 55.2753L38.8801 58.2945L38.6564 58.255L40.2126 55.6074L40.859 55.7213L38.9508 58.8388L38.4039 58.7424ZM40.9097 59.1842L41.5004 55.8344L42.0784 55.9363L41.4877 59.2861L40.9097 59.1842ZM41.5946 55.2999L41.7261 54.5542L42.3041 54.6561L42.1726 55.4019L41.5946 55.2999ZM44.0183 59.8093C43.7034 59.7537 43.4331 59.627 43.2074 59.4292C42.9859 59.232 42.826 58.9881 42.7277 58.6974C42.6294 58.4066 42.6092 58.0976 42.6669 57.7703C42.7261 57.4347 42.8512 57.1492 43.0422 56.9137C43.234 56.6741 43.4677 56.4996 43.7433 56.3901C44.0231 56.2814 44.3204 56.2548 44.6353 56.3103C44.9129 56.3592 45.1488 56.4628 45.3431 56.6209C45.5381 56.7749 45.6802 56.9623 45.7694 57.1831L45.651 57.3096L46.017 55.2339L46.6012 55.3369L45.7716 60.0415L45.2061 59.9418L45.3321 59.2271L45.3891 59.3397C45.2344 59.5388 45.0346 59.6787 44.7897 59.7594C44.5489 59.8409 44.2918 59.8575 44.0183 59.8093ZM44.1667 59.2587C44.378 59.2959 44.5756 59.2774 44.7596 59.203C44.9436 59.1287 45.099 59.0108 45.2257 58.8495C45.3572 58.6847 45.4428 58.4904 45.4822 58.2667C45.5224 58.0388 45.5085 57.827 45.4405 57.6314C45.3773 57.4322 45.272 57.2663 45.1245 57.1335C44.9771 57.0007 44.7977 56.9157 44.5864 56.8784C44.3792 56.8419 44.1812 56.8625 43.9923 56.9403C43.8083 57.0146 43.653 57.1325 43.5263 57.2938C43.4003 57.451 43.3168 57.6457 43.2759 57.8777C43.2365 58.1014 43.2483 58.3128 43.3115 58.5119C43.3754 58.7069 43.481 58.8708 43.6285 59.0036C43.776 59.1364 43.9554 59.2214 44.1667 59.2587ZM46.7905 60.2212L47.3812 56.8714L47.9592 56.9733L47.3685 60.3231L46.7905 60.2212ZM47.4754 56.3369L47.6069 55.5911L48.1849 55.693L48.0534 56.4388L47.4754 56.3369ZM48.3896 60.5031L48.9803 57.1533L49.5459 57.2531L49.4308 57.9056L49.3474 57.8332C49.4676 57.6366 49.629 57.4963 49.8318 57.4124C50.0394 57.3251 50.2675 57.3034 50.5161 57.3472C50.7564 57.3896 50.9603 57.4811 51.1277 57.6217C51.2993 57.763 51.4222 57.9385 51.4963 58.1481C51.5746 58.3584 51.5925 58.5837 51.5501 58.824L51.1677 60.993L50.5835 60.89L50.9331 58.9074C50.9659 58.721 50.9606 58.5577 50.9169 58.4176C50.8733 58.2774 50.7955 58.1612 50.6836 58.0689C50.5766 57.9731 50.4444 57.9113 50.287 57.8836C50.1295 57.8558 49.9821 57.8683 49.8446 57.9209C49.712 57.9702 49.5989 58.0549 49.505 58.175C49.412 58.2911 49.3493 58.4402 49.3172 58.6225L48.9676 60.6051L48.3896 60.5031ZM53.4752 62.8096C53.239 62.768 53.026 62.692 52.8361 62.5816C52.6504 62.472 52.4967 62.3381 52.3751 62.1799C52.2569 62.0266 52.1758 61.8564 52.1319 61.6692L52.7164 61.516C52.7467 61.6837 52.8331 61.8356 52.9757 61.9718C53.1217 62.1129 53.319 62.2054 53.5676 62.2492C53.7582 62.2828 53.9367 62.2758 54.1032 62.2283C54.273 62.1856 54.4163 62.0998 54.533 61.9709C54.649 61.8461 54.7249 61.6822 54.7607 61.4792L54.8933 60.7272L54.9792 60.8576C54.823 61.0651 54.6246 61.2095 54.3838 61.2909C54.1471 61.3731 53.8983 61.3912 53.6373 61.3451C53.3224 61.2896 53.0534 61.1674 52.8304 60.9786C52.6081 60.7856 52.4488 60.5503 52.3525 60.2727C52.2569 59.991 52.2366 59.6948 52.2913 59.384C52.3469 59.0692 52.4674 58.7978 52.6528 58.5699C52.8382 58.342 53.0659 58.1771 53.336 58.0751C53.6109 57.9698 53.9058 57.9449 54.2206 58.0004C54.4817 58.0465 54.7072 58.1482 54.8974 58.3056C55.0924 58.4596 55.2358 58.6515 55.3277 58.8813L55.2133 59.0214L55.3448 58.2756L55.9104 58.3753L55.3449 61.5822C55.2938 61.8722 55.1797 62.1191 55.0028 62.3229C54.8259 62.5266 54.6039 62.6712 54.3368 62.7565C54.0731 62.8467 53.7859 62.8644 53.4752 62.8096ZM53.7856 60.7946C53.9845 60.8296 54.1714 60.8113 54.3464 60.7397C54.5255 60.6687 54.6774 60.5588 54.8019 60.4098C54.9271 60.2568 55.008 60.0767 55.0445 59.8695C55.0803 59.6665 55.0656 59.4716 55.0002 59.285C54.9349 59.0983 54.8302 58.941 54.6861 58.813C54.5462 58.6858 54.3768 58.6047 54.1779 58.5696C53.9749 58.5339 53.7818 58.5511 53.5985 58.6213C53.4153 58.6915 53.261 58.8031 53.1358 58.9562C53.0154 59.1059 52.9369 59.2843 52.9004 59.4914C52.8639 59.6986 52.8762 59.8951 52.9374 60.0811C53.0035 60.2636 53.1085 60.4189 53.2526 60.5468C53.4008 60.6754 53.5785 60.758 53.7856 60.7946ZM59.0792 62.4649C58.7519 62.4072 58.4733 62.279 58.2434 62.0804C58.0177 61.8826 57.8557 61.6383 57.7575 61.3475C57.6592 61.0568 57.6393 60.7457 57.6978 60.4142C57.7569 60.0786 57.882 59.7931 58.0731 59.5576C58.2641 59.3222 58.4995 59.1501 58.7793 59.0414C59.0632 58.9334 59.3688 58.9082 59.6961 58.9659C59.9157 59.0046 60.1139 59.0802 60.2906 59.1925C60.4673 59.3048 60.6165 59.4401 60.7381 59.5982C60.8597 59.7564 60.938 59.9304 60.9729 60.1202L60.4132 60.2779C60.3652 60.09 60.2699 59.9279 60.1273 59.7917C59.9854 59.6513 59.8088 59.5625 59.5975 59.5253C59.3945 59.4895 59.201 59.5087 59.017 59.5831C58.8371 59.6582 58.6839 59.7764 58.5571 59.9378C58.4304 60.0991 58.3466 60.2958 58.3057 60.5278C58.2663 60.7516 58.2781 60.963 58.3413 61.1621C58.4051 61.3571 58.5087 61.5206 58.6521 61.6527C58.7995 61.7855 58.9748 61.8698 59.1778 61.9056C59.3891 61.9428 59.585 61.9218 59.7656 61.8426C59.9469 61.7592 60.093 61.6333 60.2039 61.4649L60.6737 61.8169C60.5767 61.9792 60.4437 62.116 60.2746 62.2271C60.1062 62.3341 59.9197 62.4102 59.7153 62.4553C59.5108 62.5004 59.2988 62.5036 59.0792 62.4649ZM61.4076 62.7986L62.2372 58.0939L62.8151 58.1958L62.4612 60.2032L62.3654 60.1287C62.4855 59.932 62.647 59.7917 62.8497 59.7078C63.0573 59.6205 63.2855 59.5988 63.5341 59.6427C63.7744 59.685 63.9782 59.7765 64.1457 59.9171C64.3173 60.0584 64.4401 60.2339 64.5143 60.4435C64.5925 60.6538 64.6105 60.8791 64.5681 61.1194L64.1856 63.2884L63.6014 63.1854L63.951 61.2029C63.9839 61.0164 63.9764 60.8528 63.9287 60.7119C63.885 60.5718 63.8093 60.4559 63.7016 60.3643C63.5946 60.2685 63.4624 60.2067 63.3049 60.179C63.1516 60.1519 63.0062 60.1648 62.8688 60.2174C62.7321 60.2659 62.6168 60.3503 62.523 60.4704C62.4299 60.5865 62.3673 60.7356 62.3352 60.9179L61.9856 62.9005L61.4076 62.7986ZM66.6651 63.8025C66.342 63.7455 66.0675 63.6181 65.8418 63.4202C65.6161 63.2224 65.4541 62.9781 65.3559 62.6873C65.2584 62.3925 65.2388 62.0793 65.2973 61.7478C65.3564 61.4122 65.4795 61.1263 65.6664 60.8901C65.8574 60.6547 66.0883 60.4839 66.359 60.3779C66.6347 60.2684 66.9258 60.2407 67.2324 60.2948C67.481 60.3386 67.6925 60.4229 67.8671 60.5477C68.0464 60.669 68.1889 60.818 68.2945 60.9947C68.4049 61.168 68.4782 61.3582 68.5143 61.5653C68.5552 61.7691 68.5575 61.9745 68.5209 62.1817C68.5129 62.2272 68.4996 62.2783 68.4811 62.3349C68.4675 62.388 68.4521 62.4387 68.4351 62.4869L65.6881 62.0026L65.7758 61.5054L68.1871 61.9306L67.8742 62.1061C67.9495 61.8972 67.9628 61.7009 67.914 61.5171C67.8652 61.3334 67.7729 61.1783 67.6372 61.0518C67.5014 60.9253 67.3362 60.8449 67.1414 60.8106C66.9467 60.7763 66.7598 60.7946 66.5807 60.8655C66.4015 60.9365 66.25 61.0571 66.1259 61.2275C66.0068 61.3945 65.9332 61.6058 65.9052 61.8614C65.8455 62.103 65.8448 62.325 65.9031 62.5275C65.9663 62.7266 66.0736 62.8929 66.2253 63.0265C66.3817 63.1566 66.5615 63.2395 66.7645 63.2753C66.9882 63.3148 67.1859 63.2962 67.3575 63.2197C67.529 63.1431 67.6767 63.0325 67.8005 62.8877L68.2414 63.2218C68.1481 63.3634 68.0197 63.486 67.8561 63.5896C67.6975 63.6898 67.5163 63.7603 67.3126 63.8013C67.113 63.843 66.8972 63.8434 66.6651 63.8025ZM70.0051 64.3914C69.7856 64.3527 69.5978 64.279 69.4418 64.1703C69.2907 64.0583 69.1799 63.9234 69.1094 63.7657C69.0397 63.6039 69.0213 63.4298 69.0541 63.2433C69.0856 63.0652 69.151 62.9122 69.2504 62.7845C69.3547 62.6534 69.4964 62.5523 69.6755 62.4814C69.8588 62.4112 70.0783 62.3773 70.3342 62.3797L71.6134 62.3937L71.5279 62.8785L70.3826 62.8688C70.1605 62.8681 69.991 62.9087 69.8741 62.9906C69.7613 63.0732 69.6921 63.187 69.6665 63.3321C69.6424 63.4688 69.6761 63.5922 69.7678 63.7024C69.8636 63.8132 69.9944 63.8833 70.1601 63.9125C70.3714 63.9498 70.5614 63.9384 70.73 63.8784C70.9035 63.8151 71.0473 63.7144 71.1613 63.5764C71.2795 63.4392 71.355 63.2774 71.3879 63.0909L71.5381 62.2395C71.5702 62.0572 71.5278 61.898 71.4108 61.7621C71.2986 61.6227 71.1328 61.5336 70.9132 61.4949C70.7226 61.4613 70.544 61.4811 70.3773 61.5542C70.2155 61.6239 70.0851 61.7334 69.9862 61.8825L69.5288 61.5327C69.618 61.3904 69.7415 61.2712 69.8994 61.1752C70.0581 61.075 70.2347 61.0057 70.4295 60.9674C70.6242 60.9291 70.821 60.9275 71.0199 60.9626C71.2767 61.0079 71.4938 61.0974 71.671 61.2312C71.8489 61.3608 71.9764 61.5222 72.0534 61.7152C72.1354 61.9048 72.1562 62.1135 72.116 62.3414L71.715 64.616L71.1494 64.5163L71.2612 63.8824L71.3603 63.9383C71.2664 64.0585 71.1507 64.1577 71.013 64.2359C70.8753 64.3142 70.7206 64.3681 70.5488 64.3976C70.3769 64.4271 70.1957 64.425 70.0051 64.3914ZM72.5162 66.0389L73.3261 61.4461L73.8916 61.5459L73.7645 62.2668L73.7151 62.1107C73.8745 61.9337 74.0721 61.8063 74.308 61.7282C74.5447 61.6461 74.8018 61.6295 75.0794 61.6784C75.3943 61.7339 75.6625 61.8603 75.8841 62.0574C76.1098 62.2553 76.2717 62.4996 76.37 62.7903C76.469 63.0769 76.4889 63.388 76.4297 63.7236C76.372 64.0509 76.2473 64.3344 76.0555 64.574C75.8637 64.8136 75.628 64.9877 75.3482 65.0965C75.0726 65.2059 74.7752 65.2325 74.4562 65.1763C74.1869 65.1288 73.951 65.0252 73.7484 64.8656C73.55 64.7068 73.4101 64.5069 73.3287 64.2662L73.4394 64.1832L73.0942 66.1408L72.5162 66.0389ZM74.5113 64.6093C74.7226 64.6465 74.9203 64.628 75.1043 64.5536C75.2883 64.4793 75.4416 64.361 75.5641 64.199C75.6916 64.0335 75.775 63.8388 75.8145 63.6151C75.8554 63.3831 75.8435 63.1717 75.7789 62.9808C75.7192 62.7866 75.6156 62.6231 75.4681 62.4903C75.3214 62.3533 75.1423 62.2662 74.931 62.229C74.7197 62.1917 74.52 62.2099 74.3319 62.2835C74.1479 62.3579 73.9901 62.4775 73.8585 62.6422C73.7318 62.8036 73.6484 62.9982 73.6082 63.2261C73.5687 63.4498 73.5806 63.6612 73.6437 63.8603C73.7117 64.056 73.8195 64.2203 73.967 64.3531C74.1186 64.4866 74.3 64.572 74.5113 64.6093ZM79.7562 66.1108C79.4289 66.0531 79.1503 65.9249 78.9205 65.7264C78.6948 65.5285 78.5328 65.2842 78.4345 64.9935C78.3363 64.7027 78.3164 64.3916 78.3748 64.0602C78.434 63.7246 78.5591 63.439 78.7501 63.2036C78.9412 62.9681 79.1766 62.796 79.4563 62.6873C79.7403 62.5793 80.0459 62.5541 80.3732 62.6118C80.5928 62.6506 80.7909 62.7261 80.9676 62.8384C81.1443 62.9507 81.2935 63.086 81.4152 63.2441C81.5368 63.4023 81.615 63.5763 81.6499 63.7661L81.0903 63.9238C81.0422 63.7359 80.9469 63.5738 80.8043 63.4376C80.6625 63.2973 80.4859 63.2084 80.2746 63.1712C80.0715 63.1354 79.878 63.1547 79.694 63.229C79.5142 63.3041 79.3609 63.4223 79.2342 63.5837C79.1075 63.7451 79.0237 63.9417 78.9828 64.1738C78.9433 64.3975 78.9552 64.6089 79.0183 64.808C79.0822 65.003 79.1858 65.1665 79.3291 65.2986C79.4766 65.4314 79.6518 65.5157 79.8549 65.5515C80.0662 65.5887 80.2621 65.5678 80.4427 65.4885C80.624 65.4051 80.7701 65.2792 80.8809 65.1108L81.3508 65.4628C81.2538 65.6251 81.1207 65.7619 80.9516 65.873C80.7832 65.98 80.5968 66.0561 80.3923 66.1012C80.1878 66.1463 79.9758 66.1495 79.7562 66.1108ZM83.011 66.6847C82.7914 66.646 82.6036 66.5723 82.4476 66.4636C82.2965 66.3515 82.1857 66.2167 82.1152 66.059C82.0455 65.8972 82.0271 65.723 82.06 65.5366C82.0914 65.3584 82.1568 65.2055 82.2562 65.0778C82.3605 64.9466 82.5022 64.8456 82.6813 64.7747C82.8646 64.7044 83.0842 64.6705 83.3401 64.6729L84.6192 64.687L84.5337 65.1718L83.3884 65.1621C83.1664 65.1614 82.9969 65.202 82.8799 65.2839C82.7671 65.3665 82.6979 65.4803 82.6723 65.6253C82.6482 65.7621 82.682 65.8855 82.7736 65.9956C82.8694 66.1065 83.0002 66.1766 83.1659 66.2058C83.3772 66.2431 83.5672 66.2317 83.7358 66.1717C83.9093 66.1083 84.0531 66.0077 84.1672 65.8697C84.2853 65.7325 84.3609 65.5706 84.3937 65.3842L84.5439 64.5328C84.576 64.3504 84.5336 64.1913 84.4166 64.0553C84.3045 63.9159 84.1386 63.8269 83.919 63.7882C83.7284 63.7546 83.5498 63.7743 83.3831 63.8475C83.2213 63.9172 83.0909 64.0266 82.992 64.1758L82.5346 63.826C82.6238 63.6837 82.7473 63.5645 82.9052 63.4684C83.0639 63.3682 83.2406 63.299 83.4353 63.2607C83.63 63.2224 83.8268 63.2208 84.0257 63.2559C84.2826 63.3012 84.4996 63.3907 84.6768 63.5245C84.8547 63.6541 84.9822 63.8154 85.0593 64.0084C85.1412 64.198 85.162 64.4068 85.1219 64.6347L84.7208 66.9093L84.1552 66.8096L84.267 66.1757L84.3661 66.2316C84.2723 66.3518 84.1565 66.451 84.0188 66.5292C83.8811 66.6075 83.7264 66.6613 83.5546 66.6909C83.3828 66.7204 83.2016 66.7183 83.011 66.6847ZM85.7412 67.0892L86.3319 63.7394L86.8974 63.8391L86.789 64.4544L86.7422 64.3565C86.8545 64.1797 86.9995 64.0601 87.1771 63.9974C87.3555 63.9306 87.5607 63.9177 87.7927 63.9586L87.9978 63.9947L87.9014 64.5416L87.6093 64.4901C87.3731 64.4485 87.1694 64.4895 86.9981 64.613C86.8275 64.7325 86.7185 64.9269 86.671 65.1962L86.3192 67.1912L85.7412 67.0892ZM89.2369 67.7056L89.8275 64.3558L90.3931 64.4555L90.2846 65.0708L90.2378 64.9728C90.3501 64.7961 90.4951 64.6764 90.6727 64.6138C90.8511 64.547 91.0563 64.534 91.2884 64.5749L91.4935 64.6111L91.397 65.158L91.1049 65.1065C90.8688 65.0649 90.665 65.1058 90.4937 65.2294C90.3231 65.3489 90.2141 65.5432 90.1666 65.8126L89.8148 67.8075L89.2369 67.7056ZM93.0621 68.457C92.7389 68.4 92.4644 68.2726 92.2387 68.0747C92.013 67.8769 91.851 67.6326 91.7528 67.3418C91.6553 67.0469 91.6357 66.7338 91.6942 66.4023C91.7533 66.0667 91.8764 65.7808 92.0633 65.5446C92.2543 65.3092 92.4852 65.1384 92.756 65.0324C93.0316 64.9229 93.3227 64.8952 93.6293 64.9493C93.8779 64.9931 94.0895 65.0774 94.264 65.2021C94.4434 65.3235 94.5858 65.4725 94.6914 65.6492C94.8018 65.8224 94.8751 66.0127 94.9112 66.2198C94.9521 66.4235 94.9544 66.629 94.9178 66.8362C94.9098 66.8817 94.8965 66.9328 94.878 66.9893C94.8644 67.0425 94.849 67.0932 94.832 67.1414L92.085 66.6571L92.1727 66.1599L94.584 66.5851L94.2711 66.7606C94.3464 66.5517 94.3597 66.3554 94.3109 66.1716C94.2621 65.9879 94.1699 65.8328 94.0341 65.7063C93.8983 65.5798 93.7331 65.4994 93.5383 65.4651C93.3436 65.4308 93.1567 65.4491 92.9776 65.52C92.7984 65.591 92.6469 65.7116 92.5228 65.882C92.4037 66.0489 92.3301 66.2603 92.3021 66.5159C92.2425 66.7574 92.2418 66.9795 92.3 67.182C92.3632 67.3811 92.4706 67.5474 92.6222 67.6809C92.7787 67.8111 92.9584 67.894 93.1614 67.9298C93.3852 67.9693 93.5828 67.9507 93.7544 67.8742C93.9259 67.7976 94.0736 67.687 94.1974 67.5422L94.6383 67.8762C94.545 68.0179 94.4166 68.1405 94.2531 68.2441C94.0944 68.3443 93.9132 68.4148 93.7095 68.4558C93.5099 68.4975 93.2941 68.4979 93.0621 68.457ZM95.4758 68.8057L96.0664 65.4559L96.632 65.5556L96.5169 66.2082L96.4335 66.1358C96.5537 65.9391 96.7151 65.7988 96.9179 65.715C97.1255 65.6277 97.3536 65.606 97.6022 65.6498C97.8425 65.6922 98.0464 65.7836 98.2138 65.9242C98.3854 66.0656 98.5083 66.241 98.5824 66.4506C98.6607 66.6609 98.6786 66.8862 98.6362 67.1266L98.2538 69.2955L97.6696 69.1925L98.0192 67.21C98.0521 67.0235 98.0467 66.8603 98.003 66.7201C97.9594 66.58 97.8816 66.4638 97.7697 66.3714C97.6627 66.2756 97.5305 66.2139 97.3731 66.1861C97.2156 66.1584 97.0682 66.1708 96.9307 66.2235C96.7982 66.2727 96.685 66.3574 96.5912 66.4776C96.4981 66.5936 96.4355 66.7428 96.4033 66.9251L96.0537 68.9076L95.4758 68.8057ZM100.56 69.7406C100.232 69.6829 99.996 69.5451 99.8507 69.3272C99.7096 69.1101 99.669 68.8316 99.7289 68.4919L100.04 66.7269L99.431 66.6195L99.5286 66.0664L99.6529 66.0883C99.802 66.1146 99.9282 66.0898 100.031 66.014C100.134 65.9382 100.199 65.8257 100.225 65.6766L100.274 65.4031L100.852 65.505L100.716 66.2757L101.468 66.4083L101.37 66.9614L100.618 66.8288L100.31 68.5752C100.29 68.687 100.29 68.7873 100.308 68.876C100.331 68.9655 100.379 69.0424 100.454 69.1067C100.528 69.1669 100.634 69.209 100.771 69.2331C100.8 69.2382 100.835 69.2424 100.878 69.2455C100.924 69.2494 100.966 69.2526 101.004 69.255L100.914 69.7647C100.858 69.7676 100.797 69.7653 100.73 69.7577C100.662 69.7543 100.605 69.7486 100.56 69.7406ZM102.72 70.1599C102.5 70.1212 102.312 70.0475 102.156 69.9388C102.005 69.8267 101.895 69.6919 101.824 69.5342C101.754 69.3724 101.736 69.1982 101.769 69.0118C101.8 68.8336 101.866 68.6807 101.965 68.553C102.069 68.4218 102.211 68.3208 102.39 68.2499C102.573 68.1796 102.793 68.1457 103.049 68.1481L104.328 68.1622L104.243 68.647L103.097 68.6373C102.875 68.6366 102.706 68.6772 102.589 68.7591C102.476 68.8417 102.407 68.9555 102.381 69.1005C102.357 69.2373 102.391 69.3607 102.483 69.4709C102.578 69.5817 102.709 69.6518 102.875 69.681C103.086 69.7183 103.276 69.7069 103.445 69.6469C103.618 69.5835 103.762 69.4829 103.876 69.3449C103.994 69.2077 104.07 69.0458 104.103 68.8594L104.253 68.008C104.285 67.8257 104.242 67.6665 104.125 67.5305C104.013 67.3912 103.848 67.3021 103.628 67.2634C103.437 67.2298 103.259 67.2495 103.092 67.3227C102.93 67.3924 102.8 67.5018 102.701 67.651L102.243 67.3012C102.333 67.1589 102.456 67.0397 102.614 66.9436C102.773 66.8435 102.949 66.7742 103.144 66.7359C103.339 66.6976 103.536 66.696 103.735 66.7311C103.991 66.7764 104.209 66.8659 104.386 66.9997C104.564 67.1293 104.691 67.2906 104.768 67.4837C104.85 67.6733 104.871 67.882 104.831 68.1099L104.43 70.3845L103.864 70.2848L103.976 69.6509L104.075 69.7068C103.981 69.827 103.865 69.9262 103.728 70.0044C103.59 70.0827 103.435 70.1366 103.263 70.1661C103.092 70.1956 102.91 70.1935 102.72 70.1599ZM105.45 70.5644L106.28 65.8598L106.858 65.9617L106.028 70.6664L105.45 70.5644ZM109.434 71.3438C109.099 71.2847 108.821 71.1503 108.602 70.9407C108.382 70.7312 108.246 70.4764 108.192 70.1764L108.691 70.0337C108.751 70.2494 108.854 70.4299 108.999 70.5751C109.145 70.7203 109.319 70.8108 109.522 70.8466C109.704 70.8788 109.863 70.8619 109.998 70.7961C110.134 70.7303 110.214 70.627 110.239 70.4861C110.257 70.3866 110.241 70.3028 110.194 70.2346C110.151 70.1629 110.093 70.1036 110.02 70.0566C109.948 70.0054 109.88 69.9657 109.817 69.9374L109.338 69.7057C109.051 69.5654 108.852 69.402 108.739 69.2156C108.631 69.0299 108.596 68.8293 108.634 68.6139C108.669 68.415 108.749 68.2518 108.874 68.1243C109.004 67.9934 109.163 67.9019 109.352 67.8497C109.545 67.7983 109.751 67.7919 109.97 67.8306C110.264 67.8825 110.514 68.0035 110.72 68.1935C110.93 68.3843 111.061 68.6231 111.113 68.91L110.602 69.0442C110.558 68.8571 110.47 68.7006 110.339 68.5749C110.208 68.445 110.049 68.3636 109.863 68.3307C109.693 68.3008 109.551 68.3205 109.436 68.39C109.322 68.4553 109.253 68.5522 109.231 68.6807C109.214 68.776 109.225 68.8591 109.264 68.93C109.303 68.9968 109.355 69.0529 109.42 69.0985C109.485 69.1399 109.549 69.1768 109.612 69.2092L110.13 69.4673C110.39 69.5942 110.58 69.7537 110.7 69.9457C110.824 70.1385 110.865 70.3509 110.824 70.5829C110.791 70.7693 110.71 70.928 110.58 71.0589C110.45 71.1898 110.287 71.2806 110.09 71.3313C109.893 71.382 109.674 71.3862 109.434 71.3438ZM113.074 71.9857C112.751 71.9287 112.477 71.8013 112.251 71.6034C112.025 71.4056 111.863 71.1613 111.765 70.8705C111.668 70.5757 111.648 70.2625 111.707 69.931C111.766 69.5954 111.889 69.3095 112.076 69.0733C112.267 68.8379 112.498 68.6671 112.768 68.5611C113.044 68.4516 113.335 68.4239 113.642 68.478C113.89 68.5218 114.102 68.6061 114.276 68.7309C114.456 68.8522 114.598 69.0012 114.704 69.1779C114.814 69.3512 114.887 69.5414 114.924 69.7485C114.965 69.9523 114.967 70.1577 114.93 70.3649C114.922 70.4105 114.909 70.4615 114.89 70.5181C114.877 70.5712 114.861 70.6219 114.844 70.6701L112.097 70.1858L112.185 69.6886L114.596 70.1138L114.283 70.2893C114.359 70.0804 114.372 69.8841 114.323 69.7004C114.274 69.5166 114.182 69.3615 114.046 69.235C113.911 69.1086 113.745 69.0281 113.551 68.9938C113.356 68.9595 113.169 68.9778 112.99 69.0487C112.811 69.1197 112.659 69.2403 112.535 69.4107C112.416 69.5777 112.342 69.789 112.314 70.0446C112.255 70.2862 112.254 70.5082 112.312 70.7107C112.376 70.9098 112.483 71.0761 112.635 71.2097C112.791 71.3398 112.971 71.4227 113.174 71.4585C113.398 71.498 113.595 71.4794 113.767 71.4029C113.938 71.3263 114.086 71.2157 114.21 71.0709L114.651 71.405C114.557 71.5466 114.429 71.6692 114.265 71.7728C114.107 71.873 113.926 71.9436 113.722 71.9845C113.522 72.0262 113.306 72.0266 113.074 71.9857ZM115.488 72.3344L116.079 68.9846L116.644 69.0843L116.536 69.6996L116.489 69.6016C116.601 69.4249 116.746 69.3052 116.924 69.2426C117.102 69.1758 117.308 69.1628 117.54 69.2037L117.745 69.2399L117.648 69.7868L117.356 69.7353C117.12 69.6937 116.916 69.7346 116.745 69.8582C116.574 69.9777 116.465 70.172 116.418 70.4414L116.066 72.4363L115.488 72.3344ZM118.717 72.9038L117.997 69.3228L118.643 69.4368L119.194 72.4559L118.97 72.4165L120.526 69.7688L121.173 69.8828L119.264 73.0003L118.717 72.9038ZM121.223 73.3457L121.814 69.9959L122.392 70.0978L121.801 73.4476L121.223 73.3457ZM121.908 69.4614L122.04 68.7156L122.618 68.8175L122.486 69.5633L121.908 69.4614ZM124.363 73.9762C124.036 73.9185 123.757 73.7903 123.527 73.5917C123.301 73.3939 123.14 73.1496 123.041 72.8588C122.943 72.5681 122.923 72.257 122.982 71.9255C123.041 71.5899 123.166 71.3044 123.357 71.0689C123.548 70.8335 123.783 70.6614 124.063 70.5527C124.347 70.4446 124.653 70.4195 124.98 70.4772C125.2 70.5159 125.398 70.5915 125.574 70.7038C125.751 70.8161 125.9 70.9514 126.022 71.1095C126.144 71.2677 126.222 71.4417 126.257 71.6315L125.697 71.7892C125.649 71.6013 125.554 71.4392 125.411 71.303C125.269 71.1626 125.093 71.0738 124.881 71.0366C124.678 71.0008 124.485 71.02 124.301 71.0944C124.121 71.1695 123.968 71.2877 123.841 71.4491C123.714 71.6104 123.63 71.8071 123.589 72.0391C123.55 72.2629 123.562 72.4743 123.625 72.6734C123.689 72.8684 123.793 73.0319 123.936 73.1639C124.083 73.2968 124.259 73.3811 124.462 73.4168C124.673 73.4541 124.869 73.4331 125.049 73.3539C125.231 73.2705 125.377 73.1446 125.488 72.9762L125.957 73.3282C125.861 73.4905 125.727 73.6272 125.558 73.7384C125.39 73.8454 125.204 73.9215 124.999 73.9666C124.795 74.0117 124.583 74.0149 124.363 73.9762ZM128.22 74.6562C127.896 74.5992 127.622 74.4718 127.396 74.2739C127.17 74.0761 127.009 73.8318 126.91 73.541C126.813 73.2461 126.793 72.933 126.852 72.6015C126.911 72.2659 127.034 71.98 127.221 71.7438C127.412 71.5084 127.643 71.3376 127.913 71.2316C128.189 71.1221 128.48 71.0944 128.787 71.1485C129.035 71.1923 129.247 71.2766 129.421 71.4014C129.601 71.5227 129.743 71.6717 129.849 71.8484C129.959 72.0217 130.033 72.2119 130.069 72.419C130.11 72.6228 130.112 72.8282 130.075 73.0354C130.067 73.0809 130.054 73.132 130.035 73.1885C130.022 73.2417 130.006 73.2924 129.989 73.3406L127.242 72.8563L127.33 72.3591L129.741 72.7843L129.429 72.9598C129.504 72.7509 129.517 72.5546 129.468 72.3708C129.42 72.1871 129.327 72.032 129.192 71.9055C129.056 71.779 128.891 71.6986 128.696 71.6643C128.501 71.63 128.314 71.6483 128.135 71.7192C127.956 71.7902 127.804 71.9108 127.68 72.0812C127.561 72.2482 127.488 72.4595 127.46 72.7151C127.4 72.9567 127.399 73.1787 127.457 73.3812C127.521 73.5803 127.628 73.7466 127.78 73.8802C127.936 74.0103 128.116 74.0932 128.319 74.129C128.543 74.1685 128.74 74.1499 128.912 74.0734C129.083 73.9968 129.231 73.8862 129.355 73.7414L129.796 74.0755C129.702 74.2171 129.574 74.3397 129.411 74.4433C129.252 74.5435 129.071 74.614 128.867 74.655C128.667 74.6967 128.452 74.6971 128.22 74.6562ZM131.82 75.291C131.484 75.2318 131.206 75.0974 130.987 74.8879C130.768 74.6783 130.631 74.4235 130.577 74.1235L131.077 73.9809C131.137 74.1966 131.239 74.377 131.385 74.5222C131.53 74.6675 131.704 74.758 131.907 74.7938C132.089 74.8259 132.248 74.8091 132.384 74.7433C132.519 74.6775 132.6 74.5741 132.624 74.4332C132.642 74.3338 132.627 74.25 132.579 74.1817C132.536 74.1101 132.478 74.0508 132.405 74.0037C132.333 73.9526 132.265 73.9128 132.202 73.8846L131.724 73.6529C131.437 73.5125 131.237 73.3491 131.125 73.1627C131.016 72.977 130.981 72.7765 131.019 72.561C131.054 72.3621 131.134 72.199 131.259 72.0715C131.389 71.9406 131.549 71.849 131.737 71.7969C131.93 71.7454 132.136 71.739 132.356 71.7778C132.65 71.8296 132.9 71.9506 133.106 72.1407C133.315 72.3315 133.446 72.5703 133.498 72.8571L132.988 72.9914C132.944 72.8042 132.856 72.6478 132.724 72.522C132.593 72.3921 132.435 72.3108 132.248 72.2779C132.078 72.2479 131.936 72.2677 131.821 72.3372C131.707 72.4025 131.639 72.4994 131.616 72.6278C131.599 72.7231 131.61 72.8062 131.649 72.8771C131.689 72.9439 131.741 73.0001 131.805 73.0456C131.871 73.0871 131.935 73.124 131.997 73.1564L132.516 73.4144C132.775 73.5413 132.965 73.7008 133.085 73.8929C133.209 74.0856 133.251 74.298 133.21 74.53C133.177 74.7165 133.095 74.8752 132.966 75.006C132.836 75.1369 132.672 75.2277 132.475 75.2785C132.278 75.3292 132.06 75.3334 131.82 75.291ZM26.1469 66.8123C25.9273 66.7736 25.7395 66.6999 25.5835 66.5912C25.4324 66.4791 25.3216 66.3443 25.2512 66.1866C25.1815 66.0248 25.163 65.8506 25.1959 65.6642C25.2273 65.486 25.2927 65.3331 25.3922 65.2054C25.4965 65.0742 25.6382 64.9732 25.8173 64.9023C26.0005 64.832 26.2201 64.7981 26.476 64.8005L27.7552 64.8146L27.6697 65.2994L26.5243 65.2897C26.3023 65.289 26.1328 65.3296 26.0159 65.4115C25.903 65.4941 25.8338 65.6079 25.8083 65.7529C25.7841 65.8897 25.8179 66.0131 25.9096 66.1232C26.0054 66.2341 26.1361 66.3042 26.3019 66.3334C26.5132 66.3707 26.7031 66.3593 26.8718 66.2993C27.0453 66.2359 27.1891 66.1353 27.3031 65.9973C27.4213 65.8601 27.4968 65.6982 27.5297 65.5118L27.6798 64.6604C27.712 64.478 27.6695 64.3189 27.5525 64.1829C27.4404 64.0435 27.2746 63.9545 27.055 63.9158C26.8644 63.8822 26.6857 63.9019 26.519 63.9751C26.3572 64.0448 26.2269 64.1542 26.1279 64.3034L25.6706 63.9536C25.7597 63.8113 25.8833 63.6921 26.0412 63.596C26.1998 63.4958 26.3765 63.4266 26.5712 63.3883C26.766 63.35 26.9628 63.3484 27.1616 63.3835C27.4185 63.4288 27.6356 63.5183 27.8128 63.6521C27.9907 63.7817 28.1182 63.943 28.1952 64.1361C28.2771 64.3256 28.298 64.5344 28.2578 64.7623L27.8567 67.0369L27.2912 66.9372L27.403 66.3033L27.502 66.3592C27.4082 66.4794 27.2925 66.5786 27.1548 66.6568C27.0171 66.7351 26.8623 66.7889 26.6905 66.8185C26.5187 66.848 26.3375 66.8459 26.1469 66.8123ZM28.8772 67.2168L29.4678 63.867L30.0334 63.9667L29.9183 64.6193L29.835 64.5469C29.9551 64.3502 30.1165 64.21 30.3193 64.1261C30.5269 64.0388 30.755 64.0171 31.0036 64.0609C31.2439 64.1033 31.4478 64.1948 31.6153 64.3354C31.7869 64.4767 31.9097 64.6522 31.9838 64.8618C32.0621 65.0721 32.0801 65.2974 32.0377 65.5377L31.6552 67.7067L31.071 67.6037L31.4206 65.6211C31.4535 65.4347 31.4481 65.2714 31.4045 65.1313C31.3608 64.9911 31.2831 64.8749 31.1712 64.7825C31.0642 64.6868 30.9319 64.625 30.7745 64.5973C30.6171 64.5695 30.4696 64.5819 30.3322 64.6346C30.1996 64.6839 30.0864 64.7686 29.9926 64.8887C29.8995 65.0047 29.8369 65.1539 29.8047 65.3362L29.4552 67.3188L28.8772 67.2168ZM34.1161 68.2175C33.8012 68.162 33.5309 68.0353 33.3052 67.8374C33.0836 67.6403 32.9237 67.3963 32.8255 67.1056C32.7272 66.8149 32.7069 66.5058 32.7646 66.1785C32.8238 65.8429 32.9489 65.5574 33.14 65.3219C33.3317 65.0823 33.5654 64.9078 33.8411 64.7983C34.1208 64.6896 34.4182 64.663 34.733 64.7185C35.0106 64.7675 35.2466 64.871 35.4408 65.0292C35.6358 65.1832 35.7779 65.3706 35.8672 65.5914L35.7487 65.7179L36.1148 63.6421L36.699 63.7451L35.8694 68.4498L35.3038 68.35L35.4299 67.6353L35.4869 67.7479C35.3322 67.947 35.1324 68.087 34.8874 68.1677C34.6467 68.2491 34.3895 68.2657 34.1161 68.2175ZM34.2644 67.6669C34.4757 67.7042 34.6734 67.6856 34.8574 67.6113C35.0414 67.5369 35.1967 67.4191 35.3234 67.2577C35.455 67.0929 35.5405 66.8987 35.58 66.6749C35.6202 66.4471 35.6062 66.2353 35.5382 66.0396C35.4751 65.8405 35.3698 65.6745 35.2223 65.5417C35.0748 65.4089 34.8954 65.3239 34.6841 65.2866C34.477 65.2501 34.279 65.2707 34.0901 65.3485C33.9061 65.4229 33.7507 65.5407 33.624 65.7021C33.4981 65.8593 33.4146 66.0539 33.3737 66.2859C33.3343 66.5097 33.3461 66.7211 33.4093 66.9202C33.4731 67.1151 33.5788 67.279 33.7263 67.4118C33.8737 67.5446 34.0531 67.6297 34.2644 67.6669ZM39.2732 69.1268C38.9376 69.0677 38.6601 68.9333 38.4407 68.7237C38.2213 68.5142 38.0847 68.2594 38.0308 67.9594L38.5301 67.8167C38.5904 68.0324 38.6931 68.2129 38.8384 68.3581C38.9837 68.5033 39.1578 68.5938 39.3608 68.6296C39.5431 68.6618 39.702 68.6449 39.8375 68.5791C39.973 68.5133 40.0532 68.41 40.078 68.2691C40.0956 68.1696 40.0804 68.0858 40.0327 68.0176C39.9898 67.9459 39.9319 67.8866 39.859 67.8396C39.7868 67.7884 39.7191 67.7487 39.6557 67.7204L39.1775 67.4887C38.8904 67.3484 38.6907 67.185 38.5783 66.9986C38.47 66.8129 38.4349 66.6123 38.4729 66.3969C38.508 66.198 38.588 66.0348 38.713 65.9073C38.8429 65.7764 39.0022 65.6849 39.1908 65.6327C39.3836 65.5813 39.5897 65.5749 39.8093 65.6136C40.1035 65.6655 40.3534 65.7865 40.5592 65.9765C40.769 66.1673 40.8999 66.4061 40.9519 66.693L40.4412 66.8272C40.3973 66.6401 40.3096 66.4836 40.1779 66.3579C40.047 66.228 39.8884 66.1466 39.7019 66.1137C39.532 66.0838 39.3897 66.1035 39.2749 66.173C39.1609 66.2383 39.0925 66.3352 39.0699 66.4637C39.0531 66.559 39.0641 66.6421 39.1028 66.713C39.1423 66.7798 39.1944 66.8359 39.259 66.8815C39.3243 66.9229 39.3883 66.9598 39.4509 66.9922L39.9693 67.2503C40.2289 67.3772 40.4186 67.5367 40.5386 67.7287C40.6627 67.9215 40.7042 68.1339 40.6633 68.3659C40.6304 68.5523 40.5491 68.711 40.4192 68.8419C40.2893 68.9728 40.1259 69.0636 39.929 69.1143C39.7321 69.165 39.5135 69.1692 39.2732 69.1268ZM42.3541 69.6701C42.1345 69.6314 41.9467 69.5577 41.7908 69.449C41.6396 69.3369 41.5289 69.202 41.4584 69.0444C41.3887 68.8825 41.3702 68.7084 41.4031 68.522C41.4345 68.3438 41.5 68.1909 41.5994 68.0631C41.7037 67.932 41.8454 67.831 42.0245 67.76C42.2077 67.6898 42.4273 67.6559 42.6832 67.6583L43.9624 67.6724L43.8769 68.1571L42.7316 68.1474C42.5095 68.1467 42.34 68.1873 42.2231 68.2692C42.1102 68.3519 42.041 68.4657 42.0155 68.6107C41.9914 68.7474 42.0251 68.8709 42.1168 68.981C42.2126 69.0919 42.3433 69.1619 42.5091 69.1912C42.7204 69.2284 42.9103 69.2171 43.079 69.1571C43.2525 69.0937 43.3963 68.993 43.5103 68.8551C43.6285 68.7178 43.704 68.556 43.7369 68.3696L43.887 67.5181C43.9192 67.3358 43.8768 67.1767 43.7598 67.0407C43.6476 66.9013 43.4818 66.8123 43.2622 66.7735C43.0716 66.7399 42.8929 66.7597 42.7263 66.8328C42.5644 66.9026 42.4341 67.012 42.3351 67.1612L41.8778 66.8114C41.9669 66.669 42.0905 66.5498 42.2484 66.4538C42.407 66.3536 42.5837 66.2844 42.7784 66.2461C42.9732 66.2078 43.17 66.2062 43.3688 66.2413C43.6257 66.2865 43.8428 66.3761 44.02 66.5099C44.1979 66.6395 44.3254 66.8008 44.4024 66.9938C44.4843 67.1834 44.5052 67.3922 44.465 67.62L44.0639 69.8947L43.4984 69.795L43.6102 69.161L43.7092 69.217C43.6154 69.3371 43.4997 69.4363 43.362 69.5146C43.2243 69.5928 43.0696 69.6467 42.8977 69.6762C42.7259 69.7057 42.5447 69.7037 42.3541 69.6701ZM45.4265 70.1349L45.9196 67.3382L45.2795 67.2254L45.377 66.6722L46.0172 66.7851L46.0588 66.549C46.1012 66.3086 46.1888 66.1148 46.3216 65.9673C46.4585 65.8206 46.6217 65.719 46.811 65.6627C47.0045 65.6071 47.209 65.5983 47.4245 65.6363C47.47 65.6443 47.519 65.6572 47.5714 65.675C47.6287 65.6894 47.6752 65.704 47.7111 65.7189L47.6201 66.2347C47.5884 66.2206 47.5498 66.2095 47.5042 66.2015C47.4594 66.1893 47.4245 66.181 47.3997 66.1766C47.2091 66.143 47.0436 66.1608 46.9032 66.2301C46.767 66.3 46.6803 66.4407 46.643 66.652L46.6014 66.8881L47.3969 67.0284L47.2993 67.5815L46.5038 67.4413L46.0107 70.2379L45.4265 70.1349ZM49.0371 70.8485C48.7139 70.7915 48.4394 70.6641 48.2137 70.4662C47.988 70.2683 47.826 70.024 47.7278 69.7333C47.6303 69.4384 47.6107 69.1252 47.6692 68.7938C47.7283 68.4582 47.8514 68.1723 48.0383 67.9361C48.2293 67.7006 48.4602 67.5299 48.731 67.4238C49.0066 67.3144 49.2977 67.2867 49.6043 67.3407C49.8529 67.3846 50.0644 67.4689 50.239 67.5936C50.4184 67.715 50.5608 67.864 50.6664 68.0407C50.7768 68.2139 50.8501 68.4041 50.8862 68.6113C50.9271 68.815 50.9294 69.0205 50.8928 69.2276C50.8848 69.2732 50.8715 69.3243 50.853 69.3808C50.8394 69.4339 50.824 69.4846 50.807 69.5329L48.06 69.0485L48.1477 68.5513L50.559 68.9765L50.2461 69.152C50.3214 68.9432 50.3347 68.7469 50.2859 68.5631C50.2371 68.3794 50.1449 68.2242 50.0091 68.0978C49.8733 67.9713 49.7081 67.8909 49.5133 67.8566C49.3186 67.8222 49.1317 67.8405 48.9526 67.9115C48.7734 67.9824 48.6219 68.1031 48.4978 68.2735C48.3787 68.4404 48.3051 68.6517 48.2771 68.9074C48.2175 69.1489 48.2168 69.3709 48.275 69.5735C48.3382 69.7726 48.4456 69.9389 48.5972 70.0724C48.7536 70.2025 48.9334 70.2855 49.1364 70.3213C49.3602 70.3607 49.5578 70.3422 49.7294 70.2656C49.9009 70.1891 50.0486 70.0784 50.1724 69.9336L50.6133 70.2677C50.52 70.4093 50.3916 70.5319 50.2281 70.6355C50.0694 70.7357 49.8882 70.8063 49.6845 70.8473C49.4849 70.889 49.2691 70.8894 49.0371 70.8485ZM53.6181 71.6562C53.3985 71.6175 53.2107 71.5438 53.0547 71.4351C52.9036 71.323 52.7928 71.1882 52.7224 71.0305C52.6526 70.8687 52.6342 70.6945 52.6671 70.5081C52.6985 70.3299 52.7639 70.177 52.8633 70.0493C52.9676 69.9181 53.1093 69.8171 53.2884 69.7462C53.4717 69.6759 53.6913 69.642 53.9472 69.6444L55.2263 69.6585L55.1409 70.1433L53.9955 70.1336C53.7735 70.1329 53.604 70.1735 53.487 70.2554C53.3742 70.338 53.305 70.4518 53.2794 70.5968C53.2553 70.7336 53.2891 70.857 53.3807 70.9672C53.4765 71.078 53.6073 71.1481 53.773 71.1773C53.9843 71.2146 54.1743 71.2032 54.3429 71.1432C54.5165 71.0798 54.6602 70.9792 54.7743 70.8412C54.8925 70.704 54.968 70.5421 55.0009 70.3557L55.151 69.5043C55.1831 69.322 55.1407 69.1628 55.0237 69.0268C54.9116 68.8875 54.7457 68.7984 54.5261 68.7597C54.3355 68.7261 54.1569 68.7458 53.9902 68.819C53.8284 68.8887 53.698 68.9981 53.5991 69.1473L53.1417 68.7975C53.2309 68.6552 53.3544 68.536 53.5124 68.4399C53.671 68.3398 53.8477 68.2705 54.0424 68.2322C54.2371 68.1939 54.4339 68.1923 54.6328 68.2274C54.8897 68.2727 55.1067 68.3622 55.2839 68.496C55.4619 68.6256 55.5893 68.7869 55.6664 68.98C55.7483 69.1696 55.7692 69.3783 55.729 69.6062L55.3279 71.8808L54.7623 71.7811L54.8741 71.1472L54.9732 71.2031C54.8794 71.3233 54.7636 71.4225 54.626 71.5007C54.4883 71.579 54.3335 71.6329 54.1617 71.6624C53.9899 71.6919 53.8087 71.6898 53.6181 71.6562ZM56.3484 72.0607L56.939 68.7109L57.5046 68.8107L57.3895 69.4632L57.3061 69.3908C57.4263 69.1942 57.5877 69.0539 57.7905 68.97C57.9981 68.8827 58.2262 68.861 58.4748 68.9048C58.7151 68.9472 58.919 69.0387 59.0864 69.1793C59.258 69.3206 59.3809 69.4961 59.455 69.7057C59.5333 69.916 59.5512 70.1413 59.5088 70.3816L59.1264 72.5506L58.5422 72.4476L58.8918 70.465C58.9247 70.2786 58.9193 70.1153 58.8756 69.9752C58.832 69.835 58.7542 69.7188 58.6423 69.6265C58.5353 69.5307 58.4031 69.4689 58.2457 69.4412C58.0882 69.4134 57.9408 69.4259 57.8033 69.4785C57.6708 69.5278 57.5576 69.6125 57.4638 69.7326C57.3707 69.8487 57.3081 69.9978 57.2759 70.1801L56.9263 72.1627L56.3484 72.0607ZM61.5872 73.0614C61.2724 73.0059 61.0021 72.8792 60.7764 72.6813C60.5548 72.4842 60.3949 72.2403 60.2966 71.9495C60.1984 71.6588 60.1781 71.3498 60.2358 71.0224C60.295 70.6868 60.4201 70.4013 60.6111 70.1658C60.8029 69.9263 61.0366 69.7517 61.3122 69.6423C61.592 69.5335 61.8893 69.5069 62.2042 69.5624C62.4818 69.6114 62.7177 69.7149 62.912 69.8731C63.107 70.0271 63.2491 70.2145 63.3383 70.4353L63.2199 70.5618L63.5859 68.486L64.1701 68.589L63.3406 73.2937L62.775 73.1939L62.901 72.4792L62.9581 72.5918C62.8033 72.791 62.6035 72.9309 62.3586 73.0116C62.1178 73.093 61.8607 73.1096 61.5872 73.0614ZM61.7356 72.5108C61.9469 72.5481 62.1446 72.5295 62.3285 72.4552C62.5125 72.3808 62.6679 72.263 62.7946 72.1016C62.9262 71.9368 63.0117 71.7426 63.0511 71.5189C63.0913 71.291 63.0774 71.0792 63.0094 70.8835C62.9462 70.6844 62.8409 70.5184 62.6935 70.3856C62.546 70.2528 62.3666 70.1678 62.1553 70.1305C61.9481 70.094 61.7501 70.1146 61.5613 70.1924C61.3773 70.2668 61.2219 70.3846 61.0952 70.546C60.9692 70.7032 60.8858 70.8978 60.8449 71.1298C60.8054 71.3536 60.8173 71.565 60.8804 71.7641C60.9443 71.9591 61.05 72.1229 61.1974 72.2557C61.3449 72.3885 61.5243 72.4736 61.7356 72.5108ZM67.0986 74.0332C66.7713 73.9755 66.4927 73.8473 66.2628 73.6487C66.0371 73.4509 65.8751 73.2066 65.7769 72.9158C65.6786 72.6251 65.6587 72.314 65.7172 71.9825C65.7763 71.6469 65.9014 71.3614 66.0925 71.1259C66.2835 70.8905 66.5189 70.7184 66.7987 70.6097C67.0826 70.5017 67.3882 70.4765 67.7155 70.5342C67.9351 70.5729 68.1333 70.6485 68.31 70.7608C68.4867 70.8731 68.6359 71.0084 68.7575 71.1665C68.8791 71.3247 68.9574 71.4987 68.9923 71.6885L68.4326 71.8462C68.3846 71.6583 68.2893 71.4962 68.1467 71.36C68.0048 71.2196 67.8282 71.1308 67.6169 71.0936C67.4139 71.0578 67.2204 71.077 67.0364 71.1514C66.8565 71.2265 66.7033 71.3447 66.5766 71.5061C66.4498 71.6674 66.366 71.8641 66.3251 72.0961C66.2857 72.3199 66.2975 72.5313 66.3607 72.7304C66.4246 72.9254 66.5282 73.0889 66.6715 73.221C66.8189 73.3538 66.9942 73.4381 67.1972 73.4739C67.4085 73.5111 67.6045 73.4901 67.785 73.4109C67.9663 73.3275 68.1124 73.2016 68.2233 73.0332L68.6931 73.3852C68.5961 73.5475 68.4631 73.6843 68.294 73.7954C68.1256 73.9024 67.9391 73.9785 67.7347 74.0236C67.5302 74.0687 67.3182 74.0719 67.0986 74.0332ZM71.0049 74.722C70.6817 74.665 70.4027 74.5389 70.168 74.3437C69.934 74.1444 69.7638 73.8986 69.6572 73.6064C69.5507 73.3142 69.527 73.0003 69.5862 72.6647C69.6453 72.3291 69.7725 72.044 69.9677 71.8093C70.167 71.5753 70.4107 71.4046 70.6988 71.2974C70.9868 71.1901 71.2945 71.1653 71.6218 71.223C71.945 71.28 72.2236 71.4082 72.4576 71.6075C72.6923 71.8027 72.8612 72.0439 72.9644 72.3312C73.0716 72.6193 73.0953 72.9332 73.0354 73.2729C72.9755 73.6127 72.8434 73.9013 72.6392 74.1387C72.4358 74.3719 72.19 74.5422 71.902 74.6495C71.6188 74.7533 71.3197 74.7775 71.0049 74.722ZM71.1035 74.1626C71.3106 74.1992 71.5062 74.1803 71.6902 74.1059C71.8784 74.0323 72.0361 73.9127 72.1636 73.7472C72.2952 73.5824 72.3807 73.3882 72.4201 73.1645C72.4603 72.9366 72.446 72.7269 72.3773 72.5353C72.3134 72.3403 72.2057 72.1761 72.054 72.0426C71.9073 71.9056 71.7304 71.8189 71.5232 71.7824C71.3119 71.7451 71.1118 71.7653 70.9229 71.8431C70.7389 71.9175 70.5815 72.035 70.4507 72.1956C70.3205 72.3521 70.2354 72.5443 70.1952 72.7721C70.1558 72.9959 70.1697 73.2077 70.237 73.4075C70.3043 73.6073 70.4116 73.7737 70.5591 73.9065C70.7107 74.04 70.8922 74.1254 71.1035 74.1626ZM73.6177 75.1058L74.2083 71.756L74.7739 71.8557L74.6533 72.5393L74.5912 72.4194C74.7113 72.2227 74.8724 72.0845 75.0744 72.0048C75.2764 71.9251 75.4914 71.9053 75.7193 71.9455C75.9803 71.9915 76.2016 72.1053 76.3832 72.2869C76.5689 72.4691 76.6803 72.6853 76.7174 72.9353L76.5547 72.9131C76.6878 72.6674 76.8696 72.4965 77.1001 72.4004C77.3314 72.3002 77.5734 72.2724 77.8261 72.317C78.0581 72.3579 78.2579 72.4487 78.4253 72.5893C78.5969 72.7306 78.7218 72.9064 78.8001 73.1167C78.8784 73.327 78.8963 73.5524 78.8539 73.7927L78.4715 75.9617L77.8873 75.8586L78.2369 73.8761C78.2697 73.6897 78.2643 73.5264 78.2207 73.3862C78.1771 73.2461 78.1034 73.1306 77.9999 73.0397C77.9011 72.9454 77.7751 72.8847 77.6218 72.8577C77.4727 72.8314 77.3314 72.8449 77.1981 72.8983C77.0697 72.9483 76.9586 73.0334 76.8648 73.1536C76.7758 73.2703 76.7153 73.4198 76.6831 73.6021L76.3336 75.5847L75.7494 75.4817L76.0989 73.4991C76.1318 73.3127 76.1264 73.1494 76.0828 73.0093C76.0391 72.8691 75.9655 72.7536 75.8619 72.6627C75.7632 72.5684 75.6372 72.5078 75.4839 72.4807C75.3348 72.4544 75.1935 72.468 75.0602 72.5214C74.9318 72.5713 74.8207 72.6564 74.7269 72.7766C74.6379 72.8933 74.5774 73.0429 74.5452 73.2252L74.1957 75.2077L73.6177 75.1058ZM79.7709 76.1908L80.2641 73.3941L79.6239 73.2812L79.7215 72.7281L80.3616 72.841L80.4032 72.6048C80.4456 72.3645 80.5332 72.1706 80.666 72.0231C80.8029 71.8764 80.9661 71.7749 81.1554 71.7186C81.3489 71.663 81.5534 71.6542 81.7689 71.6921C81.8144 71.7002 81.8634 71.7131 81.9158 71.7309C81.9731 71.7452 82.0197 71.7599 82.0555 71.7747L81.9645 72.2906C81.9329 72.2764 81.8942 72.2653 81.8486 72.2573C81.8038 72.2451 81.7689 72.2368 81.7441 72.2325C81.5535 72.1989 81.388 72.2167 81.2476 72.2859C81.1114 72.3559 81.0247 72.4965 80.9874 72.7078L80.9458 72.944L81.7413 73.0842L81.6438 73.6374L80.8482 73.4971L80.3551 76.2938L79.7709 76.1908ZM83.4312 76.9131C83.108 76.8561 82.8291 76.73 82.5943 76.5348C82.3604 76.3355 82.1901 76.0897 82.0835 75.7975C81.977 75.5053 81.9533 75.1914 82.0125 74.8558C82.0717 74.5202 82.1988 74.2351 82.394 74.0004C82.5934 73.7664 82.837 73.5957 83.1251 73.4884C83.4132 73.3812 83.7208 73.3564 84.0482 73.4141C84.3713 73.4711 84.6499 73.5992 84.8839 73.7986C85.1186 73.9938 85.2876 74.235 85.3907 74.5223C85.498 74.8104 85.5216 75.1243 85.4617 75.464C85.4018 75.8038 85.2698 76.0924 85.0656 76.3298C84.8621 76.563 84.6164 76.7333 84.3283 76.8406C84.0451 76.9444 83.7461 76.9686 83.4312 76.9131ZM83.5298 76.3537C83.737 76.3903 83.9326 76.3714 84.1166 76.297C84.3047 76.2234 84.4625 76.1038 84.5899 75.9383C84.7215 75.7735 84.807 75.5793 84.8465 75.3555C84.8866 75.1277 84.8724 74.918 84.8036 74.7264C84.7397 74.5314 84.632 74.3672 84.4804 74.2337C84.3336 74.0967 84.1567 74.01 83.9495 73.9734C83.7382 73.9362 83.5381 73.9564 83.3493 74.0342C83.1653 74.1086 83.0079 74.2261 82.877 74.3867C82.7469 74.5432 82.6617 74.7354 82.6215 74.9632C82.5821 75.187 82.596 75.3988 82.6633 75.5986C82.7306 75.7984 82.838 75.9647 82.9854 76.0976C83.1371 76.2311 83.3185 76.3165 83.5298 76.3537ZM86.044 77.2969L86.6347 73.9471L87.2002 74.0468L87.0917 74.6621L87.0449 74.5641C87.1573 74.3874 87.3022 74.2677 87.4799 74.2051C87.6583 74.1383 87.8635 74.1253 88.0955 74.1662L88.3006 74.2024L88.2042 74.7493L87.9121 74.6978C87.6759 74.6561 87.4722 74.6971 87.3009 74.8207C87.1303 74.9401 87.0212 75.1345 86.9738 75.4038L86.622 77.3988L86.044 77.2969ZM89.7259 77.9846C89.3986 77.9268 89.1623 77.7891 89.017 77.5712C88.8759 77.3541 88.8352 77.0756 88.8952 76.7359L89.2064 74.9709L88.5973 74.8635L88.6948 74.3103L88.8191 74.3323C88.9683 74.3586 89.0944 74.3338 89.1975 74.258C89.3006 74.1822 89.3653 74.0697 89.3916 73.9205L89.4398 73.6471L90.0178 73.749L89.8819 74.5197L90.6339 74.6522L90.5364 75.2054L89.7844 75.0728L89.4764 76.8192C89.4567 76.931 89.4561 77.0313 89.4746 77.12C89.4973 77.2095 89.5457 77.2863 89.6198 77.3507C89.6946 77.4109 89.8004 77.453 89.9371 77.4771C89.9661 77.4822 90.0017 77.4864 90.0439 77.4895C90.0902 77.4934 90.1324 77.4966 90.1704 77.499L90.0805 78.0086C90.0245 78.0116 89.9629 78.0093 89.8959 78.0017C89.8281 77.9983 89.7715 77.9926 89.7259 77.9846ZM91.8861 78.4039C91.6665 78.3652 91.4787 78.2915 91.3228 78.1828C91.1716 78.0707 91.0609 77.9359 90.9904 77.7782C90.9207 77.6164 90.9022 77.4422 90.9351 77.2558C90.9665 77.0776 91.032 76.9247 91.1314 76.797C91.2357 76.6658 91.3774 76.5648 91.5565 76.4938C91.7397 76.4236 91.9593 76.3897 92.2152 76.3921L93.4944 76.4062L93.4089 76.891L92.2636 76.8813C92.0415 76.8806 91.872 76.9212 91.7551 77.0031C91.6422 77.0857 91.573 77.1995 91.5475 77.3445C91.5234 77.4813 91.5571 77.6047 91.6488 77.7148C91.7446 77.8257 91.8753 77.8958 92.0411 77.925C92.2524 77.9623 92.4423 77.9509 92.611 77.8909C92.7845 77.8275 92.9283 77.7269 93.0423 77.5889C93.1605 77.4517 93.236 77.2898 93.2689 77.1034L93.419 76.2519C93.4512 76.0696 93.4088 75.9105 93.2918 75.7745C93.1796 75.6351 93.0138 75.5461 92.7942 75.5074C92.6036 75.4738 92.4249 75.4935 92.2583 75.5667C92.0964 75.6364 91.9661 75.7458 91.8671 75.895L91.4098 75.5452C91.4989 75.4029 91.6225 75.2837 91.7804 75.1876C91.939 75.0874 92.1157 75.0182 92.3104 74.9799C92.5052 74.9416 92.702 74.94 92.9008 74.9751C93.1577 75.0204 93.3748 75.1099 93.552 75.2437C93.7299 75.3733 93.8574 75.5346 93.9344 75.7276C94.0163 75.9172 94.0372 76.126 93.997 76.3539L93.5959 78.6285L93.0304 78.5288L93.1422 77.8949L93.2412 77.9508C93.1474 78.0709 93.0317 78.1702 92.894 78.2484C92.7563 78.3267 92.6016 78.3805 92.4297 78.4101C92.2579 78.4396 92.0767 78.4375 91.8861 78.4039ZM96.3372 79.1888C96.0679 79.1413 95.832 79.0377 95.6294 78.8781C95.431 78.7192 95.2911 78.5194 95.2096 78.2786L95.308 78.1934L95.1819 78.9082L94.6164 78.8084L95.446 74.1038L96.0239 74.2057L95.6579 76.2815L95.5961 76.1232C95.7555 75.9462 95.9531 75.8187 96.189 75.7407C96.4257 75.6585 96.6828 75.6419 96.9604 75.6909C97.2753 75.7464 97.5435 75.8727 97.765 76.0699C97.9908 76.2677 98.1527 76.512 98.251 76.8028C98.35 77.0894 98.3699 77.4005 98.3107 77.7361C98.253 78.0634 98.1283 78.3468 97.9365 78.5864C97.7447 78.826 97.5089 79.0002 97.2292 79.1089C96.9536 79.2184 96.6562 79.245 96.3372 79.1888ZM96.3923 78.6217C96.6036 78.659 96.8013 78.6405 96.9853 78.5661C97.1693 78.4917 97.3225 78.3735 97.4451 78.2114C97.5725 78.0459 97.656 77.8513 97.6954 77.6276C97.7364 77.3956 97.7245 77.1841 97.6599 76.9933C97.6002 76.7991 97.4966 76.6356 97.3491 76.5028C97.2024 76.3658 97.0233 76.2787 96.812 76.2415C96.6007 76.2042 96.401 76.2224 96.2129 76.296C96.0289 76.3704 95.8711 76.4899 95.7395 76.6547C95.6128 76.8161 95.5293 77.0107 95.4892 77.2386C95.4497 77.4623 95.4616 77.6737 95.5247 77.8728C95.5927 78.0685 95.7005 78.2328 95.8479 78.3656C95.9996 78.4991 96.181 78.5845 96.3923 78.6217ZM98.8981 79.5634L99.7276 74.8588L100.306 74.9607L99.4761 79.6653L98.8981 79.5634ZM102.025 80.1917C101.702 80.1347 101.428 80.0073 101.202 79.8095C100.976 79.6116 100.814 79.3673 100.716 79.0766C100.619 78.7817 100.599 78.4685 100.657 78.137C100.717 77.8014 100.84 77.5155 101.027 77.2794C101.218 77.0439 101.448 76.8732 101.719 76.7671C101.995 76.6576 102.286 76.6299 102.593 76.684C102.841 76.7278 103.053 76.8121 103.227 76.9369C103.407 77.0582 103.549 77.2072 103.655 77.3839C103.765 77.5572 103.838 77.7474 103.874 77.9545C103.915 78.1583 103.918 78.3637 103.881 78.5709C103.873 78.6165 103.86 78.6675 103.841 78.7241C103.828 78.7772 103.812 78.8279 103.795 78.8762L101.048 78.3918L101.136 77.8946L103.547 78.3198L103.234 78.4953C103.31 78.2864 103.323 78.0901 103.274 77.9064C103.225 77.7226 103.133 77.5675 102.997 77.441C102.862 77.3146 102.696 77.2342 102.502 77.1998C102.307 77.1655 102.12 77.1838 101.941 77.2547C101.762 77.3257 101.61 77.4463 101.486 77.6167C101.367 77.7837 101.293 77.995 101.265 78.2507C101.206 78.4922 101.205 78.7142 101.263 78.9167C101.326 79.1158 101.434 79.2822 101.585 79.4157C101.742 79.5458 101.922 79.6288 102.125 79.6646C102.348 79.704 102.546 79.6855 102.718 79.6089C102.889 79.5324 103.037 79.4217 103.161 79.2769L103.602 79.611C103.508 79.7526 103.38 79.8752 103.216 79.9788C103.058 80.079 102.877 80.1496 102.673 80.1905C102.473 80.2322 102.257 80.2326 102.025 80.1917ZM105.992 80.8142L106.485 78.0175L105.845 77.9047L105.942 77.3515L106.582 77.4644L106.624 77.2283C106.667 76.9879 106.754 76.7941 106.887 76.6466C107.024 76.4999 107.187 76.3983 107.376 76.342C107.57 76.2864 107.774 76.2776 107.99 76.3156C108.035 76.3236 108.084 76.3365 108.137 76.3543C108.194 76.3687 108.241 76.3833 108.276 76.3982L108.185 76.914C108.154 76.8999 108.115 76.8888 108.07 76.8808C108.025 76.8686 107.99 76.8603 107.965 76.8559C107.774 76.8223 107.609 76.8401 107.469 76.9094C107.332 76.9793 107.246 77.12 107.208 77.3313L107.167 77.5674L107.962 77.7077L107.865 78.2608L107.069 78.1206L106.576 80.9172L105.992 80.8142ZM109.061 81.4324C108.842 81.3936 108.654 81.3199 108.498 81.2113C108.347 81.0992 108.236 80.9643 108.166 80.8066C108.096 80.6448 108.077 80.4707 108.11 80.2842C108.142 80.1061 108.207 79.9531 108.306 79.8254C108.411 79.6943 108.552 79.5932 108.732 79.5223C108.915 79.4521 109.134 79.4182 109.39 79.4206L110.669 79.4346L110.584 79.9194L109.439 79.9097C109.217 79.909 109.047 79.9496 108.93 80.0315C108.817 80.1141 108.748 80.228 108.723 80.373C108.698 80.5097 108.732 80.6331 108.824 80.7433C108.92 80.8542 109.05 80.9242 109.216 80.9534C109.427 80.9907 109.617 80.9793 109.786 80.9194C109.96 80.856 110.103 80.7553 110.217 80.6173C110.336 80.4801 110.411 80.3183 110.444 80.1318L110.594 79.2804C110.626 79.0981 110.584 78.9389 110.467 78.803C110.355 78.6636 110.189 78.5745 109.969 78.5358C109.779 78.5022 109.6 78.522 109.433 78.5951C109.272 78.6648 109.141 78.7743 109.042 78.9234L108.585 78.5736C108.674 78.4313 108.798 78.3121 108.956 78.2161C109.114 78.1159 109.291 78.0466 109.486 78.0084C109.68 77.9701 109.877 77.9684 110.076 78.0035C110.333 78.0488 110.55 78.1383 110.727 78.2721C110.905 78.4018 111.033 78.5631 111.11 78.7561C111.191 78.9457 111.212 79.1544 111.172 79.3823L110.771 81.6569L110.206 81.5572L110.317 80.9233L110.416 80.9792C110.323 81.0994 110.207 81.1986 110.069 81.2768C109.931 81.3551 109.777 81.409 109.605 81.4385C109.433 81.468 109.252 81.466 109.061 81.4324ZM113.332 82.1854C113.005 82.1277 112.726 81.9995 112.496 81.8009C112.271 81.6031 112.109 81.3588 112.01 81.068C111.912 80.7773 111.892 80.4662 111.951 80.1348C112.01 79.7991 112.135 79.5136 112.326 79.2782C112.517 79.0427 112.752 78.8706 113.032 78.7619C113.316 78.6539 113.622 78.6287 113.949 78.6864C114.169 78.7252 114.367 78.8007 114.543 78.913C114.72 79.0253 114.869 79.1606 114.991 79.3187C115.113 79.4769 115.191 79.6509 115.226 79.8407L114.666 79.9984C114.618 79.8105 114.523 79.6484 114.38 79.5122C114.238 79.3718 114.062 79.283 113.85 79.2458C113.647 79.21 113.454 79.2293 113.27 79.3036C113.09 79.3787 112.937 79.4969 112.81 79.6583C112.683 79.8196 112.6 80.0163 112.559 80.2484C112.519 80.4721 112.531 80.6835 112.594 80.8826C112.658 81.0776 112.762 81.2411 112.905 81.3732C113.052 81.506 113.228 81.5903 113.431 81.6261C113.642 81.6633 113.838 81.6423 114.019 81.5631C114.2 81.4797 114.346 81.3538 114.457 81.1854L114.927 81.5374C114.83 81.6997 114.697 81.8365 114.527 81.9476C114.359 82.0546 114.173 82.1307 113.968 82.1758C113.764 82.2209 113.552 82.2241 113.332 82.1854ZM115.661 82.5191L116.251 79.1693L116.829 79.2712L116.238 82.621L115.661 82.5191ZM116.345 78.6348L116.477 77.889L117.055 77.9909L116.923 78.7367L116.345 78.6348ZM117.26 82.801L118.089 78.0964L118.667 78.1983L117.838 82.903L117.26 82.801ZM118.859 83.083L119.449 79.7332L120.027 79.8351L119.437 83.1849L118.859 83.083ZM119.544 79.1987L119.675 78.4529L120.253 78.5549L120.122 79.3006L119.544 79.1987ZM121.812 83.6423C121.485 83.5845 121.249 83.4468 121.103 83.2289C120.962 83.0118 120.922 82.7333 120.982 82.3936L121.293 80.6286L120.684 80.5212L120.781 79.968L120.906 79.99C121.055 80.0163 121.181 79.9915 121.284 79.9157C121.387 79.8399 121.452 79.7274 121.478 79.5783L121.526 79.3048L122.104 79.4067L121.968 80.1774L122.72 80.31L122.623 80.8631L121.871 80.7305L121.563 82.4769C121.543 82.5887 121.543 82.689 121.561 82.7777C121.584 82.8672 121.632 82.944 121.706 83.0084C121.781 83.0686 121.887 83.1107 122.024 83.1348C122.053 83.1399 122.088 83.1441 122.13 83.1472C122.177 83.1511 122.219 83.1543 122.257 83.1567L122.167 83.6663C122.111 83.6693 122.049 83.667 121.982 83.6594C121.915 83.656 121.858 83.6503 121.812 83.6423ZM123.046 83.8214L123.637 80.4716L124.215 80.5735L123.624 83.9233L123.046 83.8214ZM123.731 79.9371L123.863 79.1913L124.441 79.2932L124.309 80.039L123.731 79.9371ZM126.173 84.4497C125.85 84.3927 125.576 84.2653 125.35 84.0674C125.124 83.8696 124.962 83.6253 124.864 83.3345C124.767 83.0396 124.747 82.7265 124.806 82.395C124.865 82.0594 124.988 81.7735 125.175 81.5373C125.366 81.3019 125.597 81.1311 125.867 81.0251C126.143 80.9156 126.434 80.8879 126.741 80.942C126.989 80.9858 127.201 81.0701 127.375 81.1949C127.555 81.3162 127.697 81.4652 127.803 81.6419C127.913 81.8152 127.987 82.0054 128.023 82.2125C128.064 82.4163 128.066 82.6217 128.029 82.8289C128.021 82.8744 128.008 82.9255 127.989 82.982C127.976 83.0352 127.96 83.0859 127.943 83.1341L125.196 82.6498L125.284 82.1526L127.695 82.5778L127.383 82.7533C127.458 82.5444 127.471 82.3481 127.422 82.1643C127.374 81.9806 127.281 81.8255 127.146 81.699C127.01 81.5725 126.845 81.4921 126.65 81.4578C126.455 81.4235 126.268 81.4418 126.089 81.5127C125.91 81.5837 125.758 81.7043 125.634 81.8747C125.515 82.0417 125.442 82.253 125.414 82.5086C125.354 82.7502 125.353 82.9722 125.411 83.1747C125.475 83.3738 125.582 83.5401 125.734 83.6737C125.89 83.8038 126.07 83.8867 126.273 83.9225C126.497 83.962 126.694 83.9434 126.866 83.8669C127.037 83.7903 127.185 83.6797 127.309 83.5349L127.75 83.869C127.656 84.0106 127.528 84.1332 127.364 84.2368C127.206 84.337 127.025 84.4075 126.821 84.4485C126.621 84.4902 126.406 84.4906 126.173 84.4497ZM129.774 85.0845C129.438 85.0253 129.16 84.8909 128.941 84.6814C128.722 84.4718 128.585 84.217 128.531 83.917L129.03 83.7744C129.091 83.9901 129.193 84.1705 129.339 84.3157C129.484 84.461 129.658 84.5515 129.861 84.5873C130.043 84.6194 130.202 84.6026 130.338 84.5368C130.473 84.471 130.554 84.3676 130.578 84.2267C130.596 84.1273 130.581 84.0435 130.533 83.9752C130.49 83.9036 130.432 83.8442 130.359 83.7972C130.287 83.7461 130.219 83.7063 130.156 83.6781L129.678 83.4464C129.391 83.306 129.191 83.1426 129.079 82.9562C128.97 82.7705 128.935 82.57 128.973 82.3545C129.008 82.1556 129.088 81.9925 129.213 81.865C129.343 81.7341 129.503 81.6425 129.691 81.5904C129.884 81.5389 130.09 81.5325 130.31 81.5713C130.604 81.6231 130.854 81.7441 131.06 81.9342C131.269 82.125 131.4 82.3638 131.452 82.6506L130.942 82.7849C130.898 82.5977 130.81 82.4413 130.678 82.3155C130.547 82.1856 130.389 82.1043 130.202 82.0714C130.032 82.0414 129.89 82.0612 129.775 82.1307C129.661 82.196 129.593 82.2929 129.57 82.4213C129.553 82.5166 129.564 82.5997 129.603 82.6706C129.643 82.7374 129.695 82.7936 129.759 82.8391C129.825 82.8806 129.889 82.9175 129.951 82.9499L130.47 83.2079C130.729 83.3348 130.919 83.4943 131.039 83.6864C131.163 83.8791 131.205 84.0915 131.164 84.3235C131.131 84.51 131.049 84.6686 130.92 84.7995C130.79 84.9304 130.626 85.0212 130.429 85.072C130.232 85.1227 130.014 85.1269 129.774 85.0845ZM132.122 85.4217L132.253 84.6759L132.856 84.7822L132.725 85.528L132.122 85.4217Z" fill="white"/>
<rect x="23.0135" y="76.2239" width="47.3306" height="17.3545" rx="1.57769" transform="rotate(10 23.0135 76.2239)" fill="#5CAFFC"/>
<path d="M29.5788 88.4946L30.3952 83.8645L32.0794 84.1615C32.3902 84.2163 32.6534 84.3225 32.8691 84.4802C33.0855 84.6337 33.2407 84.8319 33.3346 85.0749C33.4333 85.3144 33.456 85.5854 33.4027 85.8879C33.3464 86.2069 33.2174 86.4661 33.0156 86.6655C32.818 86.8656 32.5754 86.9937 32.2878 87.0498L33.028 89.1028L32.1952 88.9559L31.4141 86.7356L31.8433 87.0996L30.619 86.8837L30.3121 88.6239L29.5788 88.4946ZM30.734 86.2312L31.6973 86.401C31.8672 86.431 32.0202 86.4238 32.1561 86.3794C32.2921 86.335 32.4035 86.2607 32.4902 86.1564C32.5819 86.0486 32.6419 85.914 32.6704 85.7524C32.6989 85.5908 32.6882 85.4458 32.6382 85.3173C32.5931 85.1855 32.5139 85.0775 32.4005 84.9935C32.2879 84.9053 32.1467 84.8462 31.9768 84.8162L31.0135 84.6464L30.734 86.2312ZM34.9541 89.5193C34.6185 89.4601 34.3337 89.3309 34.0997 89.1315C33.8706 88.9288 33.7069 88.6821 33.6086 88.3913C33.5111 88.0964 33.4915 87.7833 33.55 87.4518C33.6099 87.1121 33.7354 86.8245 33.9264 86.589C34.1216 86.3543 34.3566 86.1843 34.6315 86.0789C34.9072 85.9695 35.2024 85.9425 35.5173 85.998C35.77 86.0426 35.9882 86.1259 36.1717 86.248C36.3552 86.3701 36.5019 86.5198 36.6115 86.6972C36.722 86.8705 36.7952 87.0607 36.8313 87.2678C36.8716 87.4757 36.8723 87.6895 36.8336 87.9091C36.8241 87.9629 36.8122 88.0185 36.7978 88.0758C36.7834 88.133 36.7657 88.1854 36.7445 88.233L34.0659 87.7607L34.1645 87.2013L36.4453 87.6035L36.0648 87.7991C36.142 87.6034 36.1593 87.4206 36.1166 87.2508C36.0788 87.0775 35.9975 86.9329 35.8727 86.8169C35.7528 86.6975 35.5996 86.6213 35.4132 86.5884C35.2267 86.5556 35.0526 86.574 34.8908 86.6437C34.7297 86.7093 34.5945 86.8222 34.4851 86.9823C34.3764 87.1383 34.3088 87.34 34.2822 87.5873C34.2214 87.8116 34.2174 88.0159 34.2703 88.2004C34.3273 88.3856 34.4241 88.5394 34.5606 88.6617C34.7012 88.7848 34.871 88.8638 35.0699 88.8989C35.2729 88.9347 35.4529 88.9194 35.6098 88.8531C35.7709 88.7875 35.9057 88.6896 36.0141 88.5592L36.5366 88.9396C36.4425 89.0854 36.3137 89.2101 36.1502 89.3137C35.9916 89.4139 35.8083 89.4841 35.6004 89.5243C35.3974 89.5611 35.182 89.5595 34.9541 89.5193ZM37.2001 89.8384L37.793 86.4762L38.4642 86.5945L38.348 87.2533L38.2826 87.1521C38.4027 86.9554 38.5634 86.8192 38.7647 86.7437C38.9667 86.6639 39.1879 86.6453 39.4282 86.6876C39.6768 86.7315 39.8869 86.824 40.0585 86.9654C40.2301 87.1067 40.3529 87.2822 40.427 87.4917C40.5012 87.7013 40.5163 87.9304 40.4725 88.179L40.09 90.348L39.394 90.2253L39.7435 88.2427C39.7735 88.0729 39.7676 87.9244 39.7259 87.7975C39.685 87.6663 39.612 87.5595 39.5069 87.4769C39.4067 87.3909 39.2841 87.3351 39.1391 87.3095C38.9941 87.2839 38.8577 87.2941 38.73 87.3399C38.6072 87.3823 38.5041 87.4581 38.4208 87.5673C38.3375 87.6765 38.2812 87.814 38.252 87.9797L37.9024 89.9623L37.2001 89.8384ZM42.2893 90.7742C41.9372 90.7122 41.6812 90.5645 41.5216 90.3313C41.3619 90.0981 41.3139 89.8012 41.3774 89.4408L41.6645 87.8125L41.0741 87.7084L41.1859 87.0745L41.2791 87.0909C41.4366 87.1187 41.5668 87.0946 41.6699 87.0188C41.773 86.943 41.8384 86.8264 41.8662 86.6689L41.9122 86.4079L42.6145 86.5317L42.4786 87.3024L43.243 87.4372L43.1312 88.0711L42.3668 87.9363L42.0852 89.5335C42.0647 89.6495 42.0658 89.7523 42.0885 89.8417C42.1119 89.927 42.161 89.9997 42.2359 90.0599C42.3114 90.116 42.4155 90.1557 42.5481 90.1791C42.5812 90.1849 42.6189 90.1894 42.661 90.1926C42.7032 90.1957 42.7433 90.1985 42.7813 90.201L42.675 90.8038C42.6156 90.8019 42.5499 90.7988 42.478 90.7947C42.4061 90.7906 42.3432 90.7837 42.2893 90.7742ZM44.3237 91.1714C44.0958 91.1312 43.9018 91.0564 43.7416 90.947C43.5864 90.8342 43.4735 90.699 43.4031 90.5413C43.3333 90.3795 43.3156 90.2012 43.35 90.0065C43.3821 89.8242 43.4503 89.6674 43.5546 89.5363C43.6631 89.4059 43.811 89.306 43.9984 89.2365C44.1858 89.167 44.4116 89.1342 44.6758 89.138L45.8782 89.1514L45.7806 89.7045L44.7172 89.7028C44.5249 89.7031 44.3776 89.7391 44.2752 89.8108C44.1736 89.8783 44.1111 89.9783 44.0877 90.1109C44.0651 90.2394 44.0941 90.3534 44.1748 90.4531C44.2603 90.5493 44.3798 90.611 44.5331 90.638C44.7237 90.6716 44.8967 90.6594 45.0522 90.6014C45.2118 90.5441 45.343 90.454 45.4459 90.3312C45.5494 90.2042 45.6162 90.0557 45.6461 89.8859L45.7984 89.022C45.8277 88.8563 45.7893 88.7107 45.6832 88.5852C45.5821 88.4563 45.43 88.3739 45.227 88.3381C45.0405 88.3052 44.8681 88.3261 44.7097 88.4007C44.5562 88.4719 44.4327 88.5783 44.3394 88.7199L43.8067 88.3248C43.8981 88.17 44.0252 88.0429 44.188 87.9434C44.3515 87.8398 44.5327 87.7692 44.7315 87.7317C44.9345 87.6949 45.1417 87.6951 45.353 87.7323C45.6182 87.7791 45.8435 87.8701 46.029 88.0053C46.2186 88.1413 46.3536 88.3082 46.4341 88.5061C46.5194 88.7006 46.5416 88.9138 46.5007 89.1458L46.1018 91.408L45.4306 91.2897L45.538 90.6806L45.6777 90.7245C45.5748 90.8473 45.4525 90.9475 45.3107 91.025C45.173 91.1033 45.0207 91.1555 44.8537 91.1816C44.6909 91.2084 44.5143 91.205 44.3237 91.1714ZM46.923 91.5528L47.7525 86.8482L48.4548 86.972L47.6253 91.6767L46.923 91.5528ZM51.7445 92.4799C51.4172 92.4222 51.1233 92.3084 50.8627 92.1386C50.6063 91.9695 50.3931 91.761 50.2232 91.5132C50.0582 91.2619 49.9432 90.9811 49.8784 90.6706C49.8135 90.3601 49.8118 90.0308 49.8731 89.6828C49.9338 89.3389 50.0456 89.0318 50.2086 88.7615C50.3765 88.4878 50.5826 88.2636 50.827 88.0888C51.0722 87.9099 51.3438 87.7869 51.6418 87.7198C51.9406 87.6486 52.2558 87.6422 52.5872 87.7007C52.9145 87.7584 53.1968 87.8658 53.4339 88.023C53.6752 88.1809 53.8689 88.3667 54.0149 88.5804C54.1616 88.79 54.2557 89.0074 54.2972 89.2325L53.5836 89.4271C53.528 89.161 53.4039 88.9319 53.2114 88.7399C53.0237 88.5445 52.7766 88.4197 52.47 88.3657C52.1634 88.3116 51.8792 88.3362 51.6175 88.4396C51.3557 88.543 51.1359 88.7114 50.958 88.9449C50.7843 89.1792 50.6671 89.4682 50.6065 89.8121C50.5458 90.156 50.5567 90.4698 50.6391 90.7535C50.7264 91.0337 50.8754 91.2672 51.086 91.4538C51.2973 91.6363 51.5563 91.7546 51.8629 91.8087C52.1695 91.8628 52.444 91.8321 52.6865 91.7168C52.9331 91.6022 53.128 91.4294 53.2713 91.1984L53.8753 91.6253C53.7601 91.8185 53.5973 91.9906 53.387 92.1415C53.1767 92.2924 52.9311 92.4008 52.6504 92.4666C52.3738 92.5332 52.0718 92.5376 51.7445 92.4799ZM55.2968 93.1063C55.0689 93.0661 54.8749 92.9913 54.7148 92.8819C54.5595 92.7691 54.4466 92.6338 54.3762 92.4761C54.3065 92.3143 54.2888 92.1361 54.3231 91.9413C54.3553 91.759 54.4235 91.6023 54.5278 91.4712C54.6362 91.3408 54.7841 91.2408 54.9715 91.1713C55.1589 91.1019 55.3847 91.069 55.6489 91.0729L56.8513 91.0863L56.7538 91.6394L55.6903 91.6377C55.498 91.638 55.3507 91.6739 55.2483 91.7456C55.1467 91.8131 55.0842 91.9132 55.0608 92.0458C55.0382 92.1742 55.0672 92.2883 55.1479 92.3879C55.2335 92.4842 55.3529 92.5458 55.5062 92.5729C55.6968 92.6065 55.8698 92.5943 56.0253 92.5362C56.1849 92.4789 56.3161 92.3889 56.419 92.266C56.5225 92.139 56.5893 91.9906 56.6192 91.8207L56.7716 90.9569C56.8008 90.7911 56.7624 90.6455 56.6564 90.52C56.5552 90.3911 56.4031 90.3088 56.2001 90.273C56.0136 90.2401 55.8412 90.2609 55.6828 90.3355C55.5293 90.4067 55.4059 90.5131 55.3125 90.6547L54.7798 90.2596C54.8712 90.1049 54.9983 89.9777 55.1611 89.8783C55.3246 89.7747 55.5058 89.7041 55.7047 89.6665C55.9077 89.6297 56.1148 89.6299 56.3261 89.6672C56.5913 89.7139 56.8166 89.8049 57.0021 89.9402C57.1917 90.0761 57.3268 90.2431 57.4072 90.441C57.4926 90.6354 57.5148 90.8487 57.4738 91.0807L57.075 93.3429L56.4038 93.2246L56.5111 92.6155L56.6508 92.6593C56.548 92.7822 56.4256 92.8824 56.2838 92.9599C56.1461 93.0381 55.9938 93.0903 55.8269 93.1164C55.6641 93.1433 55.4874 93.1399 55.2968 93.1063ZM57.8961 93.4877L58.489 90.1255L59.1602 90.2438L59.0407 90.9212L58.9961 90.8108C59.1094 90.6044 59.2573 90.4681 59.4398 90.4021C59.6231 90.3318 59.8308 90.3172 60.0628 90.3581L60.2679 90.3943L60.155 91.0344L59.8629 90.9829C59.6309 90.942 59.4296 90.9812 59.259 91.1007C59.0933 91.2167 58.987 91.4073 58.9403 91.6725L58.5984 93.6115L57.8961 93.4877Z" fill="white"/>
</g>
<defs>
<clipPath id="clip0_20_6338">
<rect x="24.6566" width="252.43" height="141.992" rx="3.94421" transform="rotate(10 24.6566 0)" fill="white"/>
</clipPath>
</defs>
</svg>
