<svg width="274" height="184" viewBox="0 0 274 184" fill="none" xmlns="http://www.w3.org/2000/svg">
<g clip-path="url(#clip0_20_6322)">
<rect x="24.6566" width="252.43" height="141.992" rx="3.94421" transform="rotate(10 24.6566 0)" fill="#5CAFFC"/>
<path d="M32.6754 24.2266L34.0781 16.2716L31.617 15.8376L31.8471 14.5325L38.1863 15.6503L37.9562 16.9554L35.5324 16.528L34.1297 24.4831L32.6754 24.2266ZM37.3891 25.0578L39.0482 15.6485L40.4528 15.8961L39.747 19.8985L39.554 19.685C39.7942 19.2917 40.1157 19.0194 40.5183 18.8682C40.9223 18.7088 41.3646 18.6714 41.8453 18.7562C42.3425 18.8438 42.7626 19.029 43.1058 19.3117C43.449 19.5943 43.6947 19.9452 43.843 20.3644C43.9912 20.7836 44.0222 21.2376 43.936 21.7265L43.1689 26.0769L41.7768 25.8314L42.4759 21.8664C42.5358 21.5266 42.52 21.229 42.4283 20.9736C42.3464 20.7114 42.2045 20.4984 42.0027 20.3347C41.8023 20.1627 41.5571 20.0511 41.2671 19.9999C40.9854 19.9502 40.7168 19.9712 40.4614 20.0629C40.2157 20.1478 40.0054 20.2987 39.8305 20.5156C39.6638 20.734 39.5513 21.0089 39.4928 21.3404L38.7937 25.3054L37.3891 25.0578ZM47.6787 27.0259C47.0075 26.9076 46.4379 26.6491 45.9699 26.2504C45.5117 25.8449 45.1843 25.3515 44.9878 24.77C44.7927 24.1802 44.7536 23.5539 44.8705 22.891C44.9903 22.2115 45.2413 21.6363 45.6234 21.1654C46.0137 20.6959 46.4838 20.3559 47.0336 20.1452C47.5849 19.9263 48.1754 19.8723 48.8051 19.9834C49.3106 20.0725 49.7469 20.2392 50.114 20.4833C50.481 20.7275 50.7743 21.0269 50.9936 21.3818C51.2145 21.7283 51.361 22.1087 51.4332 22.523C51.5137 22.9388 51.5152 23.3662 51.4378 23.8054C51.4188 23.9132 51.3949 24.0243 51.3662 24.1388C51.3374 24.2534 51.3019 24.3582 51.2595 24.4532L45.9023 23.5086L46.0995 22.39L50.6612 23.1943L49.9002 23.5856C50.0546 23.1941 50.0892 22.8286 50.0038 22.4888C49.9282 22.1423 49.7656 21.853 49.516 21.621C49.2762 21.3822 48.9698 21.23 48.5969 21.1642C48.224 21.0985 47.8758 21.1353 47.5521 21.2748C47.23 21.4059 46.9595 21.6316 46.7407 21.9519C46.5233 22.2639 46.3881 22.6673 46.335 23.162C46.2133 23.6105 46.2053 24.0192 46.3111 24.3881C46.4252 24.7586 46.6188 25.0661 46.8917 25.3108C47.173 25.5569 47.5125 25.715 47.9103 25.7851C48.3163 25.8567 48.6763 25.8262 48.9902 25.6936C49.3124 25.5624 49.5819 25.3664 49.7987 25.1056L50.8437 25.8666C50.6555 26.1581 50.398 26.4075 50.0709 26.6147C49.7536 26.8151 49.3871 26.9555 48.9714 27.036C48.5653 27.1096 48.1345 27.1063 47.6787 27.0259ZM54.2317 28.0276L55.8645 18.7674L59.7674 19.4556C60.3475 19.5579 60.8305 19.7499 61.2166 20.0316C61.6042 20.305 61.8762 20.652 62.0327 21.0726C62.1907 21.4849 62.2244 21.948 62.1338 22.4618C62.0549 22.9092 61.8666 23.2989 61.5688 23.6309C61.2808 23.9561 60.8775 24.184 60.3589 24.3147L60.4684 23.6932C60.8618 23.9335 61.1685 24.2054 61.3883 24.5091C61.6097 24.8044 61.7506 25.1198 61.8111 25.4551C61.8798 25.7919 61.8836 26.1343 61.8222 26.4823C61.6688 27.3524 61.2623 27.9857 60.6029 28.382C59.9518 28.7799 59.1331 28.8918 58.147 28.718L54.2317 28.0276ZM55.9285 26.9811L58.489 27.4326C58.9779 27.5188 59.3908 27.4549 59.7276 27.2408C60.0658 27.0185 60.2744 26.6836 60.3533 26.2362C60.4336 25.7804 60.3522 25.3944 60.1089 25.0781C59.8671 24.7535 59.5018 24.5481 59.0129 24.4619L56.4523 24.0104L55.9285 26.9811ZM56.6803 22.7177L59.1538 23.1538C59.5515 23.224 59.8903 23.1683 60.17 22.987C60.4513 22.7973 60.6247 22.5161 60.6905 22.1432C60.7563 21.7703 60.6872 21.4591 60.4835 21.2095C60.2797 20.96 59.9789 20.8002 59.5812 20.73L57.1076 20.2939L56.6803 22.7177ZM65.7076 30.2049C65.0364 30.0865 64.4668 29.828 63.9988 29.4294C63.5406 29.0239 63.2132 28.5304 63.0167 27.949C62.8217 27.3592 62.7826 26.7329 62.8995 26.0699C63.0193 25.3905 63.2702 24.8153 63.6523 24.3443C64.0427 23.8749 64.5127 23.5348 65.0625 23.3242C65.6138 23.1053 66.2043 23.0513 66.8341 23.1624C67.3396 23.2515 67.7758 23.4181 68.1429 23.6623C68.51 23.9064 68.8032 24.2059 69.0226 24.5607C69.2434 24.9073 69.39 25.2877 69.4622 25.702C69.5426 26.1178 69.5442 26.5452 69.4667 26.9844C69.4477 27.0921 69.4239 27.2033 69.3951 27.3178C69.3664 27.4324 69.3308 27.5372 69.2884 27.6322L63.9312 26.6876L64.1285 25.5689L68.6902 26.3733L67.9291 26.7646C68.0836 26.3731 68.1181 26.0076 68.0328 25.6678C67.9572 25.3213 67.7946 25.032 67.545 24.8C67.3051 24.5612 66.9988 24.4089 66.6259 24.3432C66.253 24.2774 65.9047 24.3143 65.5811 24.4537C65.2589 24.5849 64.9884 24.8106 64.7696 25.1309C64.5523 25.4429 64.417 25.8462 64.364 26.341C64.2422 26.7894 64.2342 27.1982 64.34 27.5671C64.4541 27.9376 64.6477 28.2451 64.9207 28.4897C65.202 28.7359 65.5415 28.894 65.9392 28.9641C66.3453 29.0357 66.7052 29.0052 67.0191 28.8726C67.3413 28.7414 67.6108 28.5454 67.8277 28.2846L68.8726 29.0456C68.6845 29.3371 68.4269 29.5865 68.0999 29.7937C67.7826 29.994 67.4161 30.1345 67.0003 30.215C66.5943 30.2886 66.1634 30.2853 65.7076 30.2049ZM72.5351 31.4088C71.8473 31.2875 71.2723 31.0109 70.8102 30.5791C70.3563 30.1488 70.0762 29.6295 69.9699 29.0212L71.1411 28.7023C71.2562 29.1156 71.4515 29.4619 71.7269 29.7411C72.0106 30.0218 72.3472 30.1965 72.7367 30.2652C73.0681 30.3237 73.3506 30.2966 73.5841 30.1839C73.8175 30.0713 73.9569 29.8866 74.0022 29.6297C74.0314 29.464 74.0092 29.3233 73.9356 29.2078C73.8635 29.084 73.7628 28.9766 73.6336 28.8854C73.5127 28.7958 73.3848 28.7219 73.2497 28.6639L72.2458 28.1793C71.695 27.9113 71.3038 27.586 71.0722 27.2034C70.8503 26.814 70.7789 26.3956 70.8578 25.9481C70.9294 25.542 71.0951 25.2081 71.3548 24.9463C71.616 24.6763 71.9436 24.4905 72.3374 24.3891C72.7312 24.2876 73.156 24.2771 73.6118 24.3575C74.225 24.4656 74.7449 24.7153 75.1714 25.1067C75.5994 25.4897 75.8654 25.9681 75.9693 26.5418L74.798 26.8607C74.7224 26.5142 74.5564 26.22 74.3 25.9783C74.0519 25.738 73.7496 25.5865 73.3933 25.5237C73.0867 25.4696 72.8291 25.5011 72.6205 25.6181C72.4134 25.7268 72.2894 25.8972 72.2484 26.1292C72.2207 26.2867 72.2387 26.4265 72.3026 26.5489C72.3679 26.6629 72.461 26.7648 72.5819 26.8545C72.7043 26.9358 72.8323 27.0097 72.9658 27.0759L74.0027 27.592C74.5301 27.8473 74.913 28.1712 75.1514 28.5635C75.3913 28.9476 75.4703 29.3716 75.3885 29.8357C75.3184 30.2334 75.1485 30.5666 74.879 30.8352C74.6193 31.097 74.2876 31.282 73.884 31.3903C73.4819 31.4903 73.0322 31.4964 72.5351 31.4088ZM79.207 32.5083C78.5027 32.3841 77.9909 32.0888 77.6715 31.6224C77.3522 31.156 77.2561 30.5623 77.3832 29.8414L77.9574 26.5848L76.7766 26.3766L77.0002 25.1087L77.1866 25.1416C77.5015 25.1971 77.762 25.1491 77.9682 24.9975C78.1743 24.8458 78.3052 24.6126 78.3607 24.2977L78.4528 23.7756L79.8573 24.0233L79.5855 25.5646L81.1144 25.8342L80.8908 27.102L79.362 26.8324L78.7987 30.0269C78.7578 30.2589 78.76 30.4643 78.8054 30.6432C78.8522 30.8138 78.9504 30.9593 79.1001 31.0797C79.2512 31.1918 79.4594 31.2712 79.7245 31.3179C79.7908 31.3296 79.8661 31.3386 79.9505 31.345C80.0348 31.3513 80.115 31.3569 80.191 31.3617L79.9784 32.5674C79.8595 32.5635 79.7281 32.5575 79.5843 32.5492C79.4405 32.5409 79.3148 32.5273 79.207 32.5083ZM83.41 33.1725L85.0428 23.9124L88.4113 24.5063C89.0327 24.6159 89.5592 24.8283 89.9906 25.1436C90.4318 25.4521 90.7462 25.8493 90.934 26.3353C91.1231 26.8129 91.1644 27.3542 91.0577 27.9591C90.9525 28.5557 90.7252 29.0454 90.3758 29.4281C90.0346 29.8122 89.6075 30.0787 89.0942 30.2274C88.581 30.3761 88.0136 30.3957 87.3921 30.2861L85.4904 29.9508L84.8767 33.4311L83.41 33.1725ZM85.7205 28.6457L87.6595 28.9876C87.991 29.046 88.2927 29.0309 88.5647 28.9421C88.8367 28.8534 89.0635 28.7054 89.2453 28.4982C89.4286 28.2828 89.5487 28.0134 89.6057 27.6903C89.6626 27.3671 89.6412 27.0771 89.5412 26.8202C89.4427 26.5551 89.2801 26.3384 89.0534 26.1703C88.8282 25.9939 88.5499 25.8764 88.2184 25.818L86.2794 25.4761L85.7205 28.6457ZM91.1846 34.5434L92.8437 25.1341L94.2483 25.3817L92.5891 34.791L91.1846 34.5434ZM96.0944 35.5629C95.6386 35.4825 95.2506 35.3329 94.9303 35.1141C94.6198 34.8885 94.3941 34.618 94.2532 34.3027C94.1137 33.979 94.0783 33.6225 94.147 33.233C94.2113 32.8684 94.3477 32.555 94.5563 32.2927C94.7732 32.0319 95.069 31.832 95.4438 31.693C95.8186 31.5541 96.2702 31.4885 96.7986 31.4962L99.2033 31.5229L99.0083 32.6291L96.8814 32.6258C96.4968 32.6263 96.2022 32.6983 95.9975 32.8416C95.7942 32.9766 95.6692 33.1767 95.6225 33.4419C95.5772 33.6988 95.6352 33.9269 95.7966 34.1262C95.9677 34.3188 96.2065 34.442 96.5131 34.4961C96.8943 34.5633 97.2404 34.5389 97.5514 34.4228C97.8706 34.3083 98.1331 34.1281 98.3387 33.8824C98.5458 33.6284 98.6794 33.3316 98.7393 32.9918L99.0439 31.2641C99.1024 30.9326 99.0255 30.6414 98.8135 30.3904C98.6112 30.1326 98.307 29.9679 97.9009 29.8963C97.5281 29.8305 97.1832 29.8723 96.8664 30.0215C96.5593 30.1638 96.3125 30.3766 96.1258 30.6598L95.0605 29.8696C95.2432 29.5601 95.4974 29.3059 95.8229 29.1069C96.15 28.8997 96.5123 28.7586 96.9101 28.6835C97.3161 28.6098 97.7304 28.6102 98.153 28.6847C98.6834 28.7783 99.134 28.9603 99.505 29.2307C99.8842 29.5027 100.154 29.8365 100.315 30.2323C100.486 30.6212 100.53 31.0477 100.448 31.5118L99.6507 36.0362L98.3083 35.7995L98.5231 34.5814L98.8024 34.6691C98.5967 34.9148 98.3521 35.1151 98.0684 35.2702C97.793 35.4267 97.4884 35.531 97.1545 35.5832C96.8289 35.6369 96.4755 35.6301 96.0944 35.5629ZM103.943 36.8699C103.238 36.7457 102.727 36.4504 102.407 35.9839C102.088 35.5175 101.992 34.9238 102.119 34.2029L102.693 30.9463L101.512 30.7381L101.736 29.4703L101.922 29.5032C102.237 29.5587 102.498 29.5106 102.704 29.359C102.91 29.2074 103.041 28.9741 103.096 28.6593L103.188 28.1372L104.593 28.3849L104.321 29.9262L105.85 30.1957L105.627 31.4636L104.098 31.194L103.534 34.3884C103.493 34.6205 103.496 34.8259 103.541 35.0048C103.588 35.1754 103.686 35.3209 103.836 35.4412C103.987 35.5533 104.195 35.6327 104.46 35.6795C104.526 35.6912 104.602 35.7002 104.686 35.7065C104.77 35.7128 104.851 35.7184 104.927 35.7233L104.714 36.929C104.595 36.9251 104.464 36.919 104.32 36.9108C104.176 36.9025 104.05 36.8889 103.943 36.8699ZM106.719 37.2825L107.681 31.8258L106.438 31.6066L106.661 30.3388L107.904 30.558L107.966 30.2099C108.055 29.7045 108.233 29.3001 108.5 28.9969C108.769 28.6854 109.101 28.4706 109.498 28.3526C109.903 28.2361 110.346 28.2202 110.826 28.3049C110.918 28.321 111.02 28.3475 111.133 28.3846C111.247 28.4133 111.34 28.4425 111.412 28.4723L111.197 29.6904C111.134 29.6621 111.061 29.6407 110.978 29.6261C110.897 29.6032 110.831 29.5873 110.781 29.5786C110.408 29.5128 110.095 29.5472 109.84 29.6818C109.587 29.8081 109.427 30.0659 109.358 30.4554L109.296 30.8034L110.838 31.0752L110.614 32.343L109.073 32.0713L108.111 37.5279L106.719 37.2825ZM113.812 38.687C113.166 38.5731 112.6 38.3153 112.116 37.9137C111.64 37.5136 111.291 37.0206 111.069 36.4348C110.848 35.8489 110.797 35.2204 110.915 34.5492C111.035 33.8697 111.298 33.2967 111.705 32.8301C112.113 32.3553 112.609 32.0155 113.192 31.8107C113.776 31.5976 114.396 31.5488 115.051 31.6642C115.713 31.7811 116.279 32.0389 116.747 32.4376C117.225 32.8294 117.57 33.3175 117.783 33.9019C118.006 34.4795 118.058 35.108 117.938 35.7875C117.818 36.467 117.554 37.0441 117.145 37.5189C116.737 37.9938 116.241 38.3377 115.656 38.5508C115.073 38.7556 114.459 38.801 113.812 38.687ZM114.042 37.3819C114.44 37.4521 114.809 37.4189 115.149 37.2823C115.49 37.1458 115.776 36.9271 116.008 36.6264C116.251 36.3188 116.409 35.9537 116.483 35.5311C116.558 35.1084 116.533 34.7153 116.409 34.3517C116.294 33.9896 116.1 33.6862 115.827 33.4415C115.554 33.1969 115.218 33.0395 114.82 32.9694C114.431 32.9007 114.062 32.9339 113.714 33.069C113.373 33.2055 113.083 33.4234 112.842 33.7227C112.61 34.0235 112.456 34.3852 112.382 34.8078C112.307 35.2304 112.327 35.6269 112.441 35.9974C112.565 36.361 112.763 36.6651 113.036 36.9097C113.318 37.1559 113.653 37.3132 114.042 37.3819ZM118.591 39.3758L119.776 32.6513L121.119 32.888L120.88 34.2429L120.791 34.0221C121.017 33.6092 121.313 33.3367 121.678 33.2045C122.045 33.0641 122.46 33.0348 122.924 33.1166L123.334 33.189L123.108 34.4692L122.524 34.3662C122.06 34.2844 121.658 34.3629 121.316 34.6018C120.985 34.8339 120.773 35.2151 120.679 35.7454L119.995 39.6235L118.591 39.3758ZM122.97 40.148L124.155 33.4235L125.498 33.6602L125.241 35.1145L125.107 34.86C125.328 34.4291 125.646 34.1305 126.059 33.9643C126.473 33.798 126.92 33.7572 127.401 33.842C127.94 33.9369 128.391 34.166 128.754 34.5291C129.127 34.8853 129.342 35.312 129.4 35.8092L128.995 35.7763C129.289 35.2728 129.662 34.9242 130.115 34.7307C130.576 34.5385 131.072 34.4892 131.602 34.5828C132.066 34.6646 132.466 34.8461 132.801 35.1273C133.144 35.41 133.394 35.7616 133.55 36.1822C133.707 36.6029 133.742 37.0576 133.656 37.5465L132.889 41.8969L131.484 41.6493L132.183 37.6842C132.243 37.3444 132.231 37.0476 132.148 36.7937C132.074 36.5329 131.941 36.3214 131.747 36.1591C131.564 35.99 131.331 35.8806 131.049 35.8309C130.767 35.7812 130.507 35.8037 130.268 35.8983C130.031 35.9846 129.829 36.1369 129.662 36.3553C129.495 36.5737 129.383 36.8486 129.324 37.1801L128.625 41.1452L127.233 40.8997L127.932 36.9346C127.992 36.5949 127.98 36.298 127.897 36.0441C127.823 35.7833 127.69 35.5718 127.496 35.4095C127.313 35.2404 127.076 35.1303 126.786 35.0791C126.504 35.0295 126.244 35.0519 126.005 35.1465C125.767 35.2328 125.565 35.3852 125.399 35.6036C125.24 35.8234 125.132 36.0991 125.073 36.4305L124.374 40.3956L122.97 40.148ZM29.0514 38.819L30.0136 33.3624L28.7706 33.1432L28.9942 31.8754L30.2372 32.0945L30.2985 31.7465C30.3877 31.241 30.5658 30.8367 30.8328 30.5335C31.1014 30.222 31.434 30.0072 31.8307 29.8892C32.2358 29.7726 32.6786 29.7567 33.1592 29.8415C33.2504 29.8576 33.3525 29.8841 33.4656 29.9211C33.5801 29.9499 33.6732 29.9791 33.7449 30.0088L33.5301 31.2269C33.4667 31.1987 33.3936 31.1772 33.3108 31.1626C33.2293 31.1397 33.1638 31.1239 33.1141 31.1151C32.7412 31.0494 32.4275 31.0838 32.1731 31.2184C31.9201 31.3446 31.7593 31.6025 31.6907 31.992L31.6293 32.34L33.1706 32.6118L32.947 33.8796L31.4057 33.6078L30.4436 39.0645L29.0514 38.819ZM36.1451 40.2236C35.4987 40.1096 34.9333 39.8519 34.4487 39.4503C33.9724 39.0502 33.6236 38.5572 33.4022 37.9713C33.1809 37.3855 33.1293 36.757 33.2477 36.0857C33.3675 35.4063 33.6309 34.8332 34.0378 34.3667C34.4462 33.8919 34.9419 33.5521 35.5248 33.3473C36.1092 33.1342 36.7287 33.0854 37.3834 33.2008C38.0463 33.3177 38.6117 33.5755 39.0797 33.9741C39.5575 34.366 39.9029 34.8541 40.116 35.4385C40.3388 36.016 40.3903 36.6446 40.2705 37.3241C40.1507 38.0036 39.8866 38.5807 39.4782 39.0555C39.0698 39.5303 38.5734 39.8743 37.989 40.0874C37.406 40.2922 36.7914 40.3376 36.1451 40.2236ZM36.3752 38.9185C36.7729 38.9886 37.1419 38.9554 37.4821 38.8189C37.8223 38.6824 38.1087 38.4637 38.3411 38.1629C38.5833 37.8553 38.7417 37.4902 38.8162 37.0676C38.8907 36.645 38.8661 36.2519 38.7422 35.8883C38.6266 35.5262 38.4323 35.2228 38.1594 34.9781C37.8864 34.7335 37.551 34.5761 37.1532 34.5059C36.7638 34.4373 36.3948 34.4705 36.0463 34.6055C35.7061 34.7421 35.4156 34.96 35.1749 35.2593C34.9424 35.5601 34.7889 35.9218 34.7144 36.3444C34.6399 36.767 34.6597 37.1635 34.7738 37.5339C34.8976 37.8975 35.0961 38.2017 35.3691 38.4463C35.6503 38.6924 35.9857 38.8498 36.3752 38.9185ZM40.9235 40.9124L42.1092 34.1879L43.4516 34.4246L43.2127 35.7794L43.1235 35.5587C43.3501 35.1458 43.6459 34.8733 44.011 34.7411C44.3775 34.6007 44.7928 34.5714 45.2568 34.6532L45.667 34.7255L45.4413 36.0058L44.8571 35.9028C44.393 35.821 43.9904 35.8995 43.6493 36.1384C43.3178 36.3704 43.1054 36.7516 43.0119 37.282L42.3281 41.1601L40.9235 40.9124ZM51.7746 42.9795C51.1199 42.8641 50.5321 42.6365 50.011 42.2969C49.4981 41.9587 49.0718 41.5417 48.732 41.0461C48.402 40.5436 48.1721 39.9818 48.0423 39.3609C47.9126 38.7399 47.9091 38.0814 48.0318 37.3853C48.1531 36.6976 48.3767 36.0834 48.7027 35.5428C49.0385 34.9953 49.4508 34.5468 49.9396 34.1973C50.4299 33.8394 50.9732 33.5935 51.5693 33.4593C52.1668 33.3169 52.7971 33.3042 53.46 33.4211C54.1146 33.5365 54.6791 33.7514 55.1534 34.0657C55.636 34.3815 56.0233 34.7531 56.3153 35.1805C56.6088 35.5997 56.797 36.0344 56.88 36.4848L55.4528 36.874C55.3416 36.3417 55.0935 35.8836 54.7083 35.4995C54.333 35.1087 53.8387 34.8592 53.2255 34.751C52.6123 34.6429 52.0439 34.6922 51.5205 34.899C50.997 35.1057 50.5574 35.4426 50.2016 35.9096C49.8542 36.3781 49.6198 36.9562 49.4985 37.644C49.3772 38.3317 49.399 38.9593 49.5638 39.5266C49.7384 40.0872 50.0363 40.5541 50.4575 40.9274C50.8801 41.2924 51.3981 41.529 52.0113 41.6371C52.6245 41.7452 53.1736 41.684 53.6585 41.4534C54.1518 41.2242 54.5417 40.8786 54.8282 40.4164L56.0362 41.2702C55.8057 41.6568 55.4801 42.001 55.0595 42.3028C54.6389 42.6045 54.1478 42.8213 53.5863 42.9529C53.0331 43.0861 52.4292 43.0949 51.7746 42.9795ZM58.7548 44.2103C58.2991 44.13 57.9111 43.9804 57.5908 43.7616C57.2803 43.5359 57.0546 43.2654 56.9136 42.9501C56.7742 42.6265 56.7388 42.2699 56.8075 41.8804C56.8718 41.5158 57.0082 41.2024 57.2168 40.9401C57.4337 40.6793 57.7295 40.4795 58.1043 40.3405C58.4791 40.2015 58.9307 40.1359 59.4591 40.1436L61.8638 40.1703L61.6688 41.2766L59.5419 41.2732C59.1573 41.2738 58.8626 41.3457 58.6579 41.489C58.4547 41.6241 58.3297 41.8242 58.283 42.0893C58.2377 42.3462 58.2957 42.5743 58.4571 42.7737C58.6282 42.9662 58.867 43.0895 59.1736 43.1435C59.5548 43.2107 59.9009 43.1863 60.2118 43.0703C60.5311 42.9557 60.7936 42.7755 60.9992 42.5299C61.2063 42.2759 61.3398 41.979 61.3998 41.6393L61.7044 39.9115C61.7628 39.5801 61.686 39.2888 61.474 39.0378C61.2716 38.78 60.9675 38.6153 60.5614 38.5437C60.1885 38.478 59.8437 38.5197 59.5269 38.6689C59.2198 38.8113 58.973 39.0241 58.7863 39.3073L57.7209 38.5171C57.9037 38.2075 58.1578 37.9533 58.4834 37.7544C58.8105 37.5472 59.1728 37.406 59.5706 37.3309C59.9766 37.2572 60.3909 37.2577 60.8135 37.3322C61.3438 37.4257 61.7945 37.6077 62.1655 37.8782C62.5447 38.1501 62.8148 38.4839 62.9757 38.8797C63.1464 39.2687 63.1908 39.6951 63.109 40.1592L62.3112 44.6836L60.9688 44.4469L61.1836 43.2288L61.4629 43.3165C61.2572 43.5622 61.0125 43.7626 60.7289 43.9176C60.4535 44.0741 60.1489 44.1785 59.815 44.2307C59.4894 44.2843 59.136 44.2775 58.7548 44.2103ZM63.8292 44.9513L65.0149 38.2268L66.3573 38.4635L66.1184 39.8183L66.0292 39.5975C66.2558 39.1847 66.5516 38.9121 66.9166 38.78C67.2832 38.6396 67.6985 38.6103 68.1625 38.6921L68.5727 38.7644L68.3469 40.0447L67.7627 39.9417C67.2987 39.8598 66.8961 39.9384 66.5549 40.1773C66.2235 40.4093 66.011 40.7905 65.9175 41.3209L65.2337 45.1989L63.8292 44.9513ZM70.3934 46.1087L72.0262 36.8486L75.3947 37.4425C76.0162 37.5521 76.5426 37.7646 76.9741 38.0799C77.4069 38.3869 77.7172 38.7834 77.905 39.2693C78.1024 39.7484 78.1478 40.2904 78.0412 40.8953C77.9287 41.5334 77.6707 42.0518 77.2671 42.4506C76.8719 42.8508 76.3867 43.107 75.8115 43.2192L77.2919 47.3251L75.6263 47.0314L74.064 42.5907L74.9225 43.3188L72.4738 42.887L71.8601 46.3674L70.3934 46.1087ZM72.7039 41.5819L74.6305 41.9216C74.9703 41.9815 75.2761 41.9671 75.5481 41.8784C75.8201 41.7896 76.0428 41.6409 76.2163 41.4323C76.3996 41.2168 76.5197 40.9475 76.5767 40.6243C76.6336 40.3011 76.6122 40.0111 76.5122 39.7542C76.422 39.4906 76.2635 39.2747 76.0369 39.1065C75.8117 38.9301 75.5292 38.8119 75.1894 38.752L73.2628 38.4123L72.7039 41.5819ZM81.0197 48.1362C80.3485 48.0179 79.7789 47.7594 79.3109 47.3607C78.8527 46.9552 78.5253 46.4618 78.3288 45.8803C78.1337 45.2905 78.0946 44.6642 78.2115 44.0013C78.3313 43.3218 78.5823 42.7466 78.9644 42.2757C79.3547 41.8062 79.8248 41.4662 80.3746 41.2555C80.9258 41.0366 81.5164 40.9827 82.1461 41.0937C82.6516 41.1828 83.0879 41.3495 83.4549 41.5936C83.822 41.8378 84.1152 42.1373 84.3346 42.4921C84.5555 42.8386 84.702 43.219 84.7742 43.6333C84.8547 44.0491 84.8562 44.4766 84.7788 44.9157C84.7598 45.0235 84.7359 45.1346 84.7072 45.2492C84.6784 45.3637 84.6429 45.4685 84.6005 45.5636L79.2433 44.6189L79.4405 43.5003L84.0022 44.3046L83.2412 44.6959C83.3956 44.3045 83.4302 43.9389 83.3448 43.5992C83.2692 43.2526 83.1066 42.9633 82.857 42.7314C82.6172 42.4926 82.3108 42.3403 81.9379 42.2745C81.565 42.2088 81.2168 42.2456 80.8931 42.3851C80.571 42.5162 80.3005 42.742 80.0817 43.0622C79.8643 43.3742 79.7291 43.7776 79.676 44.2723C79.5543 44.7208 79.5463 45.1295 79.6521 45.4985C79.7662 45.8689 79.9598 46.1764 80.2327 46.4211C80.514 46.6672 80.8535 46.8253 81.2513 46.8954C81.6573 46.967 82.0173 46.9365 82.3312 46.8039C82.6533 46.6727 82.9229 46.4768 83.1397 46.2159L84.1846 46.9769C83.9965 47.2684 83.739 47.5178 83.4119 47.725C83.0946 47.9254 82.7281 48.0658 82.3124 48.1463C81.9063 48.2199 81.4754 48.2166 81.0197 48.1362ZM85.3875 48.7526L86.5732 42.0281L87.9156 42.2648L87.6833 43.5824L87.5524 43.3798C87.7926 42.9865 88.114 42.7142 88.5166 42.563C88.9207 42.4036 89.363 42.3662 89.8436 42.451C90.3408 42.5386 90.761 42.7238 91.1042 43.0065C91.4474 43.2891 91.6931 43.64 91.8413 44.0592C91.9896 44.4784 92.0199 44.9366 91.9322 45.4337L91.1673 49.7717L89.7752 49.5263L90.4743 45.5612C90.5342 45.2214 90.5225 44.9246 90.4391 44.6706C90.3572 44.4084 90.2112 44.1947 90.0011 44.0295C89.8007 43.8575 89.5555 43.7459 89.2655 43.6947C88.9754 43.6436 88.7027 43.6639 88.4473 43.7555C88.2017 43.8404 87.9955 43.992 87.8289 44.2104C87.6622 44.4288 87.5496 44.7037 87.4912 45.0352L86.792 49.0002L85.3875 48.7526ZM95.4416 50.6023C94.7373 50.4781 94.2254 50.1828 93.9061 49.7164C93.5868 49.2499 93.4907 48.6563 93.6178 47.9353L94.192 44.6788L93.0112 44.4705L93.2347 43.2027L93.4212 43.2356C93.7361 43.2911 93.9966 43.2431 94.2028 43.0914C94.4089 42.9398 94.5398 42.7066 94.5953 42.3917L94.6873 41.8696L96.0919 42.1173L95.8201 43.6586L97.349 43.9282L97.1254 45.196L95.5966 44.9264L95.0333 48.1209C94.9924 48.3529 94.9946 48.5583 95.04 48.7372C95.0868 48.9078 95.185 49.0533 95.3347 49.1737C95.4858 49.2858 95.6939 49.3652 95.9591 49.4119C96.0254 49.4236 96.1007 49.4326 96.185 49.439C96.2694 49.4453 96.3495 49.4509 96.4256 49.4557L96.213 50.6614C96.0941 50.6575 95.9627 50.6515 95.8189 50.6432C95.6751 50.6349 95.5493 50.6213 95.4416 50.6023ZM99.386 51.3747C98.9302 51.2943 98.5422 51.1447 98.2219 50.9259C97.9114 50.7003 97.6857 50.4298 97.5448 50.1145C97.4053 49.7908 97.37 49.4343 97.4386 49.0448C97.5029 48.6802 97.6393 48.3668 97.8479 48.1045C98.0648 47.8437 98.3606 47.6438 98.7355 47.5048C99.1103 47.3659 99.5619 47.3003 100.09 47.308L102.495 47.3347L102.3 48.4409L100.173 48.4376C99.7884 48.4381 99.4938 48.5101 99.2891 48.6534C99.0859 48.7884 98.9609 48.9885 98.9141 49.2537C98.8688 49.5106 98.9268 49.7387 99.0882 49.938C99.2593 50.1306 99.4982 50.2538 99.8048 50.3079C100.186 50.3751 100.532 50.3507 100.843 50.2346C101.162 50.1201 101.425 49.9399 101.63 49.6942C101.837 49.4402 101.971 49.1434 102.031 48.8036L102.336 47.0759C102.394 46.7444 102.317 46.4532 102.105 46.2022C101.903 45.9444 101.599 45.7797 101.193 45.7081C100.82 45.6423 100.475 45.6841 100.158 45.8333C99.851 45.9756 99.6041 46.1884 99.4175 46.4716L98.3521 45.6814C98.5348 45.3719 98.789 45.1177 99.1146 44.9187C99.4416 44.7115 99.804 44.5704 100.202 44.4953C100.608 44.4216 101.022 44.422 101.445 44.4965C101.975 44.5901 102.426 44.7721 102.797 45.0425C103.176 45.3145 103.446 45.6483 103.607 46.0441C103.778 46.433 103.822 46.8595 103.74 47.3236L102.942 51.848L101.6 51.6113L101.815 50.3932L102.094 50.4809C101.888 50.7266 101.644 50.9269 101.36 51.082C101.085 51.2385 100.78 51.3428 100.446 51.395C100.121 51.4487 99.7672 51.4419 99.386 51.3747ZM104.46 52.1156L106.119 42.7063L107.524 42.954L105.865 52.3633L104.46 52.1156Z" fill="white"/>
<path d="M25.1564 54.6946L25.9728 50.0646L28.9871 50.596L28.8884 51.1554L26.4833 50.7313L26.2247 52.198L28.5055 52.6002L28.4069 53.1595L26.126 52.7573L25.8641 54.2427L28.2693 54.6668L28.1706 55.2261L25.1564 54.6946ZM29.9501 55.6168C29.7306 55.5781 29.5428 55.5044 29.3868 55.3957C29.2356 55.2836 29.1249 55.1487 29.0544 54.9911C28.9847 54.8292 28.9663 54.6551 28.9991 54.4687C29.0305 54.2905 29.096 54.1376 29.1954 54.0098C29.2997 53.8787 29.4414 53.7777 29.6205 53.7067C29.8038 53.6365 30.0233 53.6026 30.2792 53.605L31.5584 53.6191L31.4729 54.1038L30.3276 54.0941C30.1055 54.0934 29.936 54.134 29.8191 54.2159C29.7062 54.2986 29.637 54.4124 29.6115 54.5574C29.5874 54.6941 29.6211 54.8176 29.7128 54.9277C29.8086 55.0386 29.9393 55.1087 30.1051 55.1379C30.3164 55.1751 30.5064 55.1638 30.675 55.1038C30.8485 55.0404 30.9923 54.9397 31.1063 54.8018C31.2245 54.6645 31.3 54.5027 31.3329 54.3163L31.483 53.4648C31.5152 53.2825 31.4728 53.1234 31.3558 52.9874C31.2436 52.848 31.0778 52.759 30.8582 52.7202C30.6676 52.6866 30.489 52.7064 30.3223 52.7795C30.1604 52.8493 30.0301 52.9587 29.9311 53.1079L29.4738 52.7581C29.563 52.6158 29.6865 52.4966 29.8444 52.4005C30.0031 52.3003 30.1797 52.2311 30.3745 52.1928C30.5692 52.1545 30.766 52.1529 30.9649 52.188C31.2217 52.2333 31.4388 52.3228 31.616 52.4566C31.7939 52.5862 31.9214 52.7475 31.9984 52.9405C32.0803 53.1301 32.1012 53.3389 32.061 53.5667L31.66 55.8414L31.0944 55.7417L31.2062 55.1077L31.3053 55.1637C31.2114 55.2838 31.0957 55.383 30.958 55.4613C30.8203 55.5395 30.6656 55.5934 30.4937 55.6229C30.3219 55.6524 30.1407 55.6504 29.9501 55.6168ZM33.8667 56.3074C33.5311 56.2482 33.2536 56.1138 33.0343 55.9043C32.8149 55.6947 32.6783 55.4399 32.6243 55.1399L33.1237 54.9973C33.1839 55.213 33.2867 55.3934 33.432 55.5387C33.5772 55.6839 33.7514 55.7744 33.9544 55.8102C34.1367 55.8423 34.2956 55.8255 34.4311 55.7597C34.5666 55.6939 34.6468 55.5905 34.6716 55.4497C34.6891 55.3502 34.674 55.2664 34.6262 55.1981C34.5833 55.1265 34.5254 55.0672 34.4526 55.0201C34.3804 54.969 34.3126 54.9292 34.2493 54.901L33.7711 54.6693C33.484 54.5289 33.2842 54.3656 33.1718 54.1791C33.0636 53.9934 33.0285 53.7929 33.0665 53.5774C33.1015 53.3785 33.1816 53.2154 33.3066 53.0879C33.4365 52.957 33.5957 52.8655 33.7843 52.8133C33.9771 52.7618 34.1833 52.7555 34.4029 52.7942C34.6971 52.846 34.947 52.967 35.1527 53.1571C35.3626 53.3479 35.4935 53.5867 35.5455 53.8736L35.0348 54.0078C34.9909 53.8206 34.9031 53.6642 34.7715 53.5384C34.6406 53.4085 34.4819 53.3272 34.2955 53.2943C34.1256 53.2643 33.9833 53.2841 33.8685 53.3536C33.7545 53.4189 33.6861 53.5158 33.6635 53.6442C33.6467 53.7395 33.6576 53.8226 33.6964 53.8935C33.7359 53.9603 33.7879 54.0165 33.8525 54.0621C33.9178 54.1035 33.9818 54.1404 34.0445 54.1728L34.5629 54.4308C34.8224 54.5578 35.0122 54.7172 35.1321 54.9093C35.2562 55.102 35.2978 55.3144 35.2569 55.5464C35.224 55.7329 35.1426 55.8916 35.0127 56.0225C34.8829 56.1533 34.7195 56.2442 34.5226 56.2949C34.3256 56.3456 34.107 56.3498 33.8667 56.3074ZM37.507 56.9493C37.1839 56.8923 36.9094 56.7649 36.6837 56.567C36.458 56.3691 36.296 56.1248 36.1978 55.8341C36.1002 55.5392 36.0807 55.2261 36.1391 54.8946C36.1983 54.559 36.3214 54.2731 36.5083 54.0369C36.6993 53.8015 36.9302 53.6307 37.2009 53.5246C37.4766 53.4152 37.7677 53.3875 38.0743 53.4415C38.3229 53.4854 38.5344 53.5697 38.7089 53.6944C38.8883 53.8158 39.0308 53.9648 39.1364 54.1415C39.2468 54.3147 39.32 54.5049 39.3561 54.7121C39.3971 54.9158 39.3993 55.1213 39.3628 55.3284C39.3548 55.374 39.3415 55.4251 39.323 55.4816C39.3093 55.5348 39.294 55.5854 39.2769 55.6337L36.53 55.1493L36.6176 54.6522L39.029 55.0773L38.7161 55.2529C38.7914 55.044 38.8046 54.8477 38.7559 54.6639C38.7071 54.4802 38.6148 54.3251 38.4791 54.1986C38.3433 54.0721 38.1781 53.9917 37.9833 53.9574C37.7886 53.923 37.6017 53.9413 37.4225 54.0123C37.2434 54.0832 37.0918 54.2039 36.9678 54.3743C36.8487 54.5412 36.7751 54.7525 36.7471 55.0082C36.6874 55.2497 36.6867 55.4718 36.745 55.6743C36.8082 55.8734 36.9155 56.0397 37.0671 56.1732C37.2236 56.3034 37.4034 56.3863 37.6064 56.4221C37.8301 56.4616 38.0278 56.443 38.1993 56.3665C38.3709 56.2899 38.5186 56.1792 38.6424 56.0345L39.0833 56.3685C38.99 56.5101 38.8616 56.6327 38.698 56.7363C38.5394 56.8365 38.3582 56.9071 38.1545 56.9481C37.9549 56.9898 37.7391 56.9902 37.507 56.9493ZM42.6971 57.8644C42.374 57.8074 42.095 57.6814 41.8603 57.4862C41.6263 57.2869 41.456 57.0411 41.3495 56.7489C41.2429 56.4567 41.2192 56.1428 41.2784 55.8072C41.3376 55.4716 41.4648 55.1864 41.66 54.9517C41.8593 54.7177 42.103 54.5471 42.391 54.4398C42.6791 54.3325 42.9868 54.3077 43.3141 54.3655C43.6373 54.4224 43.9158 54.5506 44.1498 54.7499C44.3846 54.9451 44.5535 55.1864 44.6566 55.4737C44.7639 55.7617 44.7876 56.0756 44.7277 56.4154C44.6678 56.7551 44.5357 57.0437 44.3315 57.2811C44.128 57.5144 43.8823 57.6846 43.5942 57.7919C43.311 57.8958 43.012 57.92 42.6971 57.8644ZM42.7958 57.3051C43.0029 57.3416 43.1985 57.3227 43.3825 57.2483C43.5706 57.1747 43.7284 57.0552 43.8559 56.8897C43.9874 56.7249 44.073 56.5306 44.1124 56.3069C44.1526 56.079 44.1383 55.8693 44.0695 55.6778C44.0057 55.4828 43.8979 55.3185 43.7463 55.185C43.5996 55.0481 43.4226 54.9613 43.2155 54.9248C43.0042 54.8875 42.8041 54.9078 42.6152 54.9856C42.4312 55.0599 42.2738 55.1774 42.1429 55.338C42.0128 55.4945 41.9277 55.6867 41.8875 55.9146C41.848 56.1383 41.8619 56.3501 41.9292 56.5499C41.9965 56.7498 42.1039 56.9161 42.2514 57.0489C42.403 57.1824 42.5844 57.2678 42.7958 57.3051ZM45.561 58.2925L46.0541 55.4958L45.414 55.383L45.5115 54.8298L46.1517 54.9427L46.1933 54.7065C46.2357 54.4662 46.3233 54.2723 46.4561 54.1249C46.593 53.9781 46.7562 53.8766 46.9455 53.8203C47.139 53.7647 47.3435 53.7559 47.559 53.7939C47.6045 53.8019 47.6535 53.8148 47.7059 53.8326C47.7632 53.847 47.8098 53.8616 47.8456 53.8765L47.7546 54.3923C47.7229 54.3782 47.6843 54.3671 47.6387 54.359C47.5939 54.3469 47.559 54.3386 47.5342 54.3342C47.3436 54.3006 47.1781 54.3184 47.0377 54.3876C46.9015 54.4576 46.8148 54.5982 46.7775 54.8095L46.7359 55.0457L47.5314 55.186L47.4338 55.7391L46.6383 55.5988L46.1452 58.3955L45.561 58.2925ZM50.5093 59.2419C50.1944 59.1864 49.9241 59.0597 49.6984 58.8618C49.4768 58.6647 49.3169 58.4208 49.2186 58.13C49.1204 57.8393 49.1001 57.5303 49.1578 57.203C49.217 56.8673 49.3421 56.5818 49.5331 56.3464C49.7249 56.1068 49.9586 55.9322 50.2342 55.8228C50.514 55.714 50.8113 55.6874 51.1262 55.743C51.4038 55.7919 51.6398 55.8954 51.834 56.0536C52.029 56.2076 52.1711 56.395 52.2603 56.6158L52.1419 56.7423L52.5079 54.6665L53.0921 54.7695L52.2626 59.4742L51.697 59.3745L51.823 58.6597L51.8801 58.7723C51.7254 58.9715 51.5255 59.1114 51.2806 59.1921C51.0398 59.2735 50.7827 59.2901 50.5093 59.2419ZM50.6576 58.6914C50.8689 58.7286 51.0666 58.7101 51.2506 58.6357C51.4346 58.5613 51.5899 58.4435 51.7166 58.2821C51.8482 58.1174 51.9337 57.9231 51.9732 57.6994C52.0133 57.4715 51.9994 57.2597 51.9314 57.064C51.8682 56.8649 51.7629 56.699 51.6155 56.5662C51.468 56.4333 51.2886 56.3483 51.0773 56.3111C50.8702 56.2745 50.6721 56.2951 50.4833 56.3729C50.2993 56.4473 50.1439 56.5651 50.0172 56.7265C49.8912 56.8837 49.8078 57.0783 49.7669 57.3103C49.7274 57.5341 49.7393 57.7455 49.8024 57.9446C49.8663 58.1396 49.972 58.3035 50.1195 58.4363C50.2669 58.5691 50.4463 58.6541 50.6576 58.6914ZM54.8593 60.009C54.5362 59.952 54.2572 59.8259 54.0225 59.6307C53.7885 59.4314 53.6182 59.1856 53.5117 58.8934C53.4051 58.6012 53.3814 58.2873 53.4406 57.9517C53.4998 57.6161 53.627 57.331 53.8222 57.0962C54.0215 56.8622 54.2652 56.6916 54.5532 56.5843C54.8413 56.4771 55.149 56.4523 55.4763 56.51C55.7995 56.567 56.078 56.6951 56.312 56.8945C56.5468 57.0896 56.7157 57.3309 56.8188 57.6182C56.9261 57.9063 56.9498 58.2202 56.8899 58.5599C56.83 58.8997 56.6979 59.1882 56.4937 59.4256C56.2902 59.6589 56.0445 59.8292 55.7564 59.9364C55.4732 60.0403 55.1742 60.0645 54.8593 60.009ZM54.958 59.4496C55.1651 59.4861 55.3607 59.4672 55.5447 59.3929C55.7328 59.3192 55.8906 59.1997 56.0181 59.0342C56.1496 58.8694 56.2352 58.6752 56.2746 58.4514C56.3148 58.2235 56.3005 58.0138 56.2317 57.8223C56.1679 57.6273 56.0601 57.4631 55.9085 57.3295C55.7618 57.1926 55.5848 57.1059 55.3777 57.0693C55.1664 57.0321 54.9663 57.0523 54.7774 57.1301C54.5934 57.2045 54.436 57.3219 54.3051 57.4826C54.175 57.6391 54.0899 57.8312 54.0497 58.0591C54.0102 58.2828 54.0242 58.4946 54.0914 58.6945C54.1587 58.8943 54.2661 59.0606 54.4136 59.1934C54.5652 59.327 54.7466 59.4124 54.958 59.4496ZM57.4721 60.3928L58.0628 57.043L58.6408 57.1449L58.0501 60.4947L57.4721 60.3928ZM58.157 56.5085L58.2885 55.7627L58.8665 55.8646L58.735 56.6104L58.157 56.5085ZM59.0713 60.6747L59.6619 57.3249L60.2275 57.4246L60.1124 58.0772L60.029 58.0048C60.1492 57.8081 60.3106 57.6679 60.5134 57.584C60.721 57.4967 60.9491 57.475 61.1977 57.5188C61.438 57.5612 61.6419 57.6527 61.8093 57.7933C61.9809 57.9346 62.1038 58.1101 62.1779 58.3197C62.2562 58.53 62.2741 58.7553 62.2317 58.9956L61.8493 61.1646L61.2651 61.0616L61.6147 59.079C61.6476 58.8926 61.6422 58.7293 61.5985 58.5892C61.5549 58.449 61.4771 58.3328 61.3652 58.2404C61.2582 58.1447 61.126 58.0829 60.9686 58.0552C60.8111 58.0274 60.6637 58.0398 60.5262 58.0925C60.3937 58.1417 60.2805 58.2265 60.1867 58.3466C60.0936 58.4626 60.031 58.6118 59.9988 58.7941L59.6492 60.7766L59.0713 60.6747ZM64.1568 62.9812C63.9206 62.9396 63.7076 62.8636 63.5177 62.7532C63.332 62.6436 63.1783 62.5097 63.0567 62.3515C62.9385 62.1982 62.8574 62.028 62.8135 61.8408L63.398 61.6876C63.4283 61.8553 63.5147 62.0072 63.6573 62.1434C63.8033 62.2845 64.0006 62.377 64.2492 62.4208C64.4398 62.4544 64.6183 62.4474 64.7848 62.3999C64.9546 62.3572 65.0979 62.2714 65.2146 62.1425C65.3306 62.0177 65.4065 61.8538 65.4423 61.6507L65.5749 60.8987L65.6608 61.0292C65.5047 61.2367 65.3062 61.3811 65.0654 61.4625C64.8288 61.5447 64.5799 61.5628 64.3189 61.5167C64.004 61.4612 63.7351 61.339 63.512 61.1502C63.2897 60.9572 63.1304 60.7219 63.0341 60.4443C62.9386 60.1626 62.9182 59.8664 62.973 59.5556C63.0285 59.2407 63.149 58.9693 63.3344 58.7415C63.5198 58.5136 63.7476 58.3486 64.0176 58.2467C64.2925 58.1414 64.5874 58.1165 64.9023 58.172C65.1633 58.2181 65.3888 58.3198 65.579 58.4772C65.774 58.6312 65.9174 58.8231 66.0093 59.0529L65.8949 59.1929L66.0264 58.4472L66.592 58.5469L66.0265 61.7537C65.9754 62.0438 65.8614 62.2907 65.6844 62.4944C65.5075 62.6982 65.2855 62.8428 65.0184 62.9281C64.7547 63.0183 64.4675 63.036 64.1568 62.9812ZM64.4672 60.9662C64.6661 61.0012 64.853 60.9829 65.028 60.9112C65.2071 60.8403 65.359 60.7304 65.4835 60.5814C65.6087 60.4284 65.6896 60.2483 65.7261 60.0411C65.7619 59.8381 65.7472 59.6432 65.6818 59.4565C65.6165 59.2699 65.5118 59.1126 65.3677 58.9846C65.2278 58.8574 65.0584 58.7763 64.8596 58.7412C64.6565 58.7054 64.4634 58.7226 64.2801 58.7929C64.0969 58.8631 63.9426 58.9747 63.8174 59.1278C63.697 59.2774 63.6185 59.4559 63.582 59.663C63.5455 59.8702 63.5578 60.0667 63.619 60.2527C63.6851 60.4352 63.7902 60.5904 63.9342 60.7184C64.0824 60.847 64.2601 60.9296 64.4672 60.9662ZM69.189 62.5357C68.9694 62.4969 68.7816 62.4232 68.6256 62.3146C68.4745 62.2025 68.3637 62.0676 68.2933 61.9099C68.2236 61.7481 68.2051 61.574 68.238 61.3875C68.2694 61.2094 68.3348 61.0564 68.4342 60.9287C68.5385 60.7976 68.6802 60.6965 68.8594 60.6256C69.0426 60.5554 69.2622 60.5215 69.5181 60.5239L70.7972 60.538L70.7118 61.0227L69.5664 61.013C69.3444 61.0123 69.1749 61.0529 69.0579 61.1348C68.9451 61.2174 68.8759 61.3313 68.8503 61.4763C68.8262 61.613 68.86 61.7365 68.9517 61.8466C69.0475 61.9575 69.1782 62.0275 69.3439 62.0567C69.5553 62.094 69.7452 62.0826 69.9139 62.0227C70.0874 61.9593 70.2312 61.8586 70.3452 61.7206C70.4634 61.5834 70.5389 61.4216 70.5718 61.2351L70.7219 60.3837C70.7541 60.2014 70.7116 60.0423 70.5946 59.9063C70.4825 59.7669 70.3166 59.6778 70.0971 59.6391C69.9065 59.6055 69.7278 59.6253 69.5611 59.6984C69.3993 59.7681 69.2689 59.8776 69.17 60.0268L68.7126 59.677C68.8018 59.5346 68.9254 59.4154 69.0833 59.3194C69.2419 59.2192 69.4186 59.15 69.6133 59.1117C69.8081 59.0734 70.0049 59.0718 70.2037 59.1068C70.4606 59.1521 70.6776 59.2417 70.8548 59.3754C71.0328 59.5051 71.1603 59.6664 71.2373 59.8594C71.3192 60.049 71.3401 60.2577 71.2999 60.4856L70.8988 62.7603L70.3333 62.6605L70.445 62.0266L70.5441 62.0825C70.4503 62.2027 70.3346 62.3019 70.1969 62.3802C70.0592 62.4584 69.9044 62.5123 69.7326 62.5418C69.5608 62.5713 69.3796 62.5693 69.189 62.5357ZM74.6584 63.5001C74.3311 63.4423 74.0525 63.3142 73.8226 63.1156C73.5969 62.9177 73.4349 62.6734 73.3367 62.3827C73.2384 62.092 73.2185 61.7809 73.277 61.4494C73.3361 61.1138 73.4613 60.8283 73.6523 60.5928C73.8433 60.3574 74.0787 60.1853 74.3585 60.0765C74.6424 59.9685 74.948 59.9434 75.2753 60.0011C75.4949 60.0398 75.6931 60.1153 75.8698 60.2277C76.0465 60.34 76.1957 60.4752 76.3173 60.6334C76.439 60.7915 76.5172 60.9655 76.5521 61.1554L75.9924 61.313C75.9444 61.1251 75.8491 60.9631 75.7065 60.8269C75.5646 60.6865 75.388 60.5977 75.1767 60.5604C74.9737 60.5246 74.7802 60.5439 74.5962 60.6183C74.4164 60.6934 74.2631 60.8116 74.1364 60.9729C74.0097 61.1343 73.9258 61.331 73.8849 61.563C73.8455 61.7867 73.8573 61.9982 73.9205 62.1973C73.9844 62.3922 74.088 62.5558 74.2313 62.6878C74.3788 62.8206 74.554 62.9049 74.757 62.9407C74.9683 62.978 75.1643 62.957 75.3448 62.8778C75.5262 62.7944 75.6722 62.6685 75.7831 62.5001L76.2529 62.852C76.1559 63.0144 76.0229 63.1511 75.8538 63.2623C75.6854 63.3693 75.4989 63.4454 75.2945 63.4905C75.09 63.5356 74.878 63.5388 74.6584 63.5001ZM77.9131 64.074C77.6935 64.0352 77.5057 63.9615 77.3498 63.8529C77.1986 63.7408 77.0879 63.6059 77.0174 63.4482C76.9477 63.2864 76.9292 63.1123 76.9621 62.9258C76.9935 62.7477 77.059 62.5947 77.1584 62.467C77.2627 62.3359 77.4044 62.2348 77.5835 62.1639C77.7667 62.0937 77.9863 62.0598 78.2422 62.0622L79.5214 62.0763L79.4359 62.561L78.2906 62.5513C78.0685 62.5506 77.899 62.5912 77.7821 62.6731C77.6692 62.7557 77.6 62.8696 77.5745 63.0146C77.5504 63.1513 77.5841 63.2747 77.6758 63.3849C77.7716 63.4958 77.9023 63.5658 78.0681 63.595C78.2794 63.6323 78.4693 63.6209 78.638 63.561C78.8115 63.4976 78.9553 63.3969 79.0693 63.2589C79.1875 63.1217 79.263 62.9599 79.2959 62.7734L79.446 61.922C79.4782 61.7397 79.4358 61.5806 79.3188 61.4446C79.2066 61.3052 79.0408 61.2161 78.8212 61.1774C78.6306 61.1438 78.4519 61.1636 78.2853 61.2367C78.1234 61.3064 77.9931 61.4159 77.8941 61.565L77.4368 61.2153C77.5259 61.0729 77.6495 60.9537 77.8074 60.8577C77.966 60.7575 78.1427 60.6883 78.3374 60.65C78.5322 60.6117 78.729 60.6101 78.9278 60.6451C79.1847 60.6904 79.4018 60.78 79.579 60.9137C79.7569 61.0434 79.8844 61.2047 79.9614 61.3977C80.0433 61.5873 80.0642 61.796 80.024 62.0239L79.6229 64.2986L79.0574 64.1988L79.1692 63.5649L79.2682 63.6208C79.1744 63.741 79.0587 63.8402 78.921 63.9185C78.7833 63.9967 78.6286 64.0506 78.4567 64.0801C78.2849 64.1096 78.1037 64.1076 77.9131 64.074ZM80.6434 64.4785L81.2341 61.1287L81.7996 61.2284L81.6911 61.8437L81.6443 61.7457C81.7566 61.569 81.9016 61.4493 82.0793 61.3866C82.2577 61.3198 82.4629 61.3069 82.6949 61.3478L82.9 61.384L82.8036 61.9309L82.5115 61.8794C82.2753 61.8377 82.0716 61.8787 81.9002 62.0023C81.7297 62.1217 81.6206 62.3161 81.5731 62.5854L81.2214 64.5804L80.6434 64.4785ZM84.139 65.0949L84.7297 61.745L85.2952 61.8448L85.1867 62.46L85.1399 62.3621C85.2523 62.1854 85.3973 62.0657 85.5749 62.003C85.7533 61.9362 85.9585 61.9233 86.1905 61.9642L86.3956 62.0003L86.2992 62.5473L86.0071 62.4957C85.7709 62.4541 85.5672 62.4951 85.3959 62.6187C85.2253 62.7381 85.1162 62.9325 85.0688 63.2018L84.717 65.1968L84.139 65.0949ZM87.9642 65.8462C87.641 65.7893 87.3666 65.6618 87.1409 65.464C86.9152 65.2661 86.7532 65.0218 86.655 64.7311C86.5574 64.4362 86.5379 64.123 86.5963 63.7916C86.6555 63.456 86.7785 63.1701 86.9654 62.9339C87.1565 62.6984 87.3874 62.5277 87.6581 62.4216C87.9338 62.3121 88.2249 62.2844 88.5315 62.3385C88.7801 62.3823 88.9916 62.4666 89.1661 62.5914C89.3455 62.7127 89.488 62.8617 89.5935 63.0384C89.704 63.2117 89.7772 63.4019 89.8133 63.6091C89.8543 63.8128 89.8565 64.0182 89.82 64.2254C89.812 64.271 89.7987 64.322 89.7802 64.3786C89.7665 64.4317 89.7512 64.4824 89.7341 64.5307L86.9872 64.0463L87.0748 63.5491L89.4862 63.9743L89.1733 64.1498C89.2486 63.9409 89.2618 63.7446 89.2131 63.5609C89.1643 63.3771 89.072 63.222 88.9363 63.0955C88.8005 62.9691 88.6352 62.8887 88.4405 62.8543C88.2458 62.82 88.0589 62.8383 87.8797 62.9093C87.7006 62.9802 87.549 63.1009 87.425 63.2712C87.3059 63.4382 87.2323 63.6495 87.2043 63.9052C87.1446 64.1467 87.1439 64.3687 87.2022 64.5712C87.2653 64.7703 87.3727 64.9367 87.5243 65.0702C87.6808 65.2003 87.8606 65.2833 88.0636 65.3191C88.2873 65.3585 88.485 65.34 88.6565 65.2634C88.8281 65.1869 88.9758 65.0762 89.0996 64.9314L89.5405 65.2655C89.4472 65.4071 89.3187 65.5297 89.1552 65.6333C88.9966 65.7335 88.8154 65.8041 88.6116 65.8451C88.4121 65.8868 88.1962 65.8872 87.9642 65.8462ZM90.3779 66.1949L90.9686 62.8451L91.5341 62.9449L91.4191 63.5974L91.3357 63.525C91.4558 63.3283 91.6173 63.1881 91.82 63.1042C92.0277 63.0169 92.2558 62.9952 92.5044 63.039C92.7447 63.0814 92.9486 63.1729 93.116 63.3135C93.2876 63.4548 93.4105 63.6303 93.4846 63.8399C93.5628 64.0502 93.5808 64.2755 93.5384 64.5158L93.156 66.6848L92.5718 66.5818L92.9213 64.5992C92.9542 64.4128 92.9488 64.2495 92.9052 64.1094C92.8615 63.9692 92.7838 63.853 92.6719 63.7606C92.5649 63.6649 92.4327 63.6031 92.2752 63.5754C92.1178 63.5476 91.9703 63.56 91.8329 63.6127C91.7003 63.662 91.5871 63.7467 91.4933 63.8668C91.4002 63.9829 91.3376 64.132 91.3055 64.3143L90.9559 66.2969L90.3779 66.1949ZM95.4618 67.1298C95.1345 67.0721 94.8982 66.9343 94.7529 66.7165C94.6118 66.4993 94.5711 66.2209 94.631 65.8811L94.9423 64.1161L94.3332 64.0087L94.4307 63.4556L94.555 63.4775C94.7042 63.5038 94.8303 63.4791 94.9334 63.4033C95.0365 63.3274 95.1012 63.215 95.1275 63.0658L95.1757 62.7924L95.7537 62.8943L95.6178 63.6649L96.3698 63.7975L96.2723 64.3506L95.5203 64.218L95.2123 65.9644C95.1926 66.0763 95.192 66.1766 95.2105 66.2653C95.2332 66.3547 95.2816 66.4316 95.3557 66.4959C95.4305 66.5561 95.5363 66.5983 95.673 66.6224C95.702 66.6275 95.7376 66.6316 95.7798 66.6348C95.8261 66.6387 95.8682 66.6418 95.9063 66.6443L95.8164 67.1539C95.7604 67.1568 95.6988 67.1545 95.6318 67.147C95.564 67.1436 95.5074 67.1379 95.4618 67.1298ZM97.622 67.5492C97.4024 67.5105 97.2146 67.4368 97.0586 67.3281C96.9075 67.216 96.7967 67.0811 96.7263 66.9234C96.6566 66.7616 96.6381 66.5875 96.671 66.401C96.7024 66.2229 96.7678 66.0699 96.8673 65.9422C96.9716 65.8111 97.1133 65.7101 97.2924 65.6391C97.4756 65.5689 97.6952 65.535 97.9511 65.5374L99.2303 65.5515L99.1448 66.0362L97.9994 66.0265C97.7774 66.0258 97.6079 66.0664 97.491 66.1483C97.3781 66.231 97.3089 66.3448 97.2834 66.4898C97.2593 66.6265 97.293 66.75 97.3847 66.8601C97.4805 66.971 97.6112 67.041 97.777 67.0703C97.9883 67.1075 98.1782 67.0962 98.3469 67.0362C98.5204 66.9728 98.6642 66.8721 98.7782 66.7342C98.8964 66.5969 98.9719 66.4351 99.0048 66.2486L99.1549 65.3972C99.1871 65.2149 99.1446 65.0558 99.0276 64.9198C98.9155 64.7804 98.7497 64.6913 98.5301 64.6526C98.3395 64.619 98.1608 64.6388 97.9941 64.7119C97.8323 64.7816 97.702 64.8911 97.603 65.0403L97.1457 64.6905C97.2348 64.5481 97.3584 64.4289 97.5163 64.3329C97.6749 64.2327 97.8516 64.1635 98.0463 64.1252C98.2411 64.0869 98.4379 64.0853 98.6367 64.1203C98.8936 64.1656 99.1107 64.2552 99.2879 64.3889C99.4658 64.5186 99.5933 64.6799 99.6703 64.8729C99.7522 65.0625 99.7731 65.2712 99.7329 65.4991L99.3318 67.7738L98.7663 67.674L98.8781 67.0401L98.9771 67.096C98.8833 67.2162 98.7676 67.3154 98.6299 67.3937C98.4922 67.4719 98.3374 67.5258 98.1656 67.5553C97.9938 67.5848 97.8126 67.5828 97.622 67.5492ZM100.352 67.9537L101.182 63.249L101.76 63.351L100.93 68.0556L100.352 67.9537ZM104.336 68.7331C104.001 68.6739 103.723 68.5395 103.504 68.33C103.284 68.1204 103.148 67.8656 103.094 67.5656L103.593 67.423C103.653 67.6387 103.756 67.8191 103.901 67.9643C104.047 68.1096 104.221 68.2001 104.424 68.2359C104.606 68.268 104.765 68.2512 104.901 68.1854C105.036 68.1195 105.116 68.0162 105.141 67.8753C105.159 67.7759 105.144 67.6921 105.096 67.6238C105.053 67.5522 104.995 67.4928 104.922 67.4458C104.85 67.3946 104.782 67.3549 104.719 67.3267L104.241 67.095C103.954 66.9546 103.754 66.7912 103.641 66.6048C103.533 66.4191 103.498 66.2185 103.536 66.0031C103.571 65.8042 103.651 65.641 103.776 65.5136C103.906 65.3827 104.065 65.2911 104.254 65.239C104.447 65.1875 104.653 65.1811 104.872 65.2199C105.167 65.2717 105.417 65.3927 105.622 65.5828C105.832 65.7736 105.963 66.0124 106.015 66.2992L105.504 66.4335C105.46 66.2463 105.373 66.0899 105.241 65.9641C105.11 65.8342 104.951 65.7529 104.765 65.72C104.595 65.69 104.453 65.7098 104.338 65.7793C104.224 65.8446 104.156 65.9415 104.133 66.0699C104.116 66.1652 104.127 66.2483 104.166 66.3192C104.205 66.386 104.257 66.4422 104.322 66.4877C104.387 66.5292 104.451 66.5661 104.514 66.5985L105.032 66.8565C105.292 66.9834 105.482 67.1429 105.602 67.335C105.726 67.5277 105.767 67.7401 105.726 67.9721C105.694 68.1586 105.612 68.3172 105.482 68.4481C105.352 68.579 105.189 68.6698 104.992 68.7206C104.795 68.7713 104.577 68.7754 104.336 68.7331ZM107.417 69.2763C107.198 69.2376 107.01 69.1639 106.854 69.0552C106.703 68.9432 106.592 68.8083 106.522 68.6506C106.452 68.4888 106.433 68.3147 106.466 68.1282C106.498 67.95 106.563 67.7971 106.662 67.6694C106.767 67.5383 106.908 67.4372 107.088 67.3663C107.271 67.2961 107.49 67.2621 107.746 67.2645L109.025 67.2786L108.94 67.7634L107.795 67.7537C107.573 67.753 107.403 67.7936 107.286 67.8755C107.173 67.9581 107.104 68.0719 107.079 68.217C107.054 68.3537 107.088 68.4771 107.18 68.5873C107.276 68.6981 107.406 68.7682 107.572 68.7974C107.783 68.8347 107.973 68.8233 108.142 68.7633C108.316 68.6999 108.459 68.5993 108.573 68.4613C108.692 68.3241 108.767 68.1622 108.8 67.9758L108.95 67.1244C108.982 66.9421 108.94 66.7829 108.823 66.6469C108.711 66.5076 108.545 66.4185 108.325 66.3798C108.135 66.3462 107.956 66.3659 107.789 66.4391C107.628 66.5088 107.497 66.6183 107.398 66.7674L106.941 66.4176C107.03 66.2753 107.154 66.1561 107.312 66.0601C107.47 65.9599 107.647 65.8906 107.842 65.8523C108.036 65.814 108.233 65.8124 108.432 65.8475C108.689 65.8928 108.906 65.9823 109.083 66.1161C109.261 66.2457 109.388 66.4071 109.466 66.6001C109.547 66.7897 109.568 66.9984 109.528 67.2263L109.127 69.5009L108.561 69.4012L108.673 68.7673L108.772 68.8232C108.679 68.9434 108.563 69.0426 108.425 69.1208C108.287 69.1991 108.133 69.253 107.961 69.2825C107.789 69.312 107.608 69.3099 107.417 69.2763ZM110.49 69.7412L110.983 66.9445L110.343 66.8316L110.44 66.2785L111.08 66.3914L111.122 66.1552C111.164 65.9149 111.252 65.721 111.385 65.5735C111.522 65.4268 111.685 65.3253 111.874 65.269C112.068 65.2134 112.272 65.2046 112.488 65.2425C112.533 65.2506 112.582 65.2635 112.635 65.2813C112.692 65.2956 112.738 65.3103 112.774 65.3251L112.683 65.841C112.652 65.8268 112.613 65.8157 112.567 65.8077C112.522 65.7955 112.488 65.7872 112.463 65.7829C112.272 65.7493 112.107 65.7671 111.966 65.8363C111.83 65.9063 111.743 66.0469 111.706 66.2582L111.664 66.4944L112.46 66.6346L112.362 67.1878L111.567 67.0475L111.074 69.8442L110.49 69.7412ZM114.1 70.4547C113.777 70.3977 113.503 70.2703 113.277 70.0724C113.051 69.8746 112.889 69.6303 112.791 69.3395C112.693 69.0447 112.674 68.7315 112.732 68.4C112.791 68.0644 112.914 67.7785 113.101 67.5423C113.292 67.3069 113.523 67.1361 113.794 67.0301C114.07 66.9206 114.361 66.8929 114.667 66.947C114.916 66.9908 115.128 67.0751 115.302 67.1999C115.481 67.3212 115.624 67.4702 115.729 67.6469C115.84 67.8202 115.913 68.0104 115.949 68.2175C115.99 68.4213 115.992 68.6267 115.956 68.8339C115.948 68.8795 115.935 68.9305 115.916 68.9871C115.902 69.0402 115.887 69.0909 115.87 69.1391L113.123 68.6548L113.211 68.1576L115.622 68.5828L115.309 68.7583C115.385 68.5494 115.398 68.3531 115.349 68.1694C115.3 67.9856 115.208 67.8305 115.072 67.704C114.936 67.5776 114.771 67.4971 114.576 67.4628C114.382 67.4285 114.195 67.4468 114.016 67.5177C113.837 67.5887 113.685 67.7093 113.561 67.8797C113.442 68.0467 113.368 68.258 113.34 68.5136C113.281 68.7552 113.28 68.9772 113.338 69.1797C113.401 69.3788 113.509 69.5451 113.66 69.6787C113.817 69.8088 113.997 69.8917 114.2 69.9275C114.423 69.967 114.621 69.9484 114.792 69.8719C114.964 69.7953 115.112 69.6847 115.236 69.5399L115.676 69.874C115.583 70.0156 115.455 70.1382 115.291 70.2418C115.133 70.342 114.951 70.4126 114.748 70.4535C114.548 70.4952 114.332 70.4956 114.1 70.4547ZM116.514 70.8034L117.343 66.0988L117.921 66.2007L117.092 70.9053L116.514 70.8034ZM118.052 72.4844C117.978 72.4713 117.904 72.4519 117.832 72.4263C117.759 72.4049 117.691 72.3738 117.63 72.3331L117.721 71.8173C117.766 71.8295 117.82 71.8476 117.885 71.8718C117.953 71.8966 118.02 71.9149 118.086 71.9266C118.281 71.9609 118.436 71.9433 118.551 71.8739C118.67 71.8051 118.793 71.6752 118.921 71.4841L119.221 71.018L119.119 71.5192L118.325 67.6687L118.952 67.7794L119.561 70.8344L119.374 70.8015L120.984 68.1377L121.625 68.2506L119.454 71.7319C119.352 71.8976 119.232 72.0452 119.094 72.1746C118.96 72.3048 118.807 72.3974 118.634 72.4525C118.462 72.5118 118.268 72.5224 118.052 72.4844ZM123.84 72.1721C123.62 72.1334 123.432 72.0597 123.276 71.951C123.125 71.8389 123.014 71.704 122.944 71.5463C122.874 71.3845 122.856 71.2104 122.889 71.0239C122.92 70.8458 122.986 70.6928 123.085 70.5651C123.189 70.434 123.331 70.333 123.51 70.262C123.693 70.1918 123.913 70.1579 124.169 70.1603L125.448 70.1744L125.363 70.6591L124.217 70.6494C123.995 70.6487 123.826 70.6893 123.709 70.7712C123.596 70.8539 123.527 70.9677 123.501 71.1127C123.477 71.2494 123.511 71.3729 123.602 71.483C123.698 71.5939 123.829 71.6639 123.995 71.6932C124.206 71.7304 124.396 71.7191 124.565 71.6591C124.738 71.5957 124.882 71.495 124.996 71.3571C125.114 71.2198 125.19 71.058 125.223 70.8715L125.373 70.0201C125.405 69.8378 125.362 69.6787 125.245 69.5427C125.133 69.4033 124.967 69.3142 124.748 69.2755C124.557 69.2419 124.379 69.2617 124.212 69.3348C124.05 69.4045 123.92 69.514 123.821 69.6632L123.363 69.3134C123.453 69.171 123.576 69.0518 123.734 68.9558C123.893 68.8556 124.069 68.7864 124.264 68.7481C124.459 68.7098 124.656 68.7082 124.854 68.7432C125.111 68.7885 125.328 68.8781 125.506 69.0118C125.684 69.1415 125.811 69.3028 125.888 69.4958C125.97 69.6854 125.991 69.8941 125.951 70.122L125.55 72.3967L124.984 72.2969L125.096 71.663L125.195 71.7189C125.101 71.8391 124.985 71.9383 124.848 72.0166C124.71 72.0948 124.555 72.1487 124.383 72.1782C124.212 72.2077 124.03 72.2057 123.84 72.1721ZM126.57 72.5766L127.161 69.2268L127.726 69.3265L127.611 69.9791L127.528 69.9067C127.648 69.71 127.809 69.5697 128.012 69.4859C128.22 69.3986 128.448 69.3769 128.697 69.4207C128.937 69.4631 129.141 69.5545 129.308 69.6951C129.48 69.8365 129.603 70.0119 129.677 70.2215C129.755 70.4318 129.773 70.6571 129.731 70.8974L129.348 73.0664L128.764 72.9634L129.113 70.9809C129.146 70.7944 129.141 70.6312 129.097 70.491C129.054 70.3509 128.976 70.2347 128.864 70.1423C128.757 70.0465 128.625 69.9848 128.467 69.957C128.31 69.9292 128.162 69.9417 128.025 69.9944C127.892 70.0436 127.779 70.1283 127.685 70.2485C127.592 70.3645 127.53 70.5137 127.498 70.696L127.148 72.6785L126.57 72.5766ZM131.809 73.5772C131.494 73.5217 131.224 73.395 130.998 73.1972C130.776 73 130.617 72.7561 130.518 72.4654C130.42 72.1746 130.4 71.8656 130.458 71.5383C130.517 71.2027 130.642 70.9171 130.833 70.6817C131.025 70.4421 131.258 70.2676 131.534 70.1581C131.814 70.0494 132.111 70.0228 132.426 70.0783C132.703 70.1272 132.939 70.2308 133.134 70.3889C133.329 70.5429 133.471 70.7303 133.56 70.9511L133.442 71.0776L133.808 69.0018L134.392 69.1049L133.562 73.8095L132.997 73.7098L133.123 72.9951L133.18 73.1077C133.025 73.3068 132.825 73.4467 132.58 73.5274C132.34 73.6089 132.082 73.6255 131.809 73.5772ZM131.957 73.0267C132.169 73.0639 132.366 73.0454 132.55 72.971C132.734 72.8967 132.89 72.7788 133.016 72.6175C133.148 72.4527 133.233 72.2584 133.273 72.0347C133.313 71.8068 133.299 71.595 133.231 71.3993C133.168 71.2002 133.063 71.0343 132.915 70.9015C132.768 70.7687 132.588 70.6836 132.377 70.6464C132.17 70.6099 131.972 70.6305 131.783 70.7082C131.599 70.7826 131.444 70.9005 131.317 71.0618C131.191 71.219 131.107 71.4137 131.067 71.6457C131.027 71.8694 131.039 72.0808 131.102 72.2799C131.166 72.4749 131.272 72.6388 131.419 72.7716C131.567 72.9044 131.746 72.9894 131.957 73.0267ZM23.3516 64.5307L23.9423 61.1808L24.5078 61.2806L24.3993 61.8958L24.3525 61.7979C24.4648 61.6212 24.6098 61.5015 24.7875 61.4388C24.9659 61.372 25.1711 61.3591 25.4031 61.4L25.6082 61.4361L25.5118 61.9831L25.2197 61.9316C24.9835 61.8899 24.7798 61.9309 24.6084 62.0545C24.4379 62.1739 24.3288 62.3683 24.2813 62.6376L23.9296 64.6326L23.3516 64.5307ZM27.1768 65.282C26.8536 65.2251 26.5792 65.0976 26.3535 64.8998C26.1278 64.7019 25.9658 64.4576 25.8675 64.1669C25.77 63.872 25.7505 63.5588 25.8089 63.2274C25.8681 62.8918 25.9911 62.6059 26.178 62.3697C26.3691 62.1342 26.6 61.9635 26.8707 61.8574C27.1463 61.7479 27.4374 61.7202 27.744 61.7743C27.9926 61.8181 28.2042 61.9024 28.3787 62.0272C28.5581 62.1485 28.7006 62.2976 28.8061 62.4742C28.9166 62.6475 28.9898 62.8377 29.0259 63.0449C29.0669 63.2486 29.0691 63.454 29.0326 63.6612C29.0245 63.7068 29.0113 63.7578 28.9928 63.8144C28.9791 63.8675 28.9638 63.9182 28.9467 63.9665L26.1997 63.4821L26.2874 62.9849L28.6988 63.4101L28.3859 63.5856C28.4612 63.3768 28.4744 63.1804 28.4256 62.9967C28.3769 62.8129 28.2846 62.6578 28.1488 62.5313C28.0131 62.4049 27.8478 62.3245 27.6531 62.2901C27.4584 62.2558 27.2714 62.2741 27.0923 62.3451C26.9132 62.416 26.7616 62.5367 26.6376 62.707C26.5184 62.874 26.4449 63.0853 26.4169 63.341C26.3572 63.5825 26.3565 63.8045 26.4148 64.007C26.4779 64.2061 26.5853 64.3725 26.7369 64.506C26.8934 64.6361 27.0731 64.7191 27.2762 64.7549C27.4999 64.7943 27.6975 64.7758 27.8691 64.6992C28.0407 64.6227 28.1883 64.512 28.3121 64.3672L28.7531 64.7013C28.6597 64.8429 28.5313 64.9655 28.3678 65.0691C28.2092 65.1693 28.028 65.2399 27.8242 65.2809C27.6246 65.3226 27.4088 65.323 27.1768 65.282ZM29.5905 65.6307L30.42 60.9261L30.998 61.028L30.1685 65.7327L29.5905 65.6307ZM31.1896 65.9127L31.7803 62.5629L32.3582 62.6648L31.7676 66.0146L31.1896 65.9127ZM31.8745 62.0284L32.006 61.2826L32.584 61.3846L32.4525 62.1303L31.8745 62.0284ZM33.7575 66.4424C33.5379 66.4037 33.3501 66.33 33.1941 66.2213C33.043 66.1092 32.9322 65.9743 32.8618 65.8167C32.7921 65.6549 32.7736 65.4807 32.8065 65.2943C32.8379 65.1161 32.9033 64.9632 33.0028 64.8355C33.107 64.7043 33.2488 64.6033 33.4279 64.5323C33.6111 64.4621 33.8307 64.4282 34.0866 64.4306L35.3658 64.4447L35.2803 64.9295L34.1349 64.9197C33.9129 64.919 33.7434 64.9596 33.6264 65.0416C33.5136 65.1242 33.4444 65.238 33.4188 65.383C33.3947 65.5198 33.4285 65.6432 33.5202 65.7533C33.616 65.8642 33.7467 65.9343 33.9125 65.9635C34.1238 66.0007 34.3137 65.9894 34.4824 65.9294C34.6559 65.866 34.7997 65.7653 34.9137 65.6274C35.0319 65.4902 35.1074 65.3283 35.1403 65.1419L35.2904 64.2904C35.3226 64.1081 35.2801 63.949 35.1631 63.813C35.051 63.6736 34.8851 63.5846 34.6656 63.5459C34.475 63.5122 34.2963 63.532 34.1296 63.6052C33.9678 63.6749 33.8374 63.7843 33.7385 63.9335L33.2811 63.5837C33.3703 63.4414 33.4939 63.3222 33.6518 63.2261C33.8104 63.1259 33.9871 63.0567 34.1818 63.0184C34.3766 62.9801 34.5734 62.9785 34.7722 63.0136C35.0291 63.0589 35.2462 63.1484 35.4234 63.2822C35.6013 63.4118 35.7288 63.5731 35.8058 63.7661C35.8877 63.9557 35.9086 64.1645 35.8684 64.3923L35.4673 66.667L34.9018 66.5673L35.0135 65.9334L35.1126 65.9893C35.0188 66.1094 34.9031 66.2086 34.7654 66.2869C34.6277 66.3651 34.4729 66.419 34.3011 66.4485C34.1293 66.4781 33.9481 66.476 33.7575 66.4424ZM38.2086 67.2272C37.9393 67.1798 37.7033 67.0762 37.5008 66.9166C37.3024 66.7577 37.1625 66.5579 37.081 66.3171L37.1794 66.2319L37.0533 66.9466L36.4878 66.8469L37.3173 62.1423L37.8953 62.2442L37.5293 64.3199L37.4675 64.1617C37.6269 63.9847 37.8245 63.8572 38.0604 63.7792C38.297 63.697 38.5542 63.6804 38.8318 63.7294C39.1466 63.7849 39.4149 63.9112 39.6364 64.1084C39.8621 64.3062 40.0241 64.5505 40.1224 64.8413C40.2214 65.1279 40.2413 65.439 40.1821 65.7746C40.1244 66.1019 39.9996 66.3853 39.8079 66.6249C39.6161 66.8645 39.3803 67.0387 39.1006 67.1474C38.8249 67.2569 38.5276 67.2835 38.2086 67.2272ZM38.2637 66.6602C38.475 66.6975 38.6727 66.6789 38.8566 66.6046C39.0406 66.5302 39.1939 66.412 39.3165 66.2499C39.4439 66.0844 39.5274 65.8898 39.5668 65.6661C39.6077 65.434 39.5959 65.2226 39.5313 65.0318C39.4715 64.8376 39.3679 64.6741 39.2205 64.5413C39.0737 64.4043 38.8947 64.3172 38.6834 64.2799C38.4721 64.2427 38.2724 64.2609 38.0842 64.3345C37.9002 64.4089 37.7425 64.5284 37.6109 64.6932C37.4842 64.8545 37.4007 65.0492 37.3605 65.277C37.3211 65.5008 37.3329 65.7122 37.3961 65.9113C37.4641 66.107 37.5719 66.2712 37.7193 66.404C37.8709 66.5376 38.0524 66.623 38.2637 66.6602ZM40.7695 67.6019L41.599 62.8973L42.177 62.9992L41.3475 67.7038L40.7695 67.6019ZM42.3077 69.2829C42.2332 69.2698 42.1597 69.2504 42.0873 69.2248C42.0142 69.2034 41.947 69.1723 41.8858 69.1316L41.9768 68.6158C42.0216 68.628 42.0761 68.6461 42.1402 68.6702C42.2085 68.6951 42.2757 68.7134 42.342 68.7251C42.5368 68.7594 42.6915 68.7418 42.8063 68.6723C42.9252 68.6036 43.0485 68.4737 43.1762 68.2826L43.4763 67.8165L43.3751 68.3177L42.5801 64.4672L43.2079 64.5779L43.8162 67.6329L43.6298 67.6L45.2401 64.9362L45.8802 65.0491L43.7092 68.5304C43.6074 68.6961 43.4874 68.8437 43.3492 68.9731C43.2152 69.1033 43.0621 69.1959 42.8901 69.251C42.7173 69.3103 42.5232 69.3209 42.3077 69.2829ZM45.9154 68.5093L46.0469 67.7635L46.6497 67.8698L46.5182 68.6156L45.9154 68.5093ZM51.2423 69.5254C50.9149 69.4677 50.6186 69.3557 50.3531 69.1892C50.0885 69.0187 49.8674 68.8067 49.6899 68.5532C49.5166 68.3005 49.3954 68.0186 49.3264 67.7074C49.2581 67.392 49.2543 67.0624 49.3149 66.7185C49.3763 66.3704 49.4926 66.062 49.6639 65.7932C49.8352 65.5243 50.0455 65.3008 50.2948 65.1226C50.5483 64.9452 50.8261 64.8233 51.1283 64.7569C51.4346 64.6913 51.7535 64.6878 52.085 64.7462C52.4164 64.8046 52.7124 64.9188 52.973 65.0886C53.2384 65.255 53.4578 65.4646 53.6311 65.7173C53.8093 65.9666 53.9329 66.2469 54.0019 66.5581C54.0751 66.87 54.081 67.2 54.0196 67.548C53.959 67.8919 53.8406 68.2 53.6644 68.4723C53.4931 68.7411 53.2807 68.9642 53.0273 69.1417C52.778 69.3199 52.4998 69.4439 52.1927 69.5136C51.8906 69.5799 51.5737 69.5839 51.2423 69.5254ZM51.342 68.9599C51.5989 69.0052 51.841 69.0009 52.0684 68.947C52.2965 68.889 52.5018 68.7906 52.6843 68.6519C52.8717 68.5098 53.0262 68.3362 53.1478 68.1312C53.2743 67.9229 53.3598 67.6923 53.4043 67.4396C53.4489 67.1868 53.447 66.943 53.3987 66.708C53.3546 66.4738 53.2684 66.26 53.1402 66.0665C53.0168 65.8696 52.8576 65.7069 52.6623 65.5785C52.4678 65.446 52.2421 65.3571 51.9853 65.3118C51.7325 65.2672 51.4921 65.2739 51.264 65.332C51.0366 65.3859 50.8292 65.4839 50.6418 65.626C50.4593 65.7647 50.3052 65.9361 50.1794 66.1404C50.0537 66.3446 49.9686 66.5731 49.924 66.8259C49.8794 67.0786 49.8809 67.3245 49.9285 67.5636C49.9768 67.7985 50.0626 68.0145 50.1859 68.2114C50.3142 68.4048 50.4755 68.5679 50.67 68.7004C50.8653 68.8288 51.0892 68.9153 51.342 68.9599ZM54.9093 70.0951L55.4025 67.2984L54.7623 67.1856L54.8599 66.6325L55.5 66.7453L55.5416 66.5092C55.584 66.2689 55.6716 66.075 55.8044 65.9275C55.9413 65.7808 56.1045 65.6792 56.2938 65.6229C56.4873 65.5673 56.6918 65.5585 56.9073 65.5965C56.9528 65.6045 57.0018 65.6175 57.0542 65.6352C57.1115 65.6496 57.1581 65.6642 57.1939 65.6791L57.1029 66.1949C57.0713 66.1808 57.0326 66.1697 56.987 66.1617C56.9422 66.1495 56.9073 66.1412 56.8825 66.1368C56.6919 66.1032 56.5264 66.121 56.386 66.1903C56.2498 66.2602 56.1631 66.4009 56.1258 66.6122L56.0842 66.8483L56.8797 66.9886L56.7822 67.5417L55.9866 67.4015L55.4935 70.1981L54.9093 70.0951ZM59.8886 71.05C59.5613 70.9923 59.2828 70.8642 59.0529 70.6656C58.8272 70.4677 58.6652 70.2234 58.567 69.9327C58.4687 69.6419 58.4488 69.3308 58.5072 68.9994C58.5664 68.6638 58.6915 68.3782 58.8826 68.1428C59.0736 67.9073 59.309 67.7352 59.5888 67.6265C59.8727 67.5185 60.1783 67.4933 60.5056 67.5511C60.7252 67.5898 60.9234 67.6653 61.1001 67.7776C61.2768 67.89 61.4259 68.0252 61.5476 68.1834C61.6692 68.3415 61.7475 68.5155 61.7823 68.7054L61.2227 68.863C61.1746 68.6751 61.0793 68.513 60.9367 68.3768C60.7949 68.2365 60.6183 68.1477 60.407 68.1104C60.204 68.0746 60.0105 68.0939 59.8265 68.1682C59.6466 68.2433 59.4933 68.3615 59.3666 68.5229C59.2399 68.6843 59.1561 68.881 59.1152 69.113C59.0757 69.3367 59.0876 69.5481 59.1507 69.7472C59.2146 69.9422 59.3182 70.1057 59.4615 70.2378C59.609 70.3706 59.7843 70.4549 59.9873 70.4907C60.1986 70.5279 60.3945 70.507 60.5751 70.4277C60.7564 70.3444 60.9025 70.2185 61.0134 70.05L61.4832 70.402C61.3862 70.5643 61.2532 70.7011 61.084 70.8122C60.9156 70.9193 60.7292 70.9953 60.5247 71.0404C60.3203 71.0855 60.1082 71.0887 59.8886 71.05ZM63.7949 71.7388C63.4718 71.6818 63.1928 71.5557 62.9581 71.3606C62.7241 71.1612 62.5538 70.9155 62.4473 70.6233C62.3407 70.3311 62.3171 70.0172 62.3762 69.6816C62.4354 69.346 62.5626 69.0608 62.7578 68.8261C62.9571 68.5921 63.2008 68.4215 63.4888 68.3142C63.7769 68.2069 64.0846 68.1821 64.4119 68.2398C64.7351 68.2968 65.0137 68.425 65.2477 68.6243C65.4824 68.8195 65.6513 69.0607 65.7544 69.3481C65.8617 69.6361 65.8854 69.95 65.8255 70.2898C65.7656 70.6295 65.6335 70.9181 65.4293 71.1555C65.2259 71.3888 64.9801 71.559 64.692 71.6663C64.4089 71.7702 64.1098 71.7943 63.7949 71.7388ZM63.8936 71.1795C64.1007 71.216 64.2963 71.1971 64.4803 71.1227C64.6684 71.0491 64.8262 70.9295 64.9537 70.764C65.0852 70.5993 65.1708 70.405 65.2102 70.1813C65.2504 69.9534 65.2361 69.7437 65.1674 69.5521C65.1035 69.3572 64.9957 69.1929 64.8441 69.0594C64.6974 68.9224 64.5204 68.8357 64.3133 68.7992C64.102 68.7619 63.9019 68.7822 63.713 68.8599C63.529 68.9343 63.3716 69.0518 63.2407 69.2124C63.1106 69.3689 63.0255 69.5611 62.9853 69.789C62.9458 70.0127 62.9598 70.2245 63.0271 70.4243C63.0943 70.6242 63.2017 70.7905 63.3492 70.9233C63.5008 71.0568 63.6823 71.1422 63.8936 71.1795ZM67.5816 72.4065C67.3413 72.3641 67.1337 72.2698 66.9587 72.1236C66.7878 71.9782 66.666 71.7965 66.5934 71.5786C66.5256 71.3573 66.5147 71.1162 66.5607 70.8552L66.93 68.7608L67.508 68.8627L67.1497 70.8949C67.1205 71.0607 67.128 71.2115 67.1724 71.3475C67.2209 71.4842 67.2991 71.5984 67.4068 71.69C67.5187 71.7824 67.6533 71.8424 67.8108 71.8702C67.9682 71.8979 68.1132 71.8872 68.2458 71.838C68.3825 71.7894 68.4957 71.7047 68.5854 71.5838C68.6792 71.4637 68.7422 71.3124 68.7743 71.1301L69.1239 69.1476L69.7081 69.2506L69.1174 72.6004L68.5519 72.5007L68.6669 71.8481L68.7503 71.9205C68.6343 72.1179 68.4704 72.2599 68.2587 72.3465C68.0518 72.4296 67.8261 72.4496 67.5816 72.4065ZM70.1371 72.7802L70.7278 69.4304L71.2934 69.5301L71.1849 70.1454L71.1381 70.0474C71.2504 69.8707 71.3954 69.751 71.573 69.6884C71.7514 69.6216 71.9566 69.6086 72.1887 69.6495L72.3938 69.6857L72.2973 70.2326L72.0052 70.1811C71.7691 70.1395 71.5653 70.1804 71.394 70.304C71.2234 70.4235 71.1144 70.6178 71.0669 70.8872L70.7151 72.8821L70.1371 72.7802ZM73.6205 73.4713C73.2849 73.4122 73.0075 73.2778 72.7881 73.0682C72.5687 72.8587 72.4321 72.6039 72.3782 72.3039L72.8775 72.1612C72.9377 72.3769 73.0405 72.5574 73.1858 72.7026C73.331 72.8478 73.5052 72.9383 73.7082 72.9741C73.8905 73.0063 74.0494 72.9894 74.1849 72.9236C74.3204 72.8578 74.4006 72.7545 74.4254 72.6136C74.4429 72.5142 74.4278 72.4303 74.38 72.3621C74.3371 72.2904 74.2793 72.2311 74.2064 72.1841C74.1342 72.1329 74.0665 72.0932 74.0031 72.0649L73.5249 71.8332C73.2378 71.6929 73.038 71.5295 72.9257 71.3431C72.8174 71.1574 72.7823 70.9568 72.8203 70.7414C72.8554 70.5425 72.9354 70.3793 73.0604 70.2518C73.1903 70.1209 73.3495 70.0294 73.5382 69.9772C73.7309 69.9258 73.9371 69.9194 74.1567 69.9581C74.4509 70.01 74.7008 70.131 74.9066 70.321C75.1164 70.5118 75.2473 70.7506 75.2993 71.0375L74.7886 71.1717C74.7447 70.9846 74.6569 70.8281 74.5253 70.7024C74.3944 70.5725 74.2358 70.4911 74.0493 70.4582C73.8794 70.4283 73.7371 70.448 73.6223 70.5175C73.5083 70.5828 73.4399 70.6797 73.4173 70.8082C73.4005 70.9035 73.4115 70.9866 73.4502 71.0575C73.4897 71.1243 73.5417 71.1804 73.6063 71.226C73.6717 71.2674 73.7356 71.3043 73.7983 71.3367L74.3167 71.5948C74.5763 71.7217 74.766 71.8812 74.886 72.0732C75.01 72.266 75.0516 72.4784 75.0107 72.7104C74.9778 72.8968 74.8965 73.0555 74.7666 73.1864C74.6367 73.3173 74.4733 73.4081 74.2764 73.4588C74.0795 73.5095 73.8609 73.5137 73.6205 73.4713ZM77.2609 74.1132C76.9377 74.0562 76.6632 73.9288 76.4375 73.7309C76.2118 73.5331 76.0498 73.2888 75.9516 72.998C75.8541 72.7032 75.8345 72.39 75.893 72.0585C75.9521 71.7229 76.0752 71.437 76.2621 71.2008C76.4531 70.9654 76.684 70.7946 76.9548 70.6886C77.2304 70.5791 77.5215 70.5514 77.8281 70.6055C78.0767 70.6493 78.2882 70.7336 78.4628 70.8584C78.6422 70.9797 78.7846 71.1287 78.8902 71.3054C79.0006 71.4787 79.0739 71.6689 79.11 71.876C79.1509 72.0798 79.1532 72.2852 79.1166 72.4924C79.1086 72.538 79.0953 72.589 79.0768 72.6456C79.0632 72.6987 79.0478 72.7494 79.0308 72.7976L76.2838 72.3133L76.3715 71.8161L78.7828 72.2413L78.4699 72.4168C78.5452 72.2079 78.5585 72.0116 78.5097 71.8279C78.4609 71.6441 78.3687 71.489 78.2329 71.3625C78.0971 71.2361 77.9319 71.1556 77.7371 71.1213C77.5424 71.087 77.3555 71.1053 77.1764 71.1762C76.9972 71.2472 76.8457 71.3678 76.7216 71.5382C76.6025 71.7052 76.5289 71.9165 76.5009 72.1721C76.4413 72.4137 76.4405 72.6357 76.4988 72.8382C76.562 73.0373 76.6694 73.2036 76.821 73.3372C76.9774 73.4673 77.1572 73.5502 77.3602 73.586C77.584 73.6255 77.7816 73.6069 77.9532 73.5304C78.1247 73.4538 78.2724 73.3432 78.3962 73.1984L78.8371 73.5325C78.7438 73.6741 78.6154 73.7967 78.4519 73.9003C78.2932 74.0005 78.112 74.0711 77.9083 74.112C77.7087 74.1537 77.4929 74.1541 77.2609 74.1132ZM81.8419 74.921C81.6223 74.8823 81.4345 74.8086 81.2785 74.6999C81.1274 74.5878 81.0166 74.4529 80.9461 74.2952C80.8764 74.1334 80.858 73.9593 80.8909 73.7728C80.9223 73.5947 80.9877 73.4417 81.0871 73.314C81.1914 73.1829 81.3331 73.0819 81.5122 73.0109C81.6955 72.9407 81.9151 72.9068 82.171 72.9092L83.4501 72.9233L83.3646 73.408L82.2193 73.3983C81.9973 73.3976 81.8278 73.4382 81.7108 73.5201C81.598 73.6028 81.5288 73.7166 81.5032 73.8616C81.4791 73.9983 81.5129 74.1218 81.6045 74.2319C81.7003 74.3428 81.8311 74.4128 81.9968 74.4421C82.2081 74.4793 82.3981 74.468 82.5667 74.408C82.7403 74.3446 82.884 74.2439 82.9981 74.106C83.1163 73.9687 83.1918 73.8069 83.2247 73.6204L83.3748 72.769C83.4069 72.5867 83.3645 72.4276 83.2475 72.2916C83.1354 72.1522 82.9695 72.0631 82.7499 72.0244C82.5593 71.9908 82.3807 72.0106 82.214 72.0837C82.0522 72.1534 81.9218 72.2629 81.8229 72.4121L81.3655 72.0623C81.4547 71.9199 81.5782 71.8007 81.7362 71.7047C81.8948 71.6045 82.0715 71.5353 82.2662 71.497C82.4609 71.4587 82.6577 71.4571 82.8566 71.4921C83.1135 71.5374 83.3305 71.627 83.5077 71.7607C83.6857 71.8904 83.8131 72.0517 83.8902 72.2447C83.9721 72.4343 83.993 72.643 83.9528 72.8709L83.5517 75.1456L82.9861 75.0458L83.0979 74.4119L83.197 74.4678C83.1032 74.588 82.9874 74.6872 82.8497 74.7655C82.7121 74.8437 82.5573 74.8976 82.3855 74.9271C82.2137 74.9566 82.0325 74.9546 81.8419 74.921ZM85.8659 75.5921C85.5386 75.5344 85.3023 75.3966 85.157 75.1787C85.0159 74.9616 84.9753 74.6831 85.0352 74.3434L85.3464 72.5784L84.7373 72.471L84.8349 71.9179L84.9592 71.9398C85.1083 71.9661 85.2345 71.9413 85.3375 71.8655C85.4406 71.7897 85.5053 71.6772 85.5316 71.5281L85.5798 71.2546L86.1578 71.3565L86.0219 72.1272L86.7739 72.2598L86.6764 72.8129L85.9244 72.6803L85.6165 74.4267C85.5967 74.5385 85.5961 74.6388 85.6147 74.7275C85.6373 74.817 85.6857 74.8939 85.7598 74.9582C85.8347 75.0184 85.9404 75.0605 86.0772 75.0846C86.1062 75.0897 86.1418 75.0939 86.1839 75.097C86.2302 75.1009 86.2724 75.1041 86.3104 75.1065L86.2205 75.6162C86.1645 75.6191 86.103 75.6168 86.0359 75.6092C85.9682 75.6058 85.9115 75.6001 85.8659 75.5921ZM89.2672 76.2303C89.0476 76.1915 88.8598 76.1178 88.7038 76.0092C88.5527 75.8971 88.4419 75.7622 88.3715 75.6045C88.3017 75.4427 88.2833 75.2686 88.3162 75.0821C88.3476 74.904 88.413 74.751 88.5124 74.6233C88.6167 74.4922 88.7584 74.3911 88.9376 74.3202C89.1208 74.25 89.3404 74.2161 89.5963 74.2185L90.8754 74.2326L90.79 74.7173L89.6446 74.7076C89.4226 74.7069 89.2531 74.7475 89.1361 74.8294C89.0233 74.912 88.9541 75.0259 88.9285 75.1709C88.9044 75.3076 88.9382 75.431 89.0298 75.5412C89.1256 75.6521 89.2564 75.7221 89.4221 75.7513C89.6334 75.7886 89.8234 75.7772 89.9921 75.7173C90.1656 75.6539 90.3093 75.5532 90.4234 75.4152C90.5416 75.278 90.6171 75.1162 90.65 74.9297L90.8001 74.0783C90.8323 73.896 90.7898 73.7368 90.6728 73.6009C90.5607 73.4615 90.3948 73.3724 90.1752 73.3337C89.9847 73.3001 89.806 73.3199 89.6393 73.393C89.4775 73.4627 89.3471 73.5722 89.2482 73.7213L88.7908 73.3716C88.88 73.2292 89.0036 73.11 89.1615 73.014C89.3201 72.9138 89.4968 72.8445 89.6915 72.8063C89.8862 72.768 90.083 72.7664 90.2819 72.8014C90.5388 72.8467 90.7558 72.9363 90.933 73.07C91.111 73.1997 91.2384 73.361 91.3155 73.554C91.3974 73.7436 91.4183 73.9523 91.3781 74.1802L90.977 76.4548L90.4115 76.3551L90.5232 75.7212L90.6223 75.7771C90.5285 75.8973 90.4127 75.9965 90.2751 76.0747C90.1374 76.153 89.9826 76.2069 89.8108 76.2364C89.639 76.2659 89.4578 76.2639 89.2672 76.2303ZM93.196 76.8461L94.0256 72.1415L94.6035 72.2434L93.774 76.948L93.196 76.8461ZM96.373 77.4832C96.0498 77.4262 95.7709 77.3001 95.5361 77.1049C95.3021 76.9056 95.1319 76.6599 95.0253 76.3677C94.9188 76.0755 94.8951 75.7616 94.9543 75.426C95.0134 75.0904 95.1406 74.8052 95.3358 74.5705C95.5351 74.3365 95.7788 74.1658 96.0669 74.0586C96.3549 73.9513 96.6626 73.9265 96.9899 73.9842C97.3131 74.0412 97.5917 74.1694 97.8257 74.3687C98.0604 74.5639 98.2293 74.8051 98.3325 75.0925C98.4397 75.3805 98.4634 75.6944 98.4035 76.0342C98.3436 76.3739 98.2116 76.6625 98.0074 76.8999C97.8039 77.1331 97.5581 77.3034 97.2701 77.4107C96.9869 77.5146 96.6879 77.5387 96.373 77.4832ZM96.4716 76.9239C96.6788 76.9604 96.8743 76.9415 97.0583 76.8671C97.2465 76.7935 97.4043 76.6739 97.5317 76.5084C97.6633 76.3437 97.7488 76.1494 97.7882 75.9257C97.8284 75.6978 97.8141 75.4881 97.7454 75.2965C97.6815 75.1016 97.5738 74.9373 97.4222 74.8038C97.2754 74.6668 97.0985 74.5801 96.8913 74.5436C96.68 74.5063 96.4799 74.5266 96.291 74.6043C96.1071 74.6787 95.9496 74.7962 95.8188 74.9568C95.6887 75.1133 95.6035 75.3055 95.5633 75.5334C95.5239 75.7571 95.5378 75.9689 95.6051 76.1687C95.6724 76.3685 95.7798 76.5349 95.9272 76.6677C96.0788 76.8012 96.2603 76.8866 96.4716 76.9239ZM99.6957 77.9922L99.1366 74.4396L99.7768 74.5525L100.196 77.5165L99.9735 77.4708L101.362 74.832L101.908 74.9284L102.31 77.8829L102.085 77.8497L103.499 75.2089L104.133 75.3207L102.393 78.4678L101.84 78.3703L101.45 75.418L101.625 75.4486L100.249 78.0897L99.6957 77.9922ZM105.163 80.2379L105.973 75.6451L106.539 75.7448L106.412 76.4658L106.362 76.3097C106.522 76.1327 106.719 76.0052 106.955 75.9272C107.192 75.845 107.449 75.8284 107.726 75.8774C108.041 75.9329 108.31 76.0592 108.531 76.2564C108.757 76.4542 108.919 76.6985 109.017 76.9893C109.116 77.2758 109.136 77.5869 109.077 77.9226C109.019 78.2499 108.894 78.5333 108.703 78.7729C108.511 79.0125 108.275 79.1867 107.995 79.2954C107.72 79.4049 107.422 79.4315 107.103 79.3752C106.834 79.3278 106.598 79.2242 106.395 79.0646C106.197 78.9057 106.057 78.7059 105.976 78.4651L106.086 78.3821L105.741 80.3398L105.163 80.2379ZM107.158 78.8082C107.37 78.8455 107.567 78.8269 107.751 78.7526C107.935 78.6782 108.089 78.56 108.211 78.3979C108.339 78.2324 108.422 78.0378 108.462 77.8141C108.502 77.582 108.491 77.3706 108.426 77.1798C108.366 76.9856 108.263 76.8221 108.115 76.6892C107.968 76.5523 107.789 76.4652 107.578 76.4279C107.367 76.3907 107.167 76.4089 106.979 76.4825C106.795 76.5568 106.637 76.6764 106.506 76.8412C106.379 77.0025 106.295 77.1972 106.255 77.425C106.216 77.6488 106.228 77.8602 106.291 78.0593C106.359 78.255 106.467 78.4192 106.614 78.552C106.766 78.6856 106.947 78.771 107.158 78.8082ZM109.664 79.7499L110.255 76.4001L110.82 76.4998L110.712 77.1151L110.665 77.0171C110.777 76.8404 110.922 76.7207 111.1 76.6581C111.278 76.5913 111.484 76.5783 111.716 76.6192L111.921 76.6554L111.824 77.2023L111.532 77.1508C111.296 77.1092 111.092 77.1501 110.921 77.2737C110.75 77.3932 110.641 77.5875 110.594 77.8568L110.242 79.8518L109.664 79.7499ZM111.961 80.1549L112.552 76.8051L113.13 76.907L112.539 80.2569L111.961 80.1549ZM112.646 76.2706L112.778 75.5249L113.356 75.6268L113.224 76.3726L112.646 76.2706ZM115.101 80.7854C114.774 80.7277 114.495 80.5996 114.265 80.401C114.039 80.2031 113.878 79.9588 113.779 79.6681C113.681 79.3773 113.661 79.0662 113.72 78.7348C113.779 78.3992 113.904 78.1136 114.095 77.8782C114.286 77.6427 114.521 77.4706 114.801 77.3619C115.085 77.2539 115.391 77.2288 115.718 77.2865C115.937 77.3252 116.136 77.4007 116.312 77.513C116.489 77.6254 116.638 77.7606 116.76 77.9188C116.882 78.0769 116.96 78.2509 116.995 78.4408L116.435 78.5984C116.387 78.4105 116.292 78.2485 116.149 78.1122C116.007 77.9719 115.831 77.8831 115.619 77.8458C115.416 77.81 115.223 77.8293 115.039 77.9037C114.859 77.9787 114.706 78.097 114.579 78.2583C114.452 78.4197 114.368 78.6164 114.327 78.8484C114.288 79.0721 114.3 79.2835 114.363 79.4826C114.427 79.6776 114.531 79.8411 114.674 79.9732C114.821 80.106 114.997 80.1903 115.2 80.2261C115.411 80.2634 115.607 80.2424 115.787 80.1631C115.969 80.0798 116.115 79.9539 116.226 79.7854L116.695 80.1374C116.598 80.2998 116.465 80.4365 116.296 80.5477C116.128 80.6547 115.942 80.7307 115.737 80.7759C115.533 80.821 115.321 80.8242 115.101 80.7854ZM118.958 81.4655C118.634 81.4085 118.36 81.2811 118.134 81.0832C117.908 80.8853 117.746 80.641 117.648 80.3503C117.551 80.0554 117.531 79.7422 117.59 79.4108C117.649 79.0752 117.772 78.7893 117.959 78.5531C118.15 78.3176 118.381 78.1469 118.651 78.0408C118.927 77.9314 119.218 77.9037 119.525 77.9577C119.773 78.0016 119.985 78.0859 120.159 78.2106C120.339 78.332 120.481 78.481 120.587 78.6576C120.697 78.8309 120.771 79.0211 120.807 79.2283C120.848 79.432 120.85 79.6375 120.813 79.8446C120.805 79.8902 120.792 79.9413 120.773 79.9978C120.76 80.0509 120.744 80.1016 120.727 80.1499L117.98 79.6655L118.068 79.1683L120.479 79.5935L120.167 79.769C120.242 79.5602 120.255 79.3639 120.206 79.1801C120.158 78.9963 120.065 78.8412 119.93 78.7148C119.794 78.5883 119.629 78.5079 119.434 78.4736C119.239 78.4392 119.052 78.4575 118.873 78.5285C118.694 78.5994 118.542 78.7201 118.418 78.8905C118.299 79.0574 118.226 79.2687 118.198 79.5244C118.138 79.7659 118.137 79.9879 118.195 80.1905C118.259 80.3896 118.366 80.5559 118.518 80.6894C118.674 80.8195 118.854 80.9025 119.057 80.9383C119.281 80.9777 119.478 80.9592 119.65 80.8826C119.821 80.8061 119.969 80.6954 120.093 80.5506L120.534 80.8847C120.44 81.0263 120.312 81.1489 120.149 81.2525C119.99 81.3527 119.809 81.4233 119.605 81.4643C119.405 81.506 119.19 81.5064 118.958 81.4655ZM121.607 81.8558L121.739 81.11L122.342 81.2163L122.21 81.9621L121.607 81.8558Z" fill="white"/>
<rect x="21.187" y="74.1899" width="47.3306" height="17.3545" rx="1.57769" transform="rotate(10 21.187 74.1899)" fill="#3563E9"/>
<path d="M27.7522 86.4607L28.5686 81.8306L30.2529 82.1276C30.5636 82.1823 30.8268 82.2886 31.0425 82.4462C31.259 82.5997 31.4141 82.798 31.508 83.0409C31.6067 83.2805 31.6294 83.5515 31.5761 83.854C31.5198 84.173 31.3908 84.4322 31.1891 84.6316C30.9914 84.8317 30.7488 84.9598 30.4613 85.0159L31.2015 87.0688L30.3687 86.922L29.5875 84.7016L30.0167 85.0657L28.7924 84.8498L28.4856 86.59L27.7522 86.4607ZM28.9075 84.1972L29.8708 84.3671C30.0407 84.397 30.1936 84.3898 30.3296 84.3455C30.4656 84.3011 30.5769 84.2267 30.6637 84.1224C30.7553 84.0147 30.8153 83.88 30.8438 83.7184C30.8723 83.5568 30.8616 83.4118 30.8116 83.2834C30.7665 83.1516 30.6873 83.0436 30.5739 82.9595C30.4613 82.8713 30.3201 82.8123 30.1502 82.7823L29.1869 82.6124L28.9075 84.1972ZM33.1275 87.4854C32.7919 87.4262 32.5071 87.2969 32.2731 87.0976C32.044 86.8949 31.8803 86.6481 31.782 86.3574C31.6845 86.0625 31.665 85.7493 31.7234 85.4179C31.7833 85.0781 31.9088 84.7905 32.0998 84.5551C32.295 84.3204 32.5301 84.1503 32.805 84.045C33.0806 83.9355 33.3758 83.9086 33.6907 83.9641C33.9435 84.0087 34.1616 84.092 34.3451 84.2141C34.5287 84.3361 34.6753 84.4859 34.785 84.6633C34.8954 84.8365 34.9687 85.0268 35.0048 85.2339C35.045 85.4418 35.0458 85.6555 35.007 85.8751C34.9976 85.929 34.9856 85.9845 34.9712 86.0418C34.9569 86.0991 34.9391 86.1515 34.9179 86.199L32.2393 85.7267L32.3379 85.1674L34.6188 85.5696L34.2382 85.7652C34.3155 85.5695 34.3327 85.3867 34.2901 85.2168C34.2523 85.0435 34.171 84.8989 34.0462 84.7829C33.9263 84.6635 33.7731 84.5874 33.5866 84.5545C33.4002 84.5216 33.226 84.5401 33.0642 84.6098C32.9031 84.6754 32.7679 84.7882 32.6585 84.9484C32.5498 85.1043 32.4822 85.306 32.4557 85.5534C32.3948 85.7776 32.3908 85.982 32.4437 86.1665C32.5008 86.3517 32.5975 86.5055 32.734 86.6278C32.8747 86.7508 33.0444 86.8299 33.2433 86.865C33.4463 86.9008 33.6263 86.8855 33.7832 86.8192C33.9443 86.7536 34.0791 86.6556 34.1875 86.5252L34.71 86.9057C34.6159 87.0515 34.4871 87.1761 34.3236 87.2797C34.165 87.3799 33.9817 87.4501 33.7738 87.4904C33.5708 87.5272 33.3554 87.5255 33.1275 87.4854ZM35.3735 87.8045L35.9664 84.4423L36.6376 84.5606L36.5214 85.2194L36.456 85.1181C36.5761 84.9214 36.7368 84.7853 36.9381 84.7097C37.1401 84.63 37.3613 84.6113 37.6016 84.6537C37.8502 84.6975 38.0603 84.7901 38.2319 84.9314C38.4035 85.0728 38.5264 85.2482 38.6005 85.4578C38.6746 85.6674 38.6897 85.8965 38.6459 86.1451L38.2635 88.3141L37.5674 88.1913L37.917 86.2088C37.9469 86.0389 37.941 85.8905 37.8994 85.7635C37.8584 85.6324 37.7854 85.5256 37.6803 85.4429C37.5802 85.3569 37.4576 85.3011 37.3125 85.2756C37.1675 85.25 37.0312 85.2601 36.9035 85.306C36.7806 85.3484 36.6776 85.4242 36.5942 85.5334C36.5109 85.6426 36.4546 85.7801 36.4254 85.9458L36.0758 87.9283L35.3735 87.8045ZM40.4628 88.7403C40.1106 88.6782 39.8547 88.5306 39.695 88.2973C39.5353 88.0641 39.4873 87.7673 39.5508 87.4068L39.838 85.7785L39.2475 85.6744L39.3593 85.0405L39.4525 85.057C39.61 85.0847 39.7403 85.0607 39.8433 84.9849C39.9464 84.9091 40.0118 84.7924 40.0396 84.635L40.0856 84.374L40.7879 84.4978L40.652 85.2685L41.4164 85.4032L41.3047 86.0372L40.5402 85.9024L40.2586 87.4996C40.2381 87.6156 40.2393 87.7183 40.2619 87.8078C40.2853 87.8931 40.3345 87.9658 40.4093 88.026C40.4849 88.082 40.5889 88.1217 40.7215 88.1451C40.7547 88.151 40.7923 88.1555 40.8345 88.1586C40.8766 88.1618 40.9167 88.1646 40.9547 88.167L40.8484 88.7699C40.789 88.7679 40.7233 88.7649 40.6514 88.7608C40.5795 88.7566 40.5166 88.7498 40.4628 88.7403ZM42.4971 89.1375C42.2692 89.0973 42.0752 89.0225 41.9151 88.9131C41.7598 88.8003 41.647 88.665 41.5765 88.5074C41.5068 88.3455 41.4891 88.1673 41.5234 87.9725C41.5556 87.7902 41.6238 87.6335 41.7281 87.5024C41.8365 87.372 41.9844 87.272 42.1718 87.2025C42.3592 87.1331 42.585 87.1002 42.8492 87.1041L44.0516 87.1175L43.9541 87.6706L42.8906 87.6689C42.6983 87.6692 42.551 87.7052 42.4487 87.7768C42.347 87.8443 42.2845 87.9444 42.2612 88.077C42.2385 88.2054 42.2675 88.3195 42.3482 88.4191C42.4338 88.5154 42.5532 88.577 42.7065 88.6041C42.8971 88.6377 43.0701 88.6255 43.2256 88.5674C43.3852 88.5101 43.5165 88.4201 43.6193 88.2972C43.7228 88.1702 43.7896 88.0218 43.8196 87.8519L43.9719 86.9881C44.0011 86.8223 43.9627 86.6767 43.8567 86.5512C43.7555 86.4223 43.6034 86.34 43.4004 86.3042C43.2139 86.2713 43.0415 86.2922 42.8831 86.3667C42.7296 86.4379 42.6062 86.5443 42.5128 86.6859L41.9801 86.2908C42.0715 86.1361 42.1986 86.0089 42.3614 85.9095C42.5249 85.8059 42.7061 85.7353 42.905 85.6978C43.108 85.6609 43.3151 85.6611 43.5264 85.6984C43.7916 85.7452 44.0169 85.8361 44.2024 85.9714C44.392 86.1073 44.5271 86.2743 44.6075 86.4722C44.6929 86.6666 44.7151 86.8799 44.6742 87.1119L44.2753 89.3741L43.6041 89.2558L43.7115 88.6467L43.8511 88.6906C43.7483 88.8134 43.6259 88.9136 43.4841 88.9911C43.3464 89.0694 43.1941 89.1215 43.0272 89.1476C42.8644 89.1745 42.6877 89.1711 42.4971 89.1375ZM45.0964 89.5189L45.926 84.8142L46.6282 84.9381L45.7987 89.6427L45.0964 89.5189ZM49.9179 90.446C49.5906 90.3882 49.2967 90.2745 49.0361 90.1046C48.7797 89.9355 48.5666 89.7271 48.3967 89.4792C48.2316 89.228 48.1167 88.9471 48.0518 88.6366C47.9869 88.3262 47.9852 87.9969 48.0466 87.6489C48.1072 87.305 48.219 86.9979 48.382 86.7276C48.5499 86.4539 48.7561 86.2296 49.0005 86.0548C49.2456 85.8759 49.5172 85.7529 49.8153 85.6859C50.1141 85.6147 50.4292 85.6083 50.7606 85.6667C51.088 85.7244 51.3702 85.8319 51.6074 85.989C51.8487 86.1469 52.0423 86.3327 52.1883 86.5465C52.3351 86.756 52.4292 86.9734 52.4706 87.1986L51.7571 87.3932C51.7015 87.1271 51.5774 86.898 51.3848 86.706C51.1971 86.5105 50.95 86.3858 50.6434 86.3317C50.3368 86.2777 50.0526 86.3023 49.7909 86.4057C49.5292 86.5091 49.3093 86.6775 49.1315 86.911C48.9577 87.1452 48.8405 87.4343 48.7799 87.7782C48.7193 88.1221 48.7302 88.4359 48.8126 88.7195C48.8999 88.9998 49.0488 89.2332 49.2594 89.4199C49.4707 89.6024 49.7297 89.7207 50.0363 89.7748C50.3429 89.8288 50.6174 89.7982 50.8599 89.6829C51.1065 89.5683 51.3015 89.3955 51.4448 89.1644L52.0487 89.5913C51.9335 89.7846 51.7707 89.9567 51.5604 90.1076C51.3501 90.2585 51.1046 90.3668 50.8238 90.4327C50.5472 90.4992 50.2453 90.5037 49.9179 90.446ZM53.4702 91.0723C53.2423 91.0321 53.0483 90.9574 52.8882 90.8479C52.7329 90.7351 52.6201 90.5999 52.5496 90.4422C52.4799 90.2804 52.4622 90.1021 52.4965 89.9074C52.5287 89.7251 52.5969 89.5684 52.7012 89.4372C52.8096 89.3068 52.9575 89.2069 53.145 89.1374C53.3324 89.0679 53.5582 89.0351 53.8223 89.039L55.0247 89.0523L54.9272 89.6055L53.8637 89.6038C53.6714 89.604 53.5241 89.64 53.4218 89.7117C53.3202 89.7792 53.2577 89.8793 53.2343 90.0118C53.2116 90.1403 53.2406 90.2543 53.3213 90.354C53.4069 90.4503 53.5263 90.5119 53.6796 90.5389C53.8702 90.5725 54.0432 90.5603 54.1987 90.5023C54.3583 90.445 54.4896 90.3549 54.5924 90.2321C54.696 90.1051 54.7627 89.9567 54.7927 89.7868L54.945 88.9229C54.9742 88.7572 54.9358 88.6116 54.8298 88.4861C54.7286 88.3572 54.5765 88.2748 54.3735 88.239C54.1871 88.2061 54.0146 88.227 53.8562 88.3016C53.7027 88.3728 53.5793 88.4792 53.486 88.6208L52.9533 88.2257C53.0446 88.0709 53.1717 87.9438 53.3345 87.8443C53.498 87.7407 53.6792 87.6702 53.8781 87.6326C54.0811 87.5958 54.2882 87.596 54.4996 87.6333C54.7647 87.68 54.99 87.771 55.1755 87.9062C55.3652 88.0422 55.5002 88.2091 55.5807 88.407C55.666 88.6015 55.6882 88.8147 55.6473 89.0468L55.2484 91.309L54.5772 91.1906L54.6846 90.5816L54.8242 90.6254C54.7214 90.7483 54.5991 90.8484 54.4572 90.926C54.3196 91.0042 54.1672 91.0564 54.0003 91.0825C53.8375 91.1093 53.6608 91.1059 53.4702 91.0723ZM56.0695 91.4538L56.6624 88.0915L57.3336 88.2099L57.2141 88.8873L57.1695 88.7769C57.2828 88.5704 57.4307 88.4342 57.6133 88.3681C57.7965 88.2979 58.0042 88.2833 58.2362 88.3242L58.4413 88.3603L58.3284 89.0005L58.0363 88.949C57.8043 88.908 57.603 88.9473 57.4324 89.0668C57.2667 89.1828 57.1605 89.3734 57.1137 89.6386L56.7718 91.5776L56.0695 91.4538Z" fill="white"/>
<circle cx="135.828" cy="74.2163" r="9.86053" transform="rotate(10 135.828 74.2163)" stroke="white" stroke-opacity="0.06" stroke-width="3.94421"/>
<circle cx="135.828" cy="74.2164" r="29.5816" transform="rotate(10 135.828 74.2164)" stroke="white" stroke-opacity="0.06" stroke-width="7.88843"/>
<circle cx="136.056" cy="74.0564" r="54.2329" transform="rotate(10 136.056 74.0564)" stroke="white" stroke-opacity="0.06" stroke-width="7.88843"/>
<circle cx="135.828" cy="74.2163" r="78.8843" transform="rotate(10 135.828 74.2163)" stroke="white" stroke-opacity="0.06" stroke-width="7.88843"/>
<circle cx="136.056" cy="74.0564" r="103.536" transform="rotate(10 136.056 74.0564)" stroke="white" stroke-opacity="0.06" stroke-width="7.88843"/>
<circle cx="135.828" cy="74.2164" r="128.187" transform="rotate(10 135.828 74.2164)" stroke="white" stroke-opacity="0.06" stroke-width="7.88843"/>
<circle cx="136.056" cy="74.0564" r="152.838" transform="rotate(10 136.056 74.0564)" stroke="white" stroke-opacity="0.06" stroke-width="7.88843"/>
</g>
<defs>
<clipPath id="clip0_20_6322">
<rect x="24.6566" width="252.43" height="141.992" rx="3.94421" transform="rotate(10 24.6566 0)" fill="white"/>
</clipPath>
</defs>
</svg>
