<svg width="220" height="64" viewBox="0 0 220 64" fill="none" xmlns="http://www.w3.org/2000/svg">
<rect x="6" y="6" width="52" height="52" rx="10.7714" fill="url(#paint0_radial_1_1103)"/>
<rect x="6" y="6" width="52" height="52" rx="10.7714" fill="url(#paint1_radial_1_1103)"/>
<circle cx="31.4431" cy="33.2996" r="7.98571" stroke="white" stroke-width="2.97143"/>
<circle cx="43.3286" cy="21.042" r="2.41429" fill="white"/>
<rect x="15.1" y="15.4707" width="33.8" height="34.5429" rx="5.75714" stroke="white" stroke-width="2.6"/>
<g filter="url(#filter0_d_1_1103)">
<path d="M89.848 42V24.12H92.68V42H89.848ZM96.1231 42V29.016H98.7151V31.56L98.4031 31.224C98.7231 30.408 99.2351 29.792 99.9391 29.376C100.643 28.944 101.459 28.728 102.387 28.728C103.347 28.728 104.195 28.936 104.931 29.352C105.667 29.768 106.243 30.344 106.659 31.08C107.075 31.816 107.283 32.664 107.283 33.624V42H104.595V34.344C104.595 33.688 104.475 33.136 104.235 32.688C103.995 32.224 103.651 31.872 103.203 31.632C102.771 31.376 102.275 31.248 101.715 31.248C101.155 31.248 100.651 31.376 100.203 31.632C99.7711 31.872 99.4351 32.224 99.1951 32.688C98.9551 33.152 98.8351 33.704 98.8351 34.344V42H96.1231ZM114.986 42.288C113.658 42.288 112.49 41.96 111.482 41.304C110.49 40.648 109.794 39.768 109.394 38.664L111.482 37.68C111.834 38.416 112.314 39 112.922 39.432C113.546 39.864 114.234 40.08 114.986 40.08C115.626 40.08 116.146 39.936 116.546 39.648C116.946 39.36 117.146 38.968 117.146 38.472C117.146 38.152 117.058 37.896 116.882 37.704C116.706 37.496 116.482 37.328 116.21 37.2C115.954 37.072 115.69 36.976 115.418 36.912L113.378 36.336C112.258 36.016 111.418 35.536 110.858 34.896C110.314 34.24 110.042 33.48 110.042 32.616C110.042 31.832 110.242 31.152 110.642 30.576C111.042 29.984 111.594 29.528 112.298 29.208C113.002 28.888 113.794 28.728 114.674 28.728C115.858 28.728 116.914 29.024 117.842 29.616C118.77 30.192 119.426 31 119.81 32.04L117.722 33.024C117.466 32.4 117.058 31.904 116.498 31.536C115.954 31.168 115.338 30.984 114.65 30.984C114.058 30.984 113.586 31.128 113.234 31.416C112.882 31.688 112.706 32.048 112.706 32.496C112.706 32.8 112.786 33.056 112.946 33.264C113.106 33.456 113.314 33.616 113.57 33.744C113.826 33.856 114.09 33.952 114.362 34.032L116.474 34.656C117.546 34.96 118.37 35.44 118.946 36.096C119.522 36.736 119.81 37.504 119.81 38.4C119.81 39.168 119.602 39.848 119.186 40.44C118.786 41.016 118.226 41.472 117.506 41.808C116.786 42.128 115.946 42.288 114.986 42.288ZM128.083 42.144C126.723 42.144 125.667 41.76 124.915 40.992C124.163 40.224 123.787 39.144 123.787 37.752V31.464H121.507V29.016H121.867C122.475 29.016 122.947 28.84 123.283 28.488C123.619 28.136 123.787 27.656 123.787 27.048V26.04H126.499V29.016H129.451V31.464H126.499V37.632C126.499 38.08 126.571 38.464 126.715 38.784C126.859 39.088 127.091 39.328 127.411 39.504C127.731 39.664 128.147 39.744 128.659 39.744C128.787 39.744 128.931 39.736 129.091 39.72C129.251 39.704 129.403 39.688 129.547 39.672V42C129.323 42.032 129.075 42.064 128.803 42.096C128.531 42.128 128.291 42.144 128.083 42.144ZM135.964 42.288C135.084 42.288 134.308 42.136 133.636 41.832C132.98 41.512 132.468 41.08 132.1 40.536C131.732 39.976 131.548 39.32 131.548 38.568C131.548 37.864 131.7 37.232 132.004 36.672C132.324 36.112 132.812 35.64 133.468 35.256C134.124 34.872 134.948 34.6 135.94 34.44L140.452 33.696V35.832L136.468 36.528C135.748 36.656 135.22 36.888 134.884 37.224C134.548 37.544 134.38 37.96 134.38 38.472C134.38 38.968 134.564 39.376 134.932 39.696C135.316 40 135.804 40.152 136.396 40.152C137.132 40.152 137.772 39.992 138.316 39.672C138.876 39.352 139.308 38.928 139.612 38.4C139.916 37.856 140.068 37.256 140.068 36.6V33.264C140.068 32.624 139.828 32.104 139.348 31.704C138.884 31.288 138.26 31.08 137.476 31.08C136.756 31.08 136.124 31.272 135.58 31.656C135.052 32.024 134.66 32.504 134.404 33.096L132.148 31.968C132.388 31.328 132.78 30.768 133.324 30.288C133.868 29.792 134.5 29.408 135.22 29.136C135.956 28.864 136.732 28.728 137.548 28.728C138.572 28.728 139.476 28.92 140.26 29.304C141.06 29.688 141.676 30.224 142.108 30.912C142.556 31.584 142.78 32.368 142.78 33.264V42H140.188V39.648L140.74 39.72C140.436 40.248 140.044 40.704 139.564 41.088C139.1 41.472 138.564 41.768 137.956 41.976C137.364 42.184 136.7 42.288 135.964 42.288ZM152.215 47.28C151.271 47.28 150.399 47.128 149.599 46.824C148.799 46.52 148.111 46.096 147.535 45.552C146.959 45.024 146.527 44.4 146.239 43.68L148.735 42.648C148.959 43.256 149.367 43.76 149.959 44.16C150.567 44.56 151.311 44.76 152.191 44.76C152.879 44.76 153.495 44.624 154.039 44.352C154.583 44.096 155.015 43.712 155.335 43.2C155.655 42.704 155.815 42.104 155.815 41.4V38.472L156.295 39.024C155.847 39.856 155.223 40.488 154.423 40.92C153.639 41.352 152.751 41.568 151.759 41.568C150.559 41.568 149.479 41.288 148.519 40.728C147.559 40.168 146.799 39.4 146.239 38.424C145.695 37.448 145.423 36.352 145.423 35.136C145.423 33.904 145.695 32.808 146.239 31.848C146.799 30.888 147.551 30.128 148.495 29.568C149.439 29.008 150.519 28.728 151.735 28.728C152.727 28.728 153.607 28.944 154.375 29.376C155.159 29.792 155.799 30.4 156.295 31.2L155.935 31.872V29.016H158.503V41.4C158.503 42.52 158.231 43.52 157.687 44.4C157.159 45.296 156.423 46 155.479 46.512C154.535 47.024 153.447 47.28 152.215 47.28ZM152.071 39.048C152.791 39.048 153.431 38.88 153.991 38.544C154.551 38.192 154.991 37.728 155.311 37.152C155.647 36.56 155.815 35.896 155.815 35.16C155.815 34.424 155.647 33.76 155.311 33.168C154.975 32.576 154.527 32.112 153.967 31.776C153.407 31.424 152.775 31.248 152.071 31.248C151.335 31.248 150.679 31.424 150.103 31.776C149.527 32.112 149.071 32.576 148.735 33.168C148.415 33.744 148.255 34.408 148.255 35.16C148.255 35.88 148.415 36.536 148.735 37.128C149.071 37.72 149.527 38.192 150.103 38.544C150.679 38.88 151.335 39.048 152.071 39.048ZM161.678 42V29.016H164.27V31.632L164.03 31.248C164.318 30.4 164.782 29.792 165.422 29.424C166.062 29.04 166.83 28.848 167.726 28.848H168.518V31.32H167.39C166.494 31.32 165.766 31.6 165.206 32.16C164.662 32.704 164.39 33.488 164.39 34.512V42H161.678ZM174.261 42.288C173.381 42.288 172.605 42.136 171.933 41.832C171.277 41.512 170.765 41.08 170.397 40.536C170.029 39.976 169.845 39.32 169.845 38.568C169.845 37.864 169.997 37.232 170.301 36.672C170.621 36.112 171.109 35.64 171.765 35.256C172.421 34.872 173.245 34.6 174.237 34.44L178.749 33.696V35.832L174.765 36.528C174.045 36.656 173.517 36.888 173.181 37.224C172.845 37.544 172.677 37.96 172.677 38.472C172.677 38.968 172.861 39.376 173.229 39.696C173.613 40 174.101 40.152 174.693 40.152C175.429 40.152 176.069 39.992 176.613 39.672C177.173 39.352 177.605 38.928 177.909 38.4C178.213 37.856 178.365 37.256 178.365 36.6V33.264C178.365 32.624 178.125 32.104 177.645 31.704C177.181 31.288 176.557 31.08 175.773 31.08C175.053 31.08 174.421 31.272 173.877 31.656C173.349 32.024 172.957 32.504 172.701 33.096L170.445 31.968C170.685 31.328 171.077 30.768 171.621 30.288C172.165 29.792 172.797 29.408 173.517 29.136C174.253 28.864 175.029 28.728 175.845 28.728C176.869 28.728 177.773 28.92 178.557 29.304C179.357 29.688 179.973 30.224 180.405 30.912C180.853 31.584 181.077 32.368 181.077 33.264V42H178.485V39.648L179.037 39.72C178.733 40.248 178.341 40.704 177.861 41.088C177.397 41.472 176.861 41.768 176.253 41.976C175.661 42.184 174.997 42.288 174.261 42.288ZM184.248 42V29.016H186.84V31.824L186.504 31.392C186.776 30.512 187.272 29.848 187.992 29.4C188.712 28.952 189.536 28.728 190.464 28.728C191.504 28.728 192.424 29.008 193.224 29.568C194.04 30.112 194.584 30.84 194.856 31.752L194.088 31.824C194.472 30.784 195.056 30.008 195.84 29.496C196.64 28.984 197.552 28.728 198.576 28.728C199.472 28.728 200.28 28.936 201 29.352C201.736 29.768 202.32 30.344 202.752 31.08C203.184 31.816 203.4 32.656 203.4 33.6V42H200.688V34.344C200.688 33.688 200.568 33.136 200.328 32.688C200.104 32.224 199.784 31.872 199.368 31.632C198.968 31.376 198.496 31.248 197.952 31.248C197.408 31.248 196.928 31.376 196.512 31.632C196.096 31.872 195.768 32.224 195.528 32.688C195.288 33.152 195.168 33.704 195.168 34.344V42H192.48V34.344C192.48 33.688 192.36 33.136 192.12 32.688C191.896 32.224 191.576 31.872 191.16 31.632C190.76 31.376 190.28 31.248 189.72 31.248C189.176 31.248 188.696 31.376 188.28 31.632C187.864 31.872 187.536 32.224 187.296 32.688C187.072 33.152 186.96 33.704 186.96 34.344V42H184.248Z" fill="white"/>
<path d="M88 46.2H204.72V47.16H88V46.2Z" fill="white"/>
</g>
<a href="https://www.instagram.com/pickolab/?hl=id">
<rect fill="black" fill-opacity="0" y="-0.12" width="116.72" height="30.24"/>
</a>
<defs>
<filter id="filter0_d_1_1103" x="73.848" y="8.12" width="145.552" height="55.16" filterUnits="userSpaceOnUse" color-interpolation-filters="sRGB">
<feFlood flood-opacity="0" result="BackgroundImageFix"/>
<feColorMatrix in="SourceAlpha" type="matrix" values="0 0 0 0 0 0 0 0 0 0 0 0 0 0 0 0 0 0 127 0" result="hardAlpha"/>
<feOffset/>
<feGaussianBlur stdDeviation="8"/>
<feColorMatrix type="matrix" values="0 0 0 0 1 0 0 0 0 1 0 0 0 0 1 0 0 0 0.1 0"/>
<feBlend mode="normal" in2="BackgroundImageFix" result="effect1_dropShadow_1_1103"/>
<feBlend mode="normal" in="SourceGraphic" in2="effect1_dropShadow_1_1103" result="shape"/>
</filter>
<radialGradient id="paint0_radial_1_1103" cx="0" cy="0" r="1" gradientUnits="userSpaceOnUse" gradientTransform="translate(49.94 65.02) rotate(-105.945) scale(68.1418 101.353)">
<stop offset="0.197635" stop-color="#F50B5E"/>
<stop offset="0.52034" stop-color="#DF0897"/>
<stop offset="0.768785" stop-color="#962FBF"/>
<stop offset="0.933441" stop-color="#4F5BD5"/>
</radialGradient>
<radialGradient id="paint1_radial_1_1103" cx="0" cy="0" r="1" gradientUnits="userSpaceOnUse" gradientTransform="translate(23.42 58) rotate(-54.9721) scale(33.9736 37.1605)">
<stop offset="0.09375" stop-color="#FEDA75"/>
<stop offset="0.475046" stop-color="#FA7E1E"/>
<stop offset="1" stop-color="#FA7E1E" stop-opacity="0"/>
</radialGradient>
</defs>
</svg>
