<svg width="142" height="64" viewBox="0 0 142 64" fill="none" xmlns="http://www.w3.org/2000/svg">
<path d="M22.5962 5.2821C24.6776 4.10787 28.0498 4.10641 30.1355 5.2821L47.962 15.3302C50.0434 16.5044 51.7316 19.4444 51.7316 21.8936V41.6189C51.7316 44.0696 50.0476 47.0052 47.962 48.1809L30.1355 58.229C28.054 59.4032 24.6818 59.4061 22.5962 58.229L4.76964 48.1809C2.68824 47.0066 1 44.0667 1 41.6189V21.8936C1 19.4429 2.68401 16.5074 4.76964 15.3302L22.5962 5.2821Z" fill="#03050A"/>
<path d="M50.9447 28.1108C57.6028 28.1108 63.0002 22.7134 63.0002 16.0553C63.0002 9.39721 57.6028 3.99976 50.9447 3.99976C44.2866 3.99976 38.8892 9.39721 38.8892 16.0553C38.8892 22.7134 44.2866 28.1108 50.9447 28.1108Z" fill="#308BE6"/>
<path d="M33.7117 38.2449V25.1166C33.7117 23.9277 34.5797 22.9872 35.6761 22.9872C36.7725 22.9872 37.6391 23.9277 37.6391 25.1166V38.2463C37.6391 39.4337 36.7725 40.3743 35.6761 40.3743C34.5797 40.3743 33.7117 39.4337 33.7117 38.2449ZM30.6466 31.7735C30.6466 37.6373 27.6112 40.513 22.8185 40.513C18.0229 40.513 15.0918 37.6096 15.0918 31.9107V25.1166C15.0918 23.9277 15.9584 22.9872 17.0548 22.9872C18.1512 22.9872 19.0192 23.9277 19.0192 25.1166V31.8012C19.0192 34.9544 20.4707 36.5858 22.8692 36.5858C25.2649 36.5858 26.7192 35.0084 26.7192 31.9385V25.118C26.7192 23.9277 27.5858 22.9872 28.6822 22.9872C29.7786 22.9872 30.6466 23.9277 30.6466 25.1166V31.7735Z" fill="white"/>
<path d="M51.0234 21.1118C49.0012 21.1118 47.5004 19.9755 47.5004 18.2434V18.2142C47.5004 17.0078 48.0092 16.2981 48.9745 15.8161C48.2699 15.3473 47.8133 14.7076 47.8133 13.6429V13.6137C47.8133 12.0962 49.0928 10.8884 51.0234 10.8884C52.9541 10.8884 54.2336 12.0816 54.2336 13.6151V13.6444C54.2336 14.7076 53.777 15.3473 53.0724 15.8161C53.9983 16.3419 54.5465 16.9801 54.5465 18.1587V18.1879C54.5465 20.031 53.0457 21.1118 51.0234 21.1118ZM51.0234 15.0917C51.8197 15.0917 52.3284 14.5805 52.3284 13.8839V13.8547C52.3284 13.2456 51.845 12.6921 51.0234 12.6921C50.2019 12.6921 49.7185 13.2325 49.7185 13.8415V13.8707C49.7185 14.5659 50.2272 15.0917 51.0234 15.0917ZM51.0234 19.3081C52.0155 19.3081 52.6018 18.7677 52.6018 18.0725V18.0448C52.6018 17.278 51.9366 16.8238 51.0234 16.8238C50.1103 16.8238 49.4451 17.278 49.4451 18.0448V18.074C49.4451 18.7546 50.0314 19.3081 51.0234 19.3081Z" fill="white"/>
<g filter="url(#filter0_d_1_1089)">
<path d="M96.544 42.288C95.216 42.288 94.032 42.008 92.992 41.448C91.968 40.888 91.16 40.12 90.568 39.144C89.992 38.168 89.704 37.056 89.704 35.808V24.12H92.536V35.688C92.536 36.472 92.704 37.168 93.04 37.776C93.392 38.384 93.864 38.856 94.456 39.192C95.064 39.528 95.76 39.696 96.544 39.696C97.344 39.696 98.04 39.528 98.632 39.192C99.24 38.856 99.712 38.384 100.048 37.776C100.4 37.168 100.576 36.472 100.576 35.688V24.12H103.384V35.808C103.384 37.056 103.096 38.168 102.52 39.144C101.944 40.12 101.136 40.888 100.096 41.448C99.072 42.008 97.888 42.288 96.544 42.288ZM106.934 42V24.12H109.766V42H106.934ZM119.185 42.288C117.937 42.288 116.841 42.048 115.897 41.568C114.969 41.072 114.249 40.416 113.737 39.6C113.225 38.768 112.969 37.848 112.969 36.84C112.969 35.688 113.281 34.696 113.905 33.864C114.545 33.016 115.441 32.4 116.593 32.016L116.473 32.736C115.625 32.416 114.953 31.88 114.457 31.128C113.977 30.36 113.737 29.52 113.737 28.608C113.737 27.696 113.969 26.88 114.433 26.16C114.913 25.44 115.561 24.872 116.377 24.456C117.209 24.04 118.145 23.832 119.185 23.832C120.241 23.832 121.177 24.04 121.993 24.456C122.809 24.856 123.449 25.416 123.913 26.136C124.393 26.856 124.633 27.68 124.633 28.608C124.633 29.552 124.385 30.4 123.889 31.152C123.409 31.888 122.753 32.416 121.921 32.736L121.801 32.016C122.953 32.416 123.849 33.032 124.489 33.864C125.129 34.696 125.449 35.688 125.449 36.84C125.449 37.848 125.185 38.768 124.657 39.6C124.145 40.416 123.417 41.072 122.473 41.568C121.529 42.048 120.433 42.288 119.185 42.288ZM119.185 39.888C119.873 39.888 120.473 39.76 120.985 39.504C121.497 39.232 121.897 38.864 122.185 38.4C122.473 37.936 122.617 37.392 122.617 36.768C122.617 36.144 122.473 35.6 122.185 35.136C121.897 34.672 121.497 34.312 120.985 34.056C120.473 33.8 119.873 33.672 119.185 33.672C118.513 33.672 117.921 33.8 117.409 34.056C116.897 34.312 116.497 34.672 116.209 35.136C115.921 35.6 115.777 36.144 115.777 36.768C115.777 37.392 115.921 37.936 116.209 38.4C116.497 38.864 116.897 39.232 117.409 39.504C117.921 39.76 118.513 39.888 119.185 39.888ZM119.185 31.272C119.697 31.272 120.145 31.168 120.529 30.96C120.929 30.736 121.241 30.432 121.465 30.048C121.689 29.664 121.801 29.232 121.801 28.752C121.801 28.256 121.689 27.824 121.465 27.456C121.241 27.072 120.929 26.776 120.529 26.568C120.145 26.344 119.697 26.232 119.185 26.232C118.689 26.232 118.241 26.344 117.841 26.568C117.441 26.776 117.129 27.072 116.905 27.456C116.681 27.824 116.569 28.256 116.569 28.752C116.569 29.232 116.681 29.664 116.905 30.048C117.129 30.432 117.441 30.736 117.841 30.96C118.241 31.168 118.689 31.272 119.185 31.272Z" fill="white"/>
<path d="M88 46.2H126.769V47.16H88V46.2Z" fill="white"/>
</g>
<a href="https://ui8.net/hello-picko/products">
<rect fill="black" fill-opacity="0" y="-0.12" width="38.769" height="30.24"/>
</a>
<defs>
<filter id="filter0_d_1_1089" x="73.704" y="7.83203" width="67.745" height="50.4559" filterUnits="userSpaceOnUse" color-interpolation-filters="sRGB">
<feFlood flood-opacity="0" result="BackgroundImageFix"/>
<feColorMatrix in="SourceAlpha" type="matrix" values="0 0 0 0 0 0 0 0 0 0 0 0 0 0 0 0 0 0 127 0" result="hardAlpha"/>
<feOffset/>
<feGaussianBlur stdDeviation="8"/>
<feColorMatrix type="matrix" values="0 0 0 0 1 0 0 0 0 1 0 0 0 0 1 0 0 0 0.1 0"/>
<feBlend mode="normal" in2="BackgroundImageFix" result="effect1_dropShadow_1_1089"/>
<feBlend mode="normal" in="SourceGraphic" in2="effect1_dropShadow_1_1089" result="shape"/>
</filter>
</defs>
</svg>
