<svg width="62" height="80" viewBox="0 0 62 80" fill="none" xmlns="http://www.w3.org/2000/svg">
<path d="M17.2112 62.6174H31C48.1207 62.6174 62 48.5999 62 31.3087C62 14.0175 48.1207 0 31 0C13.8793 0 0 14.0175 0 31.3087V80L17.2112 62.6174ZM44.7888 31.3087C44.789 33.1376 44.4324 34.9486 43.7395 36.6384C43.0467 38.3281 42.031 39.8635 40.7506 41.1568C39.4702 42.4501 37.95 43.476 36.277 44.1759C34.604 44.8758 32.8109 45.2361 31 45.2361H17.2112V31.3087C17.2112 27.6153 18.6639 24.0731 21.2498 21.4615C23.8357 18.8498 27.343 17.3826 31 17.3826C34.657 17.3826 38.1643 18.8498 40.7502 21.4615C43.3361 24.0731 44.7888 27.6153 44.7888 31.3087V31.3087Z" fill="white"/>
<path d="M17.2114 62.6176C17.2114 67.2277 15.398 71.649 12.1703 74.9089C8.94258 78.1688 4.56485 80.0001 0.000152588 80.0001C0.000152588 75.39 1.81347 70.9687 5.0412 67.7088C8.26892 64.4489 12.6467 62.6176 17.2114 62.6176V62.6176Z" fill="#FCA85A"/>
</svg>
