<svg width="86" height="24" viewBox="0 0 86 24" fill="none" xmlns="http://www.w3.org/2000/svg">
<path d="M10.8438 23.3906C16.375 23.3906 20.2344 20.2031 20.7656 15.1719H16.1719C15.6719 17.8438 13.6562 19.4844 10.8594 19.4844C7.25 19.4844 4.98438 16.5156 4.98438 11.7031C4.98438 6.95312 7.28125 3.96875 10.8438 3.96875C13.5938 3.96875 15.7188 5.78125 16.1562 8.54688H20.75C20.3906 3.5 16.2656 0.0625 10.8438 0.0625C4.3125 0.0625 0.171875 4.45312 0.171875 11.7188C0.171875 19 4.28125 23.3906 10.8438 23.3906ZM30.9844 23.3594C36.0469 23.3594 39.2812 20.125 39.2812 14.6094C39.2812 9.17188 36 5.89062 30.9844 5.89062C25.9688 5.89062 22.6875 9.1875 22.6875 14.6094C22.6875 20.1094 25.9219 23.3594 30.9844 23.3594ZM30.9844 19.875C28.7344 19.875 27.3125 17.9844 27.3125 14.625C27.3125 11.2969 28.7656 9.375 30.9844 9.375C33.2031 9.375 34.6406 11.2969 34.6406 14.625C34.6406 17.9844 33.2188 19.875 30.9844 19.875ZM56.5469 6.25H51.7812L48.3125 18.9688H48.2188L44.7344 6.25H39.8438L45.6406 23H50.7969L56.5469 6.25ZM65.1875 9.26562C67.2188 9.26562 68.6094 10.7344 68.7031 12.875H61.5938C61.75 10.7812 63.1875 9.26562 65.1875 9.26562ZM68.7656 17.875C68.3438 19.1562 67.0625 19.9844 65.3906 19.9844C63.0625 19.9844 61.5469 18.3438 61.5469 15.9531V15.6719H73.0938V14.2812C73.0938 9.1875 70.0156 5.89062 65.1406 5.89062C60.1875 5.89062 57.0625 9.35938 57.0625 14.7031C57.0625 20.0625 60.1562 23.3594 65.3125 23.3594C69.4531 23.3594 72.4531 21.1562 72.9531 17.875H68.7656ZM75.4531 23H80.0156V13.6406C80.0156 11.2812 81.3281 9.90625 83.5781 9.90625C84.2344 9.90625 84.8594 10.0156 85.2344 10.1719V6.15625C84.9219 6.0625 84.4688 5.98438 83.9375 5.98438C81.9688 5.98438 80.5469 7.14062 79.9531 9.26562H79.8594V6.25H75.4531V23Z" fill="#1A202C"/>
</svg>
