<svg width="21" height="21" viewBox="0 0 21 21" fill="none" xmlns="http://www.w3.org/2000/svg">
<path d="M12.7932 11.5768L12.5172 10.8602C12.4607 10.7013 12.4347 10.415 12.4629 10.255L12.637 9.26764C12.7987 8.35051 12.3998 7.46329 11.6886 6.9556C11.5489 6.56076 11.2135 6.27225 10.7842 6.19655C10.3588 6.12154 9.93575 6.28436 9.66881 6.61153C8.84103 6.8559 8.17585 7.54744 8.0162 8.45287L7.8421 9.44026C7.81388 9.60027 7.69156 9.86038 7.58483 9.98643L7.07574 10.5687C6.87352 10.8026 6.78747 11.0852 6.83825 11.3678C6.88581 11.6458 7.07248 11.888 7.34407 12.0365C8.05578 12.4276 8.82991 12.6928 9.62606 12.8332C10.4222 12.9736 11.2404 12.9891 12.0422 12.8689C12.3313 12.8273 12.5785 12.6576 12.7274 12.4062C12.8764 12.1549 12.9014 11.8534 12.7932 11.5768Z" fill="#3D5278"/>
<path d="M10.6532 13.4208C10.4095 13.8446 9.91914 14.0921 9.41178 14.0027C9.10347 13.9483 8.82108 13.7697 8.64566 13.5094C8.54141 13.3703 8.47528 13.1977 8.44885 13.0281C8.49821 13.0448 8.54826 13.0577 8.60152 13.0751C8.68922 13.1027 8.78082 13.1309 8.87311 13.1552C9.09212 13.2139 9.31641 13.2656 9.54277 13.3055C9.76522 13.3447 9.98974 13.3722 10.2117 13.3912C10.2951 13.3979 10.3777 13.4084 10.4578 13.4105C10.5216 13.4137 10.5855 13.4169 10.6532 13.4208Z" fill="#3D5278"/>
<rect opacity="0.8" x="3.18862" y="0.229543" width="17.0405" height="17.0405" rx="8.52025" transform="rotate(10 3.18862 0.229543)" stroke="#C3D4E9" stroke-opacity="0.4" stroke-width="0.396291"/>
<circle cx="16.7567" cy="5.43891" r="2.1796" transform="rotate(10 16.7567 5.43891)" fill="#FF4423"/>
</svg>
