<svg width="21" height="21" viewBox="0 0 21 21" fill="none" xmlns="http://www.w3.org/2000/svg">
<path d="M13.4525 9.57235C12.7461 9.4478 12.5454 8.89733 13.0046 8.34654C13.2702 8.02718 13.229 7.55313 12.9097 7.28757L12.3026 6.78215C12.0267 6.54436 11.6093 6.58344 11.3715 6.85941L11.3155 6.92599C10.8562 7.47679 10.2786 7.37494 10.0315 6.69959L10.0017 6.61787C9.88043 6.27859 9.50162 6.09912 9.16096 6.22819L8.41767 6.4955C8.02674 6.63582 7.82524 7.07111 7.96556 7.46204C8.21335 8.13348 7.83647 8.5821 7.13008 8.45755C6.7242 8.38598 6.33008 8.65853 6.25782 9.06831L6.1367 9.75519C6.06514 10.1611 6.33769 10.5552 6.74747 10.6275C7.45386 10.752 7.65458 11.3025 7.19139 11.8526C6.92583 12.1719 6.96699 12.646 7.28635 12.9115L7.89339 13.417C8.16936 13.6548 8.5867 13.6157 8.82449 13.3397L8.8805 13.2731C9.33978 12.7223 9.91738 12.8242 10.1645 13.4995L10.1943 13.5812C10.3234 13.9219 10.7022 14.1014 11.0429 13.9723L11.7862 13.705C12.1771 13.5647 12.3786 13.1294 12.2376 12.7424C11.9905 12.067 12.3674 11.6184 13.0738 11.7429C13.4796 11.8145 13.8738 11.542 13.946 11.1322L14.0671 10.4453C14.1348 10.0387 13.8622 9.64461 13.4525 9.57235ZM9.87632 11.3683C9.17773 11.2451 8.70841 10.5748 8.83159 9.87625C8.95477 9.17767 9.62503 8.70834 10.3236 8.83152C11.0222 8.9547 11.4915 9.62497 11.3683 10.3236C11.2452 11.0221 10.5749 11.4915 9.87632 11.3683Z" fill="#3D5278"/>
<rect opacity="0.8" x="3.18862" y="0.229543" width="17.0405" height="17.0405" rx="8.52025" transform="rotate(10 3.18862 0.229543)" stroke="#C3D4E9" stroke-opacity="0.4" stroke-width="0.396291"/>
</svg>
