<svg width="32" height="32" viewBox="0 0 32 32" fill="none" xmlns="http://www.w3.org/2000/svg">
<path d="M28 16C28 22.6274 22.6274 28 16 28C9.37258 28 4 22.6274 4 16C4 9.37258 9.37258 4 16 4C22.6274 4 28 9.37258 28 16Z" fill="#3448FF"/>
<path fill-rule="evenodd" clip-rule="evenodd" d="M22.2761 12.3905C22.7968 12.9112 22.7968 13.7554 22.2761 14.2761L15.6095 20.9428C15.0888 21.4635 14.2446 21.4635 13.7239 20.9428L9.72386 16.9428C9.20316 16.4221 9.20316 15.5779 9.72386 15.0572C10.2446 14.5365 11.0888 14.5365 11.6095 15.0572L14.6667 18.1144L20.3905 12.3905C20.9112 11.8698 21.7554 11.8698 22.2761 12.3905Z" fill="#F3F5F7"/>
</svg>
