<svg width="42" height="16" viewBox="0 0 42 16" fill="none" xmlns="http://www.w3.org/2000/svg">
<rect x="1.23853" y="0.780457" width="6.34065" height="6.34065" rx="3.17033" transform="rotate(10 1.23853 0.780457)" fill="#5CAFFC" fill-opacity="0.3"/>
<circle cx="3.81011" cy="4.45304" r="1.58516" transform="rotate(10 3.81011 4.45304)" fill="#5CAFFC"/>
<path d="M10.008 8.62986L10.8282 3.97784L12.3518 4.24649C12.8347 4.33164 13.2359 4.50324 13.5552 4.76129C13.8794 5.01591 14.1086 5.33531 14.2426 5.71949C14.3766 6.10367 14.4028 6.5268 14.3213 6.98888C14.2406 7.4468 14.0712 7.83543 13.8132 8.15478C13.5558 8.46996 13.2309 8.69381 12.8384 8.82634C12.4501 8.95961 12.0145 8.98366 11.5316 8.89852L10.008 8.62986ZM10.8604 8.10413L11.6597 8.24507C11.9885 8.30305 12.2858 8.28465 12.5515 8.18985C12.8213 8.09578 13.0448 7.9356 13.2221 7.70932C13.3994 7.48303 13.5181 7.19921 13.5783 6.85786C13.6385 6.5165 13.6215 6.21091 13.5275 5.94107C13.4383 5.66781 13.2851 5.44121 13.0679 5.26126C12.8506 5.08131 12.5776 4.96234 12.2487 4.90435L11.4494 4.76342L10.8604 8.10413ZM14.4427 9.41184L15.0384 6.03366L15.7128 6.15257L15.5928 6.8332L15.548 6.72228C15.6618 6.51486 15.8104 6.37796 15.9938 6.31157C16.1779 6.24102 16.3866 6.2263 16.6197 6.26741L16.8257 6.30374L16.7123 6.94691L16.4189 6.89516C16.1857 6.85405 15.9835 6.89351 15.8121 7.01352C15.6456 7.1301 15.5389 7.3216 15.4919 7.58802L15.1483 9.53625L14.4427 9.41184ZM18.1968 10.151C17.8721 10.0938 17.588 9.96428 17.3446 9.76254C17.1053 9.56154 16.9301 9.31388 16.8188 9.01956C16.7076 8.72524 16.6818 8.40949 16.7412 8.07229C16.8014 7.73094 16.9337 7.44307 17.1381 7.20871C17.3433 6.97017 17.5923 6.79946 17.8852 6.69658C18.1788 6.58953 18.49 6.565 18.8188 6.62299C19.1519 6.68171 19.4359 6.81121 19.671 7.01148C19.911 7.20832 20.0846 7.45353 20.1916 7.74712C20.3036 8.03727 20.3294 8.35303 20.2693 8.69438C20.2091 9.03574 20.0764 9.32568 19.8712 9.56421C19.666 9.80275 19.4167 9.97554 19.1231 10.0826C18.8302 10.1855 18.5215 10.2083 18.1968 10.151ZM18.3124 9.49538C18.5122 9.53061 18.6975 9.51393 18.8685 9.44535C19.0394 9.37676 19.1832 9.26692 19.3 9.11581C19.4217 8.96129 19.5012 8.77787 19.5387 8.56556C19.5761 8.35325 19.5637 8.15577 19.5015 7.9731C19.4434 7.79117 19.3458 7.63876 19.2087 7.51585C19.0715 7.39295 18.9031 7.31388 18.7032 7.27864C18.5076 7.24414 18.3222 7.26082 18.1471 7.32867C17.9762 7.39726 17.8303 7.50674 17.7094 7.6571C17.5926 7.8082 17.5155 7.98991 17.478 8.20222C17.4406 8.41452 17.4505 8.61372 17.5079 8.79982C17.5701 8.98248 17.6698 9.13526 17.8069 9.25817C17.9482 9.38181 18.1167 9.46088 18.3124 9.49538ZM20.3146 11.7349L21.1305 7.10786L21.8049 7.22677L21.6816 7.92614L21.629 7.74947C21.7877 7.58 21.9806 7.4595 22.2079 7.38796C22.4351 7.31643 22.6819 7.30415 22.9483 7.35113C23.2689 7.40765 23.5425 7.53531 23.7693 7.73411C24.0003 7.93365 24.1651 8.17948 24.2638 8.47159C24.3667 8.76444 24.3888 9.07738 24.3301 9.41041C24.2713 9.74344 24.1436 10.03 23.9467 10.27C23.754 10.5107 23.5168 10.6878 23.235 10.8012C22.9539 10.9104 22.651 10.9364 22.3263 10.8792C22.064 10.8329 21.8342 10.7366 21.6368 10.5902C21.4436 10.4445 21.3067 10.2594 21.2261 10.0349L21.3616 9.92358L21.0203 11.8593L20.3146 11.7349ZM22.3732 10.2114C22.573 10.2466 22.7584 10.23 22.9293 10.1614C23.1002 10.0928 23.244 9.98295 23.3608 9.83185C23.4825 9.67732 23.562 9.4939 23.5995 9.28159C23.6369 9.06928 23.6245 8.8718 23.5623 8.68913C23.5042 8.5072 23.4066 8.35479 23.2695 8.23188C23.1323 8.10898 22.9639 8.02991 22.764 7.99467C22.5684 7.96017 22.383 7.97685 22.208 8.0447C22.037 8.11329 21.8911 8.22277 21.7702 8.37313C21.6534 8.52424 21.5763 8.70594 21.5388 8.91825C21.5014 9.13055 21.5114 9.32975 21.5687 9.51585C21.6309 9.69851 21.7306 9.85129 21.8677 9.9742C22.009 10.0978 22.1775 10.1769 22.3732 10.2114ZM25.9093 10.0108L26.0194 9.38637L28.5172 9.82679L28.407 10.4512L25.9093 10.0108ZM32.2543 12.6298C31.9171 12.5703 31.6135 12.4545 31.3434 12.2824C31.0774 12.111 30.8532 11.8977 30.6708 11.6423C30.4925 11.3877 30.3666 11.1036 30.293 10.7902C30.2237 10.4775 30.2195 10.1484 30.2804 9.8029C30.3413 9.45738 30.4579 9.14956 30.63 8.87945C30.807 8.6059 31.0224 8.38206 31.2763 8.20792C31.531 8.02962 31.8143 7.90788 32.1262 7.84271C32.4389 7.77336 32.7638 7.76842 33.101 7.82788C33.4424 7.88807 33.7461 8.00385 34.012 8.17522C34.2829 8.34316 34.5074 8.55445 34.6857 8.80909C34.8682 9.06447 34.9941 9.3485 35.0634 9.66119C35.1328 9.97388 35.137 10.303 35.0761 10.6485C35.0151 10.994 34.8965 11.3015 34.7203 11.5708C34.5482 11.841 34.3348 12.0652 34.0802 12.2435C33.8255 12.4218 33.5419 12.5456 33.2292 12.6149C32.9165 12.6843 32.5915 12.6892 32.2543 12.6298ZM32.3733 11.9554C32.6147 11.9979 32.843 11.9931 33.0583 11.941C33.2777 11.8895 33.4759 11.8 33.6529 11.6724C33.8307 11.5406 33.9795 11.378 34.0995 11.1845C34.2202 10.9869 34.3022 10.7653 34.3455 10.5197C34.3888 10.2741 34.3872 10.0398 34.3406 9.81702C34.294 9.5942 34.2098 9.39048 34.0878 9.20587C33.9658 9.02125 33.8106 8.86725 33.622 8.74386C33.4376 8.62121 33.2247 8.53859 32.9832 8.49602C32.7418 8.45345 32.5114 8.45789 32.292 8.50934C32.0767 8.56153 31.8802 8.6535 31.7025 8.78527C31.5247 8.91703 31.3759 9.07965 31.2559 9.27311C31.1401 9.46731 31.0606 9.68721 31.0173 9.93282C30.9739 10.1784 30.9731 10.4144 31.0148 10.6406C31.0613 10.8634 31.1456 11.0672 31.2676 11.2518C31.3903 11.4322 31.5459 11.5841 31.7345 11.7075C31.923 11.8309 32.136 11.9135 32.3733 11.9554ZM35.6765 13.1559L36.1599 10.4147L35.5354 10.3046L35.6477 9.66764L36.2722 9.77774L36.303 9.6029C36.3478 9.34897 36.4373 9.14583 36.5714 8.99351C36.7063 8.83702 36.8734 8.72913 37.0727 8.66984C37.2762 8.61129 37.4987 8.6033 37.7401 8.64587C37.7859 8.65395 37.8372 8.66729 37.894 8.68589C37.9516 8.70033 37.9984 8.71501 38.0344 8.72995L37.9265 9.34189C37.8946 9.32769 37.8579 9.31692 37.8163 9.30958C37.7754 9.29808 37.7424 9.29013 37.7175 9.28572C37.5301 9.25269 37.3726 9.26998 37.2447 9.33758C37.1177 9.40102 37.0369 9.53056 37.0024 9.72622L36.9715 9.90106L38.5888 10.1862L38.4765 10.8232L36.8592 10.538L36.3759 13.2792L35.6765 13.1559ZM38.118 13.5864L38.6014 10.8452L37.9832 10.7362L38.0955 10.0992L38.7137 10.2083L38.7445 10.0334C38.7893 9.77947 38.8788 9.57634 39.013 9.42402C39.152 9.26826 39.3212 9.16074 39.5205 9.10145C39.724 9.0429 39.9444 9.03454 40.1817 9.07638C40.2316 9.08519 40.285 9.0989 40.3418 9.1175C40.3994 9.13194 40.4461 9.14662 40.4821 9.16156L40.3742 9.7735C40.3382 9.75857 40.2994 9.74743 40.2578 9.74009C40.2211 9.72932 40.1881 9.72137 40.159 9.71623C39.9717 9.6832 39.8141 9.70048 39.6863 9.76809C39.5634 9.83226 39.4846 9.96217 39.4501 10.1578L39.4193 10.3327L40.1936 10.4692L40.0813 11.1061L39.307 10.9696L38.8237 13.7108L38.118 13.5864Z" fill="#1A202C"/>
</svg>
