<svg width="12" height="12" viewBox="0 0 12 12" fill="none" xmlns="http://www.w3.org/2000/svg">
<path d="M9.79023 4.05071L7.44861 3.63782" stroke="#3D5278" stroke-width="0.594436" stroke-miterlimit="10" stroke-linecap="round" stroke-linejoin="round"/>
<path d="M3.54588 2.9497L1.9848 2.67444" stroke="#3D5278" stroke-width="0.594436" stroke-miterlimit="10" stroke-linecap="round" stroke-linejoin="round"/>
<path d="M4.86611 4.59091C5.6205 4.72393 6.33989 4.22021 6.47291 3.46582C6.60593 2.71143 6.10221 1.99204 5.34782 1.85902C4.59343 1.726 3.87404 2.22972 3.74102 2.98411C3.608 3.7385 4.11172 4.45789 4.86611 4.59091Z" stroke="#3D5278" stroke-width="0.594436" stroke-miterlimit="10" stroke-linecap="round" stroke-linejoin="round"/>
<path d="M9.03325 8.34362L7.47217 8.06836" stroke="#3D5278" stroke-width="0.594436" stroke-miterlimit="10" stroke-linecap="round" stroke-linejoin="round"/>
<path d="M3.56947 7.3803L1.22784 6.96741" stroke="#3D5278" stroke-width="0.594436" stroke-miterlimit="10" stroke-linecap="round" stroke-linejoin="round"/>
<path d="M5.67025 9.15902C6.42464 9.29204 7.14403 8.78832 7.27705 8.03393C7.41007 7.27954 6.90635 6.56015 6.15196 6.42713C5.39757 6.29411 4.67818 6.79783 4.54516 7.55223C4.41214 8.30662 4.91586 9.026 5.67025 9.15902Z" stroke="#3D5278" stroke-width="0.594436" stroke-miterlimit="10" stroke-linecap="round" stroke-linejoin="round"/>
</svg>
