<svg width="21" height="21" viewBox="0 0 21 21" fill="none" xmlns="http://www.w3.org/2000/svg">
<path d="M12.4451 6.93205C11.7387 6.80749 11.0459 7.03945 10.5589 7.49681C10.2576 6.90044 9.68592 6.44552 8.97953 6.32097C7.7814 6.1097 6.63759 6.91403 6.42495 8.11997C6.34306 8.58439 6.34152 9.02676 6.40012 9.44754C6.67267 11.5076 8.36753 13.0097 9.25165 13.4955C9.37608 13.5658 9.59464 13.6043 9.73558 13.5809C10.7326 13.4267 12.8389 12.5949 13.7996 10.7523C13.9986 10.3769 14.1485 9.96069 14.2304 9.49627C14.443 8.29033 13.6433 7.14331 12.4451 6.93205Z" fill="#3D5278"/>
<rect opacity="0.8" x="3.18862" y="0.229543" width="17.0405" height="17.0405" rx="8.52025" transform="rotate(10 3.18862 0.229543)" stroke="#C3D4E9" stroke-opacity="0.4" stroke-width="0.396291"/>
</svg>
