<svg width="275" height="25" viewBox="0 0 275 25" fill="none" xmlns="http://www.w3.org/2000/svg">
<path d="M15.4531 20.0938H5.59375V1.45312H0.875V24H15.4531V20.0938ZM17.9375 24H22.5V7.25H17.9375V24ZM20.2188 5.40625C21.5938 5.40625 22.6562 4.35938 22.6562 3.04688C22.6562 1.71875 21.5938 0.6875 20.2188 0.6875C18.8438 0.6875 17.7812 1.71875 17.7812 3.04688C17.7812 4.35938 18.8438 5.40625 20.2188 5.40625ZM40.7656 13.4844C40.5625 9.6875 37.6875 6.89062 33.1562 6.89062C28.1406 6.89062 24.9375 10.2344 24.9375 15.6094C24.9375 21.0781 28.1406 24.3594 33.1875 24.3594C37.5938 24.3594 40.5469 21.8125 40.7812 17.8594H36.5312C36.25 19.6875 35.0625 20.7812 33.2344 20.7812C30.9688 20.7812 29.5625 18.9062 29.5625 15.6094C29.5625 12.375 30.9688 10.4688 33.2188 10.4688C35.0938 10.4688 36.2656 11.7188 36.5312 13.4844H40.7656ZM50.5 10.2656C52.5312 10.2656 53.9219 11.7344 54.0156 13.875H46.9062C47.0625 11.7812 48.5 10.2656 50.5 10.2656ZM54.0781 18.875C53.6562 20.1562 52.375 20.9844 50.7031 20.9844C48.375 20.9844 46.8594 19.3438 46.8594 16.9531V16.6719H58.4062V15.2812C58.4062 10.1875 55.3281 6.89062 50.4531 6.89062C45.5 6.89062 42.375 10.3594 42.375 15.7031C42.375 21.0625 45.4688 24.3594 50.625 24.3594C54.7656 24.3594 57.7656 22.1562 58.2656 18.875H54.0781ZM60.7656 24H65.3281V14.3906C65.3281 12.2188 66.625 10.7188 68.6719 10.7188C70.7188 10.7188 71.75 11.9688 71.75 14.1562V24H76.3125V13.2031C76.3125 9.28125 74.2188 6.9375 70.5 6.9375C67.9219 6.9375 66.1562 8.15625 65.2656 10.2344H65.1719V7.25H60.7656V24ZM94.4219 13.4844C94.2188 9.6875 91.3438 6.89062 86.8125 6.89062C81.7969 6.89062 78.5938 10.2344 78.5938 15.6094C78.5938 21.0781 81.7969 24.3594 86.8438 24.3594C91.25 24.3594 94.2031 21.8125 94.4375 17.8594H90.1875C89.9062 19.6875 88.7188 20.7812 86.8906 20.7812C84.625 20.7812 83.2188 18.9062 83.2188 15.6094C83.2188 12.375 84.625 10.4688 86.875 10.4688C88.75 10.4688 89.9219 11.7188 90.1875 13.4844H94.4219ZM104.156 10.2656C106.188 10.2656 107.578 11.7344 107.672 13.875H100.562C100.719 11.7812 102.156 10.2656 104.156 10.2656ZM107.734 18.875C107.312 20.1562 106.031 20.9844 104.359 20.9844C102.031 20.9844 100.516 19.3438 100.516 16.9531V16.6719H112.062V15.2812C112.062 10.1875 108.984 6.89062 104.109 6.89062C99.1562 6.89062 96.0312 10.3594 96.0312 15.7031C96.0312 21.0625 99.125 24.3594 104.281 24.3594C108.422 24.3594 111.422 22.1562 111.922 18.875H107.734ZM127.234 20.9688C125.688 20.9688 124.656 20.1875 124.656 18.9375C124.656 17.75 125.625 16.9844 127.328 16.8594L130.859 16.6406V17.8594C130.859 19.6719 129.219 20.9688 127.234 20.9688ZM125.734 24.2656C127.828 24.2656 129.906 23.2188 130.844 21.4375H130.938V24H135.344V12.4844C135.344 9.10938 132.547 6.89062 128.25 6.89062C123.812 6.89062 121.047 9.125 120.875 12.375H125.047C125.266 11.1406 126.344 10.2969 128.047 10.2969C129.766 10.2969 130.859 11.2031 130.859 12.7656V13.875L126.641 14.125C122.469 14.375 120.125 16.1406 120.125 19.1875C120.125 22.2031 122.547 24.2656 125.734 24.2656ZM138.297 24H142.859V14.3906C142.859 12.2188 144.156 10.7188 146.203 10.7188C148.25 10.7188 149.281 11.9688 149.281 14.1562V24H153.844V13.2031C153.844 9.28125 151.75 6.9375 148.031 6.9375C145.453 6.9375 143.688 8.15625 142.797 10.2344H142.703V7.25H138.297V24ZM162.953 24.2656C165.422 24.2656 167.359 22.9688 168.172 21.125H168.25V24H172.75V1.45312H168.188V10.125H168.094C167.281 8.26562 165.406 6.98438 162.984 6.98438C158.781 6.98438 156.125 10.2812 156.125 15.5938C156.125 20.9531 158.766 24.2656 162.953 24.2656ZM164.5 10.6406C166.766 10.6406 168.219 12.5781 168.219 15.625C168.219 18.6875 166.766 20.5938 164.5 20.5938C162.203 20.5938 160.797 18.7031 160.797 15.625C160.797 12.5625 162.203 10.6406 164.5 10.6406ZM187.25 24V15.125H196.422V11.3906H187.25V5.34375H197.297V1.45312H182.531V24H187.25ZM206.922 24.3594C211.984 24.3594 215.219 21.125 215.219 15.6094C215.219 10.1719 211.938 6.89062 206.922 6.89062C201.906 6.89062 198.625 10.1875 198.625 15.6094C198.625 21.1094 201.859 24.3594 206.922 24.3594ZM206.922 20.875C204.672 20.875 203.25 18.9844 203.25 15.625C203.25 12.2969 204.703 10.375 206.922 10.375C209.141 10.375 210.578 12.2969 210.578 15.625C210.578 18.9844 209.156 20.875 206.922 20.875ZM217.688 24H222.25V1.45312H217.688V24ZM225.438 24H230V1.45312H225.438V24ZM240.766 24.3594C245.828 24.3594 249.062 21.125 249.062 15.6094C249.062 10.1719 245.781 6.89062 240.766 6.89062C235.75 6.89062 232.469 10.1875 232.469 15.6094C232.469 21.1094 235.703 24.3594 240.766 24.3594ZM240.766 20.875C238.516 20.875 237.094 18.9844 237.094 15.625C237.094 12.2969 238.547 10.375 240.766 10.375C242.984 10.375 244.422 12.2969 244.422 15.625C244.422 18.9844 243 20.875 240.766 20.875ZM274.766 7.25H270.266L267.719 19.6719H267.625L264.641 7.25H260.266L257.297 19.6719H257.203L254.672 7.25H250.078L254.531 24H259.328L262.344 12.1562H262.438L265.469 24H270.328L274.766 7.25Z" fill="#1A202C"/>
</svg>
