<svg width="57" height="20" viewBox="0 0 57 20" fill="none" xmlns="http://www.w3.org/2000/svg">
<path d="M0.496001 9.94586L2.13656 0.641814L3.76008 0.928085L6.40982 6.27567L5.63553 6.13914L9.87952 2.00711L11.503 2.29338L9.86249 11.5974L8.15154 11.2957L9.45077 3.92743L10.084 4.2065L5.71957 8.29153L5.51975 8.25629L2.90307 2.9403L3.49369 2.87704L2.19446 10.2453L0.496001 9.94586ZM16.5903 12.9382C15.9076 12.8179 15.2919 12.5848 14.7434 12.2391C14.1948 11.8935 13.7381 11.4653 13.3731 10.9545C13.0082 10.4438 12.7523 9.87496 12.6052 9.24812C12.468 8.61442 12.4596 7.95621 12.58 7.27349C12.7018 6.58246 12.9349 5.96682 13.2791 5.42659C13.6233 4.88636 14.0542 4.43868 14.5718 4.08355C15.0894 3.72842 15.6643 3.4864 16.2966 3.35751C16.9303 3.2203 17.5926 3.21262 18.2837 3.33447C18.9747 3.45631 19.5945 3.69008 20.1431 4.03576C20.6916 4.38144 21.1484 4.80965 21.5133 5.3204C21.8797 5.82282 22.1322 6.38672 22.2709 7.01209C22.4179 7.63894 22.4305 8.29788 22.3087 8.98892C22.1883 9.67163 21.9511 10.2865 21.5971 10.8336C21.2445 11.3724 20.8095 11.8193 20.2919 12.1745C19.7743 12.5296 19.1986 12.7758 18.5649 12.913C17.9395 13.0517 17.2813 13.0601 16.5903 12.9382ZM16.8633 11.3896C17.3213 11.4704 17.7556 11.4654 18.1665 11.3748C18.5789 11.2758 18.9523 11.1055 19.2867 10.8641C19.6295 10.624 19.9111 10.3174 20.1314 9.94421C20.3601 9.57247 20.5155 9.15348 20.5977 8.68723C20.6799 8.22099 20.6764 7.77827 20.5872 7.35906C20.5078 6.933 20.3481 6.54858 20.1081 6.2058C19.8779 5.85615 19.5852 5.56847 19.2301 5.34275C18.875 5.11703 18.4685 4.9638 18.0106 4.88306C17.561 4.80378 17.1308 4.80947 16.7199 4.90013C16.309 4.99079 15.9315 5.16029 15.5872 5.40864C15.2528 5.65013 14.9712 5.95674 14.7426 6.32849C14.5154 6.69191 14.3607 7.10674 14.2785 7.57298C14.1962 8.03922 14.199 8.48611 14.2867 8.91364C14.3744 9.34117 14.5341 9.72559 14.7658 10.0669C15.0059 10.4097 15.3027 10.6981 15.6563 10.9322C16.0114 11.1579 16.4137 11.3104 16.8633 11.3896ZM23.3878 13.9823L25.0283 4.67825L28.4877 5.28823C29.1205 5.39981 29.6577 5.61473 30.0995 5.933C30.5511 6.24441 30.8754 6.64497 31.0723 7.13468C31.2707 7.61606 31.3149 8.16897 31.2048 8.79341C31.0917 9.43449 30.8415 9.95267 30.4542 10.3479C30.0752 10.7447 29.6085 11.0058 29.0542 11.1312L30.5313 15.2419L28.608 14.9028L27.0427 10.416L28.0272 11.2592L25.6918 10.8474L25.0863 14.2818L23.3878 13.9823ZM25.9561 9.34877L27.742 9.66366C28.05 9.71798 28.3267 9.70668 28.5721 9.62976C28.8189 9.54451 29.0238 9.40466 29.1869 9.21021C29.3499 9.01576 29.4564 8.777 29.5063 8.49392C29.5577 8.20252 29.5393 7.94174 29.4511 7.71157C29.3644 7.47308 29.2189 7.27574 29.0147 7.11954C28.8119 6.95501 28.5565 6.84559 28.2484 6.79128L26.4626 6.47638L25.9561 9.34877ZM32.0347 15.507L33.6753 6.20294L39.8572 7.29297L39.5929 8.79161L35.1095 8.00106L34.6889 10.3864L38.9225 11.1329L38.6583 12.6315L34.4246 11.885L33.9974 14.3078L38.4809 15.0984L38.2166 16.597L32.0347 15.507ZM39.8523 16.8854L41.4929 7.5814L42.8167 7.81482L46.7215 15.6114L46.0104 15.6277L47.2501 8.59656L48.9486 8.89604L47.308 18.2001L45.9718 17.9645L42.1507 10.1311L42.7994 10.1039L41.5508 17.1849L39.8523 16.8854ZM51.1478 18.8771L52.5241 11.0717L50.1138 10.6467L50.3781 9.14809L56.8722 10.2932L56.6079 11.7918L54.2351 11.3734L52.8588 19.1788L51.1478 18.8771Z" fill="#3563E9"/>
</svg>
