<svg width="190" height="64" viewBox="0 0 190 64" fill="none" xmlns="http://www.w3.org/2000/svg">
<g clip-path="url(#clip0_1_1097)">
<path d="M32.0006 5.86121C46.4381 5.86121 58.1193 17.5562 58.1193 31.9887C58.1193 46.4212 46.4381 58.1381 32.0006 58.1381C17.5631 58.1381 5.88184 46.4431 5.88184 32.0106C5.88184 17.5781 17.5631 5.86121 32.0006 5.86121Z" fill="#E74D89"/>
<path d="M32 60C16.5563 60 4 47.4509 4 32.011C4 16.5491 16.5563 4 32 4C47.4437 4 60 16.5491 60 31.9891C60 47.429 47.4437 60 32 60ZM55.6031 35.8217C54.7937 35.5589 48.2094 33.6097 40.7062 34.7923C43.8344 43.3774 45.1031 50.3856 45.3438 51.8311C50.725 48.2174 54.5531 42.4795 55.6031 35.8217ZM41.3406 54.043C40.9906 51.9406 39.5906 44.6257 36.2437 35.9093C36.2 35.9312 36.1344 35.9531 36.0906 35.9531C22.5938 40.6617 17.7594 50.0133 17.3219 50.8893C21.3687 54.043 26.4656 55.9265 32 55.9265C35.3031 55.9484 38.475 55.2695 41.3406 54.043ZM14.2375 48.0203C14.7844 47.1005 21.3469 36.2378 33.6844 32.23C33.9906 32.1205 34.3188 32.0329 34.625 31.9452C34.0344 30.5874 33.3781 29.2296 32.6781 27.8936C20.7344 31.4634 9.14062 31.3101 8.09063 31.2882C8.09063 31.5291 8.06875 31.77 8.06875 32.011C8.09063 38.165 10.4094 43.7716 14.2375 48.0203ZM8.59375 27.1271C9.66563 27.149 19.5094 27.1928 30.7094 24.2143C26.75 17.1623 22.4625 11.2491 21.85 10.395C15.1344 13.5487 10.1469 19.7247 8.59375 27.1271ZM26.4 8.77434C27.0562 9.65037 31.4094 15.5636 35.325 22.7689C43.8344 19.5714 47.4219 14.7532 47.8594 14.14C43.6375 10.395 38.0812 8.11732 32 8.11732C30.075 8.11732 28.1938 8.35823 26.4 8.77434ZM50.5063 16.8995C50.0031 17.5784 46 22.7251 37.1625 26.3387C37.7094 27.4775 38.2562 28.6383 38.7594 29.799C38.9344 30.2151 39.1094 30.6312 39.2844 31.0254C47.2469 30.018 55.1437 31.6386 55.9312 31.7919C55.8656 26.1635 53.8531 20.973 50.5063 16.8995Z" fill="#B2215A"/>
<g filter="url(#filter0_d_1_1097)">
<path d="M89.848 42V24.12H95.704C97.56 24.12 99.168 24.496 100.528 25.248C101.904 25.984 102.968 27.024 103.72 28.368C104.472 29.712 104.848 31.272 104.848 33.048C104.848 34.808 104.472 36.368 103.72 37.728C102.968 39.072 101.904 40.12 100.528 40.872C99.168 41.624 97.56 42 95.704 42H89.848ZM92.68 39.48H95.752C97.016 39.48 98.112 39.216 99.04 38.688C99.984 38.16 100.712 37.416 101.224 36.456C101.736 35.496 101.992 34.36 101.992 33.048C101.992 31.736 101.728 30.608 101.2 29.664C100.688 28.704 99.968 27.96 99.04 27.432C98.112 26.904 97.016 26.64 95.752 26.64H92.68V39.48ZM107.373 42V29.016H109.965V31.632L109.725 31.248C110.013 30.4 110.477 29.792 111.117 29.424C111.757 29.04 112.525 28.848 113.421 28.848H114.213V31.32H113.085C112.189 31.32 111.461 31.6 110.901 32.16C110.357 32.704 110.085 33.488 110.085 34.512V42H107.373ZM116.068 42V29.016H118.78V42H116.068ZM116.068 27.24V24.12H118.78V27.24H116.068ZM128.887 42.288C127.879 42.288 126.959 42.08 126.127 41.664C125.311 41.248 124.679 40.648 124.231 39.864L124.543 39.36V42H121.951V23.832H124.663V31.704L124.231 31.08C124.711 30.344 125.351 29.768 126.151 29.352C126.951 28.936 127.863 28.728 128.887 28.728C130.119 28.728 131.223 29.024 132.199 29.616C133.191 30.208 133.967 31.016 134.527 32.04C135.103 33.064 135.391 34.216 135.391 35.496C135.391 36.776 135.103 37.928 134.527 38.952C133.967 39.976 133.199 40.792 132.223 41.4C131.247 41.992 130.135 42.288 128.887 42.288ZM128.623 39.768C129.391 39.768 130.071 39.584 130.663 39.216C131.255 38.848 131.719 38.344 132.055 37.704C132.407 37.048 132.583 36.312 132.583 35.496C132.583 34.68 132.407 33.952 132.055 33.312C131.719 32.672 131.255 32.168 130.663 31.8C130.071 31.432 129.391 31.248 128.623 31.248C127.871 31.248 127.191 31.432 126.583 31.8C125.991 32.168 125.519 32.672 125.167 33.312C124.831 33.952 124.663 34.68 124.663 35.496C124.663 36.312 124.831 37.048 125.167 37.704C125.519 38.344 125.991 38.848 126.583 39.216C127.191 39.584 127.871 39.768 128.623 39.768ZM144.965 42.288C143.957 42.288 143.037 42.08 142.205 41.664C141.389 41.248 140.757 40.648 140.309 39.864L140.621 39.36V42H138.029V23.832H140.741V31.704L140.309 31.08C140.789 30.344 141.429 29.768 142.229 29.352C143.029 28.936 143.941 28.728 144.965 28.728C146.197 28.728 147.301 29.024 148.277 29.616C149.269 30.208 150.045 31.016 150.605 32.04C151.181 33.064 151.469 34.216 151.469 35.496C151.469 36.776 151.181 37.928 150.605 38.952C150.045 39.976 149.277 40.792 148.301 41.4C147.325 41.992 146.213 42.288 144.965 42.288ZM144.701 39.768C145.469 39.768 146.149 39.584 146.741 39.216C147.333 38.848 147.797 38.344 148.133 37.704C148.485 37.048 148.661 36.312 148.661 35.496C148.661 34.68 148.485 33.952 148.133 33.312C147.797 32.672 147.333 32.168 146.741 31.8C146.149 31.432 145.469 31.248 144.701 31.248C143.949 31.248 143.269 31.432 142.661 31.8C142.069 32.168 141.597 32.672 141.245 33.312C140.909 33.952 140.741 34.68 140.741 35.496C140.741 36.312 140.909 37.048 141.245 37.704C141.597 38.344 142.069 38.848 142.661 39.216C143.269 39.584 143.949 39.768 144.701 39.768ZM161.043 42.288C160.035 42.288 159.115 42.08 158.283 41.664C157.467 41.248 156.835 40.648 156.387 39.864L156.699 39.36V42H154.107V23.832H156.819V31.704L156.387 31.08C156.867 30.344 157.507 29.768 158.307 29.352C159.107 28.936 160.019 28.728 161.043 28.728C162.275 28.728 163.379 29.024 164.355 29.616C165.347 30.208 166.123 31.016 166.683 32.04C167.259 33.064 167.547 34.216 167.547 35.496C167.547 36.776 167.259 37.928 166.683 38.952C166.123 39.976 165.355 40.792 164.379 41.4C163.403 41.992 162.291 42.288 161.043 42.288ZM160.779 39.768C161.547 39.768 162.227 39.584 162.819 39.216C163.411 38.848 163.875 38.344 164.211 37.704C164.563 37.048 164.739 36.312 164.739 35.496C164.739 34.68 164.563 33.952 164.211 33.312C163.875 32.672 163.411 32.168 162.819 31.8C162.227 31.432 161.547 31.248 160.779 31.248C160.027 31.248 159.347 31.432 158.739 31.8C158.147 32.168 157.675 32.672 157.323 33.312C156.987 33.952 156.819 34.68 156.819 35.496C156.819 36.312 156.987 37.048 157.323 37.704C157.675 38.344 158.147 38.848 158.739 39.216C159.347 39.584 160.027 39.768 160.779 39.768ZM170.186 42V23.832H172.898V42H170.186ZM182.164 42.288C180.868 42.288 179.716 41.992 178.708 41.4C177.716 40.792 176.94 39.976 176.38 38.952C175.82 37.912 175.54 36.752 175.54 35.472C175.54 34.16 175.82 33 176.38 31.992C176.956 30.984 177.724 30.192 178.684 29.616C179.644 29.024 180.732 28.728 181.948 28.728C182.924 28.728 183.796 28.896 184.564 29.232C185.332 29.568 185.98 30.032 186.508 30.624C187.036 31.2 187.436 31.864 187.708 32.616C187.996 33.368 188.14 34.168 188.14 35.016C188.14 35.224 188.132 35.44 188.116 35.664C188.1 35.888 188.068 36.096 188.02 36.288H177.676V34.128H186.484L185.188 35.112C185.348 34.328 185.292 33.632 185.02 33.024C184.764 32.4 184.364 31.912 183.82 31.56C183.292 31.192 182.668 31.008 181.948 31.008C181.228 31.008 180.588 31.192 180.028 31.56C179.468 31.912 179.036 32.424 178.732 33.096C178.428 33.752 178.308 34.552 178.372 35.496C178.292 36.376 178.412 37.144 178.732 37.8C179.068 38.456 179.532 38.968 180.124 39.336C180.732 39.704 181.42 39.888 182.188 39.888C182.972 39.888 183.636 39.712 184.18 39.36C184.74 39.008 185.18 38.552 185.5 37.992L187.708 39.072C187.452 39.68 187.052 40.232 186.508 40.728C185.98 41.208 185.34 41.592 184.588 41.88C183.852 42.152 183.044 42.288 182.164 42.288Z" fill="white"/>
<path d="M88 46.2H189.196V47.16H88V46.2Z" fill="white"/>
</g>
<a href="https://dribbble.com/Pickolab">
<rect fill="black" fill-opacity="0" y="-0.12" width="101.196" height="30.24"/>
</a>
</g>
<defs>
<filter id="filter0_d_1_1097" x="73.848" y="7.83203" width="130.292" height="50.4559" filterUnits="userSpaceOnUse" color-interpolation-filters="sRGB">
<feFlood flood-opacity="0" result="BackgroundImageFix"/>
<feColorMatrix in="SourceAlpha" type="matrix" values="0 0 0 0 0 0 0 0 0 0 0 0 0 0 0 0 0 0 127 0" result="hardAlpha"/>
<feOffset/>
<feGaussianBlur stdDeviation="8"/>
<feColorMatrix type="matrix" values="0 0 0 0 1 0 0 0 0 1 0 0 0 0 1 0 0 0 0.1 0"/>
<feBlend mode="normal" in2="BackgroundImageFix" result="effect1_dropShadow_1_1097"/>
<feBlend mode="normal" in="SourceGraphic" in2="effect1_dropShadow_1_1097" result="shape"/>
</filter>
<clipPath id="clip0_1_1097">
<rect width="190" height="64" fill="white"/>
</clipPath>
</defs>
</svg>
